<svg xmlns="http://www.w3.org/2000/svg" viewBox="0 0 24 24"><path d="M12 1.7c1.9 0 3.6 0.5 5.2 1.4 1.6 0.9 2.8 2.2 3.7 3.7 0.9 1.6 1.4 3.3 1.4 5.2 0 1.9-0.5 3.6-1.4 5.2 -0.9 1.6-2.2 2.8-3.7 3.7 -1.6 0.9-3.3 1.4-5.2 1.4 -1.9 0-3.6-0.5-5.2-1.4 -1.6-0.9-2.8-2.2-3.7-3.7 -0.9-1.6-1.4-3.3-1.4-5.2 0-1.9 0.5-3.6 1.4-5.2 0.9-1.6 2.2-2.8 3.7-3.7 1.6-0.9 3.3-1.4 5.2-1.4Zm3.7 7c0 0-0.1 0.1-0.1 0.1 -0.1 0.1-0.1 0.1-0.2 0.1 0 0 0 0 0.1-0.1 0 0 0-0.1 0.1-0.1 0-0.1 0-0.1 0-0.1 0.1-0.1 0.2-0.1 0.3-0.2 0.1-0.1 0.4-0.1 0.7-0.2 0.3-0.1 0.5 0 0.7 0.1 0 0 0-0.1 0.1-0.2 0.1-0.1 0.2-0.2 0.2-0.2 0 0 0.1 0 0.2-0.1 0.1 0 0.2-0.1 0.2-0.1l0-0.3c-0.1 0-0.2 0-0.2-0.1 0-0.1-0.1-0.2-0.1-0.3 0 0 0 0.1-0.1 0.1 0-0.1 0-0.1-0.1-0.1 0 0-0.1 0-0.2 0 -0.1 0-0.1 0-0.1 0 -0.1 0-0.2-0.1-0.2-0.1 0 0-0.1-0.1-0.1-0.2 0-0.1 0-0.2-0.1-0.2 0 0-0.1-0.1-0.1-0.1 -0.1 0-0.1-0.1-0.1-0.1 0 0 0 0 0-0.1 0 0 0-0.1 0-0.1 0 0 0-0.1-0.1-0.1 0 0 0 0-0.1 0 0 0-0.1 0-0.1 0.1 0 0-0.1 0.1-0.1 0.1 0 0-0.1 0.1-0.1 0.1 0 0-0.1 0-0.1 0 0 0 0 0-0.1 0 0 0 0 0-0.1 0 0 0 0 0-0.1 0 0 0-0.1 0-0.1 0 0 0-0.1 0-0.1 0 0.1 0 0.1-0.1 0-0.1 -0.1 0-0.2 0-0.2 0 0.1 0 0.1-0.1 0.1-0.2 0-0.1-0.1-0.1-0.1-0.2l0.1 0c0 0 0-0.1-0.1-0.1 -0.1 0-0.1-0.1-0.2-0.1 -0.1 0-0.1-0.1-0.2-0.1 -0.1 0-0.2-0.1-0.5-0.1 -0.2 0-0.4 0-0.4 0 0 0.1-0.1 0.1-0.1 0.1 0 0 0 0.1 0.1 0.2 0 0.1 0 0.1 0 0.2 0 0.1 0 0.1-0.1 0.2 -0.1 0.1-0.1 0.1-0.1 0.2 0 0.1 0.1 0.1 0.2 0.2 0.1 0.1 0.2 0.2 0.1 0.3 0 0.1-0.1 0.1-0.2 0.2 -0.1 0.1-0.2 0.1-0.2 0.2 0 0.1-0.1 0.2 0 0.2 0 0.1 0.1 0.2 0.1 0.2 0 0 0 0 0 0.1 0 0 0 0 0 0.1 0 0-0.1 0-0.1 0.1 0 0-0.1 0-0.1 0l0 0c-0.1 0-0.2 0-0.3-0.1 -0.1-0.1-0.1-0.2-0.2-0.3 -0.1-0.2-0.1-0.4-0.2-0.4 -0.2-0.1-0.3-0.1-0.4 0 0-0.1-0.2-0.2-0.5-0.3 -0.2-0.1-0.5-0.1-0.8-0.1 0.1 0 0.1-0.1 0-0.2 -0.1-0.1-0.1-0.2-0.3-0.2 0-0.1 0-0.1 0.1-0.2 0-0.1 0-0.2 0-0.2 0-0.1 0.1-0.2 0.2-0.3 0 0 0 0 0.1-0.1 0.1-0.1 0.1-0.1 0.1-0.2 0-0.1 0-0.1 0-0.1 0.3 0 0.5 0 0.7-0.1 0 0 0.1-0.1 0.2-0.2 0.1-0.1 0.1-0.2 0.1-0.2 0.1-0.1 0.1-0.1 0.2-0.1 0 0 0.1 0 0.2 0.1 0.1 0 0.1 0.1 0.2 0.1 0.1 0 0.2 0 0.2-0.1 0-0.1 0-0.2-0.1-0.3 0.1 0 0.1-0.1 0-0.2 0-0.1-0.1-0.1-0.1-0.1 -0.1 0-0.2 0-0.4 0.1 -0.1 0-0.1 0.1 0 0.1 0 0-0.1 0-0.1 0.1 -0.1 0.1-0.1 0.2-0.2 0.2 -0.1 0.1-0.1 0-0.2-0.1 0 0 0-0.1-0.1-0.2 0-0.1-0.1-0.2-0.1-0.2 -0.1 0-0.1 0.1-0.2 0.2 0-0.1 0-0.1-0.1-0.2 -0.1-0.1-0.2-0.1-0.3-0.1 0.2-0.1 0.1-0.2-0.1-0.4 -0.1 0-0.2-0.1-0.3-0.1 -0.1 0-0.2 0-0.3 0.1 0 0.1-0.1 0.1-0.1 0.2 0 0 0 0.1 0.1 0.1 0 0 0.1 0.1 0.1 0.1 0 0 0.1 0 0.2 0.1 0.1 0 0.1 0 0.1 0 0.1 0.1 0.2 0.2 0.1 0.2 0 0-0.1 0-0.1 0 -0.1 0-0.1 0-0.2 0.1 0 0-0.1 0-0.1 0.1 0 0 0 0.1 0 0.2 0 0.1 0 0.2 0 0.2 0 0-0.1-0.1-0.1-0.2 0-0.1-0.1-0.2-0.1-0.2 0.1 0.1 0 0.1-0.3 0.1l-0.1 0c0 0-0.1 0-0.2 0 -0.1 0-0.2 0-0.3 0 -0.1 0-0.1 0-0.2-0.1 0-0.1 0-0.2 0-0.3 0 0 0 0 0.1 0 0 0-0.1-0.1-0.1-0.1 -0.1-0.1-0.1-0.1-0.1-0.1 -0.4 0.1-0.8 0.3-1.3 0.5 0.1 0 0.1 0 0.2 0 0 0 0.1 0 0.2-0.1 0.1 0 0.1-0.1 0.1-0.1 0.3-0.1 0.5-0.2 0.6-0.1l0.1-0.1c0.1 0.1 0.2 0.3 0.3 0.3 -0.1 0-0.2 0-0.4 0 -0.2 0.1-0.3 0.1-0.3 0.2 0.1 0.1 0.1 0.2 0.1 0.2 0 0-0.1-0.1-0.2-0.1 -0.1-0.1-0.1-0.1-0.2-0.1 -0.1 0-0.1-0.1-0.2-0.1 -0.1 0-0.2 0-0.3 0 -1.3 0.7-2.4 1.7-3.1 3 0.1 0.1 0.1 0.1 0.2 0.1 0 0 0.1 0 0.1 0.1 0 0.1 0 0.1 0 0.1 0 0 0.1 0 0.2 0 0.1 0.1 0.1 0.2 0 0.3 0 0 0.2 0.1 0.6 0.4 0.2 0.2 0.3 0.2 0.3 0.3 0 0.1 0 0.2-0.1 0.2 0 0 0-0.1-0.1-0.1 -0.1-0.1-0.1-0.1-0.1-0.1 0 0 0 0.1 0 0.2 0 0.1 0.1 0.2 0.1 0.2 -0.1 0-0.1 0.1-0.1 0.2 0 0.1 0 0.3 0 0.5 0 0.2 0 0.3 0 0.3l0 0c0 0.1 0 0.3 0.1 0.5 0.1 0.2 0.2 0.3 0.3 0.3 -0.1 0 0 0.2 0.3 0.6 0.1 0.1 0.1 0.1 0.1 0.1 0 0 0.1 0.1 0.2 0.1 0.1 0 0.1 0.1 0.2 0.1 0.1 0 0.1 0.1 0.1 0.1 0 0 0.1 0.1 0.1 0.3 0.1 0.2 0.1 0.3 0.2 0.3 0 0.1 0 0.1 0.1 0.3 0.1 0.1 0.1 0.2 0.1 0.3 0 0 0 0 0 0 0 0 0 0 0 0 0 0.1 0.1 0.1 0.2 0.2 0.1 0.1 0.2 0.1 0.2 0.2 0 0 0 0.1 0 0.1 0 0.1 0 0.1 0 0.1 0 0 0.1 0 0.1 0 0-0.2-0.1-0.5-0.3-0.8 -0.1-0.2-0.2-0.4-0.2-0.4 0 0-0.1-0.1-0.1-0.2 0-0.1 0-0.2-0.1-0.2 0 0 0 0 0.1 0 0 0 0.1 0 0.1 0 0 0 0.1 0 0.1 0.1 0 0 0 0 0 0 0 0.1 0 0.1 0 0.2 0 0.1 0.1 0.2 0.2 0.2 0.1 0.1 0.1 0.2 0.2 0.3 0.1 0.1 0.1 0.2 0.2 0.2 0.1 0.1 0.1 0.1 0.2 0.3 0.1 0.1 0.1 0.2 0 0.2 0.1 0 0.2 0 0.3 0.1 0.1 0.1 0.2 0.2 0.2 0.3 0 0.1 0.1 0.2 0.1 0.3 0 0.2 0 0.3 0.1 0.3 0 0.1 0.1 0.1 0.1 0.2 0.1 0.1 0.1 0.1 0.2 0.1l0.2 0.1 0.2 0.1c0 0 0.1 0.1 0.2 0.1 0.1 0.1 0.2 0.1 0.3 0.2 0.1 0 0.2 0.1 0.2 0.1 0.1 0 0.1 0 0.2 0 0.1 0 0.1 0 0.2 0 0.1 0 0.3 0 0.4 0.2 0.1 0.2 0.2 0.2 0.3 0.3 0.3 0.2 0.6 0.2 0.7 0.1 0 0 0 0 0 0.1 0 0.1 0.1 0.1 0.1 0.2 0 0.1 0.1 0.1 0.1 0.2 0 0 0.1 0.1 0.1 0.1 0 0.1 0.1 0.1 0.2 0.2 0.1 0.1 0.2 0.1 0.2 0.2 0.1 0 0.1-0.1 0.1-0.1 0 0.1 0 0.2 0.1 0.3 0.1 0.1 0.2 0.2 0.2 0.1 0.1 0 0.2-0.2 0.2-0.4 -0.3 0.1-0.5 0.1-0.7-0.2 0 0 0 0 0-0.1 0 0 0-0.1-0.1-0.1 0 0 0-0.1 0-0.1 0 0 0-0.1 0-0.1 0 0 0 0 0.1 0 0.1 0 0.1 0 0.1 0 0 0 0-0.1 0-0.2 0-0.1 0-0.1-0.1-0.2 0-0.1-0.1-0.2-0.1-0.3 -0.1-0.1-0.1-0.2-0.2-0.2 0 0.1-0.1 0.1-0.2 0.1 -0.1 0-0.2 0-0.2-0.1 0 0 0 0 0 0.1 0 0 0 0.1 0 0.1 -0.1 0-0.2 0-0.2 0 0 0 0-0.1 0-0.2 0-0.1 0-0.2 0-0.3 0 0 0-0.1 0.1-0.2 0-0.1 0.1-0.1 0.1-0.2 0-0.1 0-0.1 0.1-0.2 0-0.1 0-0.1-0.1-0.1 0 0-0.1 0-0.2 0 -0.2 0-0.3 0.1-0.3 0.3 0 0 0 0.1 0 0.1 0 0.1 0 0.1-0.1 0.2 0 0-0.1 0.1-0.1 0.1 -0.1 0-0.2 0-0.3 0 -0.2 0-0.3 0-0.3-0.1 -0.1-0.1-0.2-0.2-0.3-0.4 -0.1-0.2-0.1-0.4-0.1-0.5 0-0.1 0-0.2 0-0.4 0-0.1 0-0.3 0-0.3 0-0.1 0-0.2-0.1-0.3 0 0 0.1-0.1 0.1-0.1 0.1-0.1 0.1-0.1 0.1-0.1 0 0 0 0 0.1 0 0 0 0 0 0.1 0 0 0 0 0 0.1 0 0 0 0 0 0-0.1 0 0 0 0-0.1 0 0 0 0 0-0.1 0 0.1 0 0.2 0 0.4 0 0.2 0 0.3 0 0.4 0 0.1 0.1 0.2 0.1 0.3 0 0 0 0-0.1 0-0.1 0-0.1 0-0.1 0-0.2 0 0.2 0.2 0.3 0.4 0.1 0 0 0.1 0 0.2 0.1 0.1 0 0.2 0 0.2 0.1 0 0 0.1 0 0.1 0.1 0 0 0.1 0.1 0.1 0.1 0 0 0 0 0.1 0 0 0 0.1 0 0.1-0.1 0.1 0.1 0.1 0.2 0.2 0.3 0.1 0.4 0.2 0.6 0.3 0.6 0.1 0 0.1 0 0.1 0 0 0 0.1-0.1 0.1-0.1 0-0.1 0-0.1 0-0.2 0 0 0-0.1 0-0.2l0-0.1 0-0.2 0-0.1c-0.1 0-0.2-0.1-0.2-0.2 0-0.1 0-0.2 0-0.2 0-0.1 0.1-0.2 0.2-0.2 0 0 0 0 0.1 0 0.1 0 0.1-0.1 0.2-0.1 0.1 0 0.1-0.1 0.2-0.1 0.2-0.2 0.3-0.3 0.2-0.5 0.1 0 0.1 0 0.1-0.1 0 0 0 0-0.1 0 0 0-0.1 0-0.1-0.1 0 0-0.1 0-0.1 0 0.1 0 0.1-0.1 0-0.2 0 0 0.1-0.1 0.1-0.1 0-0.1 0.1-0.1 0.1-0.1 0.1 0.1 0.2 0.1 0.3 0 0.1-0.1 0.1-0.1 0-0.2 0-0.1 0.1-0.1 0.3-0.1 0.1 0 0.2-0.1 0.2-0.1 0.1 0 0.1 0 0.1 0 0 0 0-0.1 0-0.2 0-0.1 0-0.1 0-0.2 0 0 0.1-0.1 0.2-0.1 0.1 0 0.2-0.1 0.2-0.1l0.2-0.1c0 0 0-0.1 0-0.1 0.2 0 0.3 0 0.4-0.1 0.1-0.1 0.1-0.2-0.1-0.3 0-0.1 0-0.1 0-0.1 -0.1 0-0.1-0.1-0.2-0.1 0 0 0.1 0 0.2 0 0.1 0 0.1 0 0.1 0 0.1-0.1 0.1-0.2-0.1-0.2 -0.2 0-0.3 0-0.6 0.2Zm-2.2 11.7c1.8-0.3 3.4-1.2 4.7-2.5 0 0-0.1 0-0.2-0.1 -0.1 0-0.1 0-0.2 0 -0.2-0.1-0.3-0.1-0.3-0.1 0-0.1 0-0.1 0-0.2 0-0.1-0.1-0.1-0.1-0.1 0 0-0.1-0.1-0.2-0.1 -0.1 0-0.1-0.1-0.1-0.1 0 0 0 0-0.1-0.1 0 0-0.1-0.1-0.1-0.1 0 0-0.1 0-0.1-0.1 0 0-0.1 0-0.1 0 0 0-0.1 0-0.1 0l0 0c0 0-0.1 0-0.1 0 0 0 0 0-0.1 0 0 0 0 0-0.1 0 0 0 0 0 0 0 -0.2-0.2-0.3-0.2-0.5-0.3 0 0-0.1 0-0.1-0.1 -0.1 0-0.1-0.1-0.1-0.1 0 0-0.1 0-0.1 0 0 0-0.1 0-0.2 0.1 0 0-0.1 0.1-0.1 0.2 0 0.1 0 0.1 0 0.2 -0.1 0-0.1-0.1 0-0.2 0.1-0.1 0.1-0.2 0-0.2 0-0.1-0.1-0.1-0.1-0.1 -0.1 0-0.1 0-0.2 0.1 0 0-0.1 0.1-0.2 0.1 -0.1 0-0.1 0.1-0.1 0.1 0 0-0.1 0-0.1 0.1 -0.1 0-0.1 0.1-0.1 0.1 0 0-0.1 0.1-0.1 0.2 0 0.1 0 0.1-0.1 0.1 0 0-0.1-0.1-0.2-0.1 -0.1 0-0.1 0-0.1-0.1 0 0.1 0 0.2 0.1 0.5 0 0.2 0 0.4 0.1 0.5 0.1 0.3 0 0.5-0.2 0.6 -0.2 0.2-0.4 0.4-0.4 0.5 0 0.2 0 0.3 0.2 0.3 0 0.1 0 0.2-0.1 0.3 -0.1 0.1-0.1 0.2-0.1 0.3 0 0.1 0 0.1 0 0.2Z"/></svg>