<svg viewBox="0 0 100 100" xmlns="http://www.w3.org/2000/svg" xmlns:xlink="http://www.w3.org/1999/xlink"><symbol viewBox="0 0 24 24" id="chevron-down"><title>chevron-down</title><path d="M23.8 5.8c-0.4-0.4-1-0.4-1.2 0l-10.6 10.7 -10.6-10.7c-0.4-0.4-0.8-0.4-1.2 0 -0.4 0.4-0.4 0.8 0 1.2l11.2 11.3c0.1 0.1 0.4 0.2 0.6 0.2 0.2 0 0.4-0.1 0.6-0.2l11.2-11.3c0.2-0.4 0.2-0.8 0-1.2Z"/></symbol><symbol viewBox="0 0 24 24" id="chevron-left"><title>chevron-left</title><path d="M5.7 12.5l11.8 11.4c0.2 0.2 0.7 0.2 0.9 0 0.2-0.2 0.2-0.7 0-0.9l-11.2-10.9 11.2-10.9c0.2-0.2 0.2-0.7 0-0.9 -0.2-0.2-0.2-0.2-0.4-0.2 -0.2 0-0.4 0-0.4 0.2l-11.8 11.4c-0.2 0.2-0.2 0.7 0 0.9l0 0Z"/></symbol><symbol viewBox="0 0 24 24" id="chevron-right"><title>chevron-right</title><path d="M18.3 11.5l-11.8-11.4c-0.2-0.2-0.7-0.2-0.9 0 -0.2 0.2-0.2 0.7 0 0.9l11.2 10.9 -11.2 10.9c-0.2 0.2-0.2 0.7 0 0.9 0.2 0.2 0.2 0.2 0.4 0.2 0.2 0 0.4 0 0.4-0.2l11.8-11.4c0.2-0.2 0.2-0.7 0-0.9Z"/></symbol><symbol viewBox="0 0 24 24" id="chevron-up"><title>chevron-up</title><path d="M23.8 18.2c-0.4 0.4-1 0.4-1.2 0l-10.6-10.7 -10.6 10.7c-0.4 0.4-0.8 0.4-1.2 0 -0.4-0.4-0.4-0.8 0-1.2l11.2-11.3c0.1-0.1 0.4-0.2 0.6-0.2 0.2 0 0.4 0.1 0.6 0.2l11.2 11.3c0.2 0.4 0.2 0.8 0 1.2l0 0Z"/></symbol><symbol viewBox="0 0 24 24" id="facebook"><title>facebook</title><path d="M17.8 1l0 3.5 -2.1 0c-0.8 0-1.3 0.2-1.6 0.5 -0.3 0.3-0.4 0.8-0.4 1.4l0 2.5 3.9 0 -0.5 4 -3.4 0 0 10.2 -4.1 0 0-10.2 -3.4 0 0-4 3.4 0 0-2.9c0-1.7 0.5-2.9 1.4-3.9 0.9-0.9 2.2-1.4 3.7-1.4 1.3 0 2.3 0.1 3.1 0.2Z"/></symbol><symbol viewBox="0 0 24 24" id="globe"><title>globe</title><path d="M12 1.7c1.9 0 3.6 0.5 5.2 1.4 1.6 0.9 2.8 2.2 3.7 3.7 0.9 1.6 1.4 3.3 1.4 5.2 0 1.9-0.5 3.6-1.4 5.2 -0.9 1.6-2.2 2.8-3.7 3.7 -1.6 0.9-3.3 1.4-5.2 1.4 -1.9 0-3.6-0.5-5.2-1.4 -1.6-0.9-2.8-2.2-3.7-3.7 -0.9-1.6-1.4-3.3-1.4-5.2 0-1.9 0.5-3.6 1.4-5.2 0.9-1.6 2.2-2.8 3.7-3.7 1.6-0.9 3.3-1.4 5.2-1.4Zm3.7 7c0 0-0.1 0.1-0.1 0.1 -0.1 0.1-0.1 0.1-0.2 0.1 0 0 0 0 0.1-0.1 0 0 0-0.1 0.1-0.1 0-0.1 0-0.1 0-0.1 0.1-0.1 0.2-0.1 0.3-0.2 0.1-0.1 0.4-0.1 0.7-0.2 0.3-0.1 0.5 0 0.7 0.1 0 0 0-0.1 0.1-0.2 0.1-0.1 0.2-0.2 0.2-0.2 0 0 0.1 0 0.2-0.1 0.1 0 0.2-0.1 0.2-0.1l0-0.3c-0.1 0-0.2 0-0.2-0.1 0-0.1-0.1-0.2-0.1-0.3 0 0 0 0.1-0.1 0.1 0-0.1 0-0.1-0.1-0.1 0 0-0.1 0-0.2 0 -0.1 0-0.1 0-0.1 0 -0.1 0-0.2-0.1-0.2-0.1 0 0-0.1-0.1-0.1-0.2 0-0.1 0-0.2-0.1-0.2 0 0-0.1-0.1-0.1-0.1 -0.1 0-0.1-0.1-0.1-0.1 0 0 0 0 0-0.1 0 0 0-0.1 0-0.1 0 0 0-0.1-0.1-0.1 0 0 0 0-0.1 0 0 0-0.1 0-0.1 0.1 0 0-0.1 0.1-0.1 0.1 0 0-0.1 0.1-0.1 0.1 0 0-0.1 0-0.1 0 0 0 0 0-0.1 0 0 0 0 0-0.1 0 0 0 0 0-0.1 0 0 0-0.1 0-0.1 0 0 0-0.1 0-0.1 0 0.1 0 0.1-0.1 0-0.1 -0.1 0-0.2 0-0.2 0 0.1 0 0.1-0.1 0.1-0.2 0-0.1-0.1-0.1-0.1-0.2l0.1 0c0 0 0-0.1-0.1-0.1 -0.1 0-0.1-0.1-0.2-0.1 -0.1 0-0.1-0.1-0.2-0.1 -0.1 0-0.2-0.1-0.5-0.1 -0.2 0-0.4 0-0.4 0 0 0.1-0.1 0.1-0.1 0.1 0 0 0 0.1 0.1 0.2 0 0.1 0 0.1 0 0.2 0 0.1 0 0.1-0.1 0.2 -0.1 0.1-0.1 0.1-0.1 0.2 0 0.1 0.1 0.1 0.2 0.2 0.1 0.1 0.2 0.2 0.1 0.3 0 0.1-0.1 0.1-0.2 0.2 -0.1 0.1-0.2 0.1-0.2 0.2 0 0.1-0.1 0.2 0 0.2 0 0.1 0.1 0.2 0.1 0.2 0 0 0 0 0 0.1 0 0 0 0 0 0.1 0 0-0.1 0-0.1 0.1 0 0-0.1 0-0.1 0l0 0c-0.1 0-0.2 0-0.3-0.1 -0.1-0.1-0.1-0.2-0.2-0.3 -0.1-0.2-0.1-0.4-0.2-0.4 -0.2-0.1-0.3-0.1-0.4 0 0-0.1-0.2-0.2-0.5-0.3 -0.2-0.1-0.5-0.1-0.8-0.1 0.1 0 0.1-0.1 0-0.2 -0.1-0.1-0.1-0.2-0.3-0.2 0-0.1 0-0.1 0.1-0.2 0-0.1 0-0.2 0-0.2 0-0.1 0.1-0.2 0.2-0.3 0 0 0 0 0.1-0.1 0.1-0.1 0.1-0.1 0.1-0.2 0-0.1 0-0.1 0-0.1 0.3 0 0.5 0 0.7-0.1 0 0 0.1-0.1 0.2-0.2 0.1-0.1 0.1-0.2 0.1-0.2 0.1-0.1 0.1-0.1 0.2-0.1 0 0 0.1 0 0.2 0.1 0.1 0 0.1 0.1 0.2 0.1 0.1 0 0.2 0 0.2-0.1 0-0.1 0-0.2-0.1-0.3 0.1 0 0.1-0.1 0-0.2 0-0.1-0.1-0.1-0.1-0.1 -0.1 0-0.2 0-0.4 0.1 -0.1 0-0.1 0.1 0 0.1 0 0-0.1 0-0.1 0.1 -0.1 0.1-0.1 0.2-0.2 0.2 -0.1 0.1-0.1 0-0.2-0.1 0 0 0-0.1-0.1-0.2 0-0.1-0.1-0.2-0.1-0.2 -0.1 0-0.1 0.1-0.2 0.2 0-0.1 0-0.1-0.1-0.2 -0.1-0.1-0.2-0.1-0.3-0.1 0.2-0.1 0.1-0.2-0.1-0.4 -0.1 0-0.2-0.1-0.3-0.1 -0.1 0-0.2 0-0.3 0.1 0 0.1-0.1 0.1-0.1 0.2 0 0 0 0.1 0.1 0.1 0 0 0.1 0.1 0.1 0.1 0 0 0.1 0 0.2 0.1 0.1 0 0.1 0 0.1 0 0.1 0.1 0.2 0.2 0.1 0.2 0 0-0.1 0-0.1 0 -0.1 0-0.1 0-0.2 0.1 0 0-0.1 0-0.1 0.1 0 0 0 0.1 0 0.2 0 0.1 0 0.2 0 0.2 0 0-0.1-0.1-0.1-0.2 0-0.1-0.1-0.2-0.1-0.2 0.1 0.1 0 0.1-0.3 0.1l-0.1 0c0 0-0.1 0-0.2 0 -0.1 0-0.2 0-0.3 0 -0.1 0-0.1 0-0.2-0.1 0-0.1 0-0.2 0-0.3 0 0 0 0 0.1 0 0 0-0.1-0.1-0.1-0.1 -0.1-0.1-0.1-0.1-0.1-0.1 -0.4 0.1-0.8 0.3-1.3 0.5 0.1 0 0.1 0 0.2 0 0 0 0.1 0 0.2-0.1 0.1 0 0.1-0.1 0.1-0.1 0.3-0.1 0.5-0.2 0.6-0.1l0.1-0.1c0.1 0.1 0.2 0.3 0.3 0.3 -0.1 0-0.2 0-0.4 0 -0.2 0.1-0.3 0.1-0.3 0.2 0.1 0.1 0.1 0.2 0.1 0.2 0 0-0.1-0.1-0.2-0.1 -0.1-0.1-0.1-0.1-0.2-0.1 -0.1 0-0.1-0.1-0.2-0.1 -0.1 0-0.2 0-0.3 0 -1.3 0.7-2.4 1.7-3.1 3 0.1 0.1 0.1 0.1 0.2 0.1 0 0 0.1 0 0.1 0.1 0 0.1 0 0.1 0 0.1 0 0 0.1 0 0.2 0 0.1 0.1 0.1 0.2 0 0.3 0 0 0.2 0.1 0.6 0.4 0.2 0.2 0.3 0.2 0.3 0.3 0 0.1 0 0.2-0.1 0.2 0 0 0-0.1-0.1-0.1 -0.1-0.1-0.1-0.1-0.1-0.1 0 0 0 0.1 0 0.2 0 0.1 0.1 0.2 0.1 0.2 -0.1 0-0.1 0.1-0.1 0.2 0 0.1 0 0.3 0 0.5 0 0.2 0 0.3 0 0.3l0 0c0 0.1 0 0.3 0.1 0.5 0.1 0.2 0.2 0.3 0.3 0.3 -0.1 0 0 0.2 0.3 0.6 0.1 0.1 0.1 0.1 0.1 0.1 0 0 0.1 0.1 0.2 0.1 0.1 0 0.1 0.1 0.2 0.1 0.1 0 0.1 0.1 0.1 0.1 0 0 0.1 0.1 0.1 0.3 0.1 0.2 0.1 0.3 0.2 0.3 0 0.1 0 0.1 0.1 0.3 0.1 0.1 0.1 0.2 0.1 0.3 0 0 0 0 0 0 0 0 0 0 0 0 0 0.1 0.1 0.1 0.2 0.2 0.1 0.1 0.2 0.1 0.2 0.2 0 0 0 0.1 0 0.1 0 0.1 0 0.1 0 0.1 0 0 0.1 0 0.1 0 0-0.2-0.1-0.5-0.3-0.8 -0.1-0.2-0.2-0.4-0.2-0.4 0 0-0.1-0.1-0.1-0.2 0-0.1 0-0.2-0.1-0.2 0 0 0 0 0.1 0 0 0 0.1 0 0.1 0 0 0 0.1 0 0.1 0.1 0 0 0 0 0 0 0 0.1 0 0.1 0 0.2 0 0.1 0.1 0.2 0.2 0.2 0.1 0.1 0.1 0.2 0.2 0.3 0.1 0.1 0.1 0.2 0.2 0.2 0.1 0.1 0.1 0.1 0.2 0.3 0.1 0.1 0.1 0.2 0 0.2 0.1 0 0.2 0 0.3 0.1 0.1 0.1 0.2 0.2 0.2 0.3 0 0.1 0.1 0.2 0.1 0.3 0 0.2 0 0.3 0.1 0.3 0 0.1 0.1 0.1 0.1 0.2 0.1 0.1 0.1 0.1 0.2 0.1l0.2 0.1 0.2 0.1c0 0 0.1 0.1 0.2 0.1 0.1 0.1 0.2 0.1 0.3 0.2 0.1 0 0.2 0.1 0.2 0.1 0.1 0 0.1 0 0.2 0 0.1 0 0.1 0 0.2 0 0.1 0 0.3 0 0.4 0.2 0.1 0.2 0.2 0.2 0.3 0.3 0.3 0.2 0.6 0.2 0.7 0.1 0 0 0 0 0 0.1 0 0.1 0.1 0.1 0.1 0.2 0 0.1 0.1 0.1 0.1 0.2 0 0 0.1 0.1 0.1 0.1 0 0.1 0.1 0.1 0.2 0.2 0.1 0.1 0.2 0.1 0.2 0.2 0.1 0 0.1-0.1 0.1-0.1 0 0.1 0 0.2 0.1 0.3 0.1 0.1 0.2 0.2 0.2 0.1 0.1 0 0.2-0.2 0.2-0.4 -0.3 0.1-0.5 0.1-0.7-0.2 0 0 0 0 0-0.1 0 0 0-0.1-0.1-0.1 0 0 0-0.1 0-0.1 0 0 0-0.1 0-0.1 0 0 0 0 0.1 0 0.1 0 0.1 0 0.1 0 0 0 0-0.1 0-0.2 0-0.1 0-0.1-0.1-0.2 0-0.1-0.1-0.2-0.1-0.3 -0.1-0.1-0.1-0.2-0.2-0.2 0 0.1-0.1 0.1-0.2 0.1 -0.1 0-0.2 0-0.2-0.1 0 0 0 0 0 0.1 0 0 0 0.1 0 0.1 -0.1 0-0.2 0-0.2 0 0 0 0-0.1 0-0.2 0-0.1 0-0.2 0-0.3 0 0 0-0.1 0.1-0.2 0-0.1 0.1-0.1 0.1-0.2 0-0.1 0-0.1 0.1-0.2 0-0.1 0-0.1-0.1-0.1 0 0-0.1 0-0.2 0 -0.2 0-0.3 0.1-0.3 0.3 0 0 0 0.1 0 0.1 0 0.1 0 0.1-0.1 0.2 0 0-0.1 0.1-0.1 0.1 -0.1 0-0.2 0-0.3 0 -0.2 0-0.3 0-0.3-0.1 -0.1-0.1-0.2-0.2-0.3-0.4 -0.1-0.2-0.1-0.4-0.1-0.5 0-0.1 0-0.2 0-0.4 0-0.1 0-0.3 0-0.3 0-0.1 0-0.2-0.1-0.3 0 0 0.1-0.1 0.1-0.1 0.1-0.1 0.1-0.1 0.1-0.1 0 0 0 0 0.1 0 0 0 0 0 0.1 0 0 0 0 0 0.1 0 0 0 0 0 0-0.1 0 0 0 0-0.1 0 0 0 0 0-0.1 0 0.1 0 0.2 0 0.4 0 0.2 0 0.3 0 0.4 0 0.1 0.1 0.2 0.1 0.3 0 0 0 0-0.1 0-0.1 0-0.1 0-0.1 0-0.2 0 0.2 0.2 0.3 0.4 0.1 0 0 0.1 0 0.2 0.1 0.1 0 0.2 0 0.2 0.1 0 0 0.1 0 0.1 0.1 0 0 0.1 0.1 0.1 0.1 0 0 0 0 0.1 0 0 0 0.1 0 0.1-0.1 0.1 0.1 0.1 0.2 0.2 0.3 0.1 0.4 0.2 0.6 0.3 0.6 0.1 0 0.1 0 0.1 0 0 0 0.1-0.1 0.1-0.1 0-0.1 0-0.1 0-0.2 0 0 0-0.1 0-0.2l0-0.1 0-0.2 0-0.1c-0.1 0-0.2-0.1-0.2-0.2 0-0.1 0-0.2 0-0.2 0-0.1 0.1-0.2 0.2-0.2 0 0 0 0 0.1 0 0.1 0 0.1-0.1 0.2-0.1 0.1 0 0.1-0.1 0.2-0.1 0.2-0.2 0.3-0.3 0.2-0.5 0.1 0 0.1 0 0.1-0.1 0 0 0 0-0.1 0 0 0-0.1 0-0.1-0.1 0 0-0.1 0-0.1 0 0.1 0 0.1-0.1 0-0.2 0 0 0.1-0.1 0.1-0.1 0-0.1 0.1-0.1 0.1-0.1 0.1 0.1 0.2 0.1 0.3 0 0.1-0.1 0.1-0.1 0-0.2 0-0.1 0.1-0.1 0.3-0.1 0.1 0 0.2-0.1 0.2-0.1 0.1 0 0.1 0 0.1 0 0 0 0-0.1 0-0.2 0-0.1 0-0.1 0-0.2 0 0 0.1-0.1 0.2-0.1 0.1 0 0.2-0.1 0.2-0.1l0.2-0.1c0 0 0-0.1 0-0.1 0.2 0 0.3 0 0.4-0.1 0.1-0.1 0.1-0.2-0.1-0.3 0-0.1 0-0.1 0-0.1 -0.1 0-0.1-0.1-0.2-0.1 0 0 0.1 0 0.2 0 0.1 0 0.1 0 0.1 0 0.1-0.1 0.1-0.2-0.1-0.2 -0.2 0-0.3 0-0.6 0.2Zm-2.2 11.7c1.8-0.3 3.4-1.2 4.7-2.5 0 0-0.1 0-0.2-0.1 -0.1 0-0.1 0-0.2 0 -0.2-0.1-0.3-0.1-0.3-0.1 0-0.1 0-0.1 0-0.2 0-0.1-0.1-0.1-0.1-0.1 0 0-0.1-0.1-0.2-0.1 -0.1 0-0.1-0.1-0.1-0.1 0 0 0 0-0.1-0.1 0 0-0.1-0.1-0.1-0.1 0 0-0.1 0-0.1-0.1 0 0-0.1 0-0.1 0 0 0-0.1 0-0.1 0l0 0c0 0-0.1 0-0.1 0 0 0 0 0-0.1 0 0 0 0 0-0.1 0 0 0 0 0 0 0 -0.2-0.2-0.3-0.2-0.5-0.3 0 0-0.1 0-0.1-0.1 -0.1 0-0.1-0.1-0.1-0.1 0 0-0.1 0-0.1 0 0 0-0.1 0-0.2 0.1 0 0-0.1 0.1-0.1 0.2 0 0.1 0 0.1 0 0.2 -0.1 0-0.1-0.1 0-0.2 0.1-0.1 0.1-0.2 0-0.2 0-0.1-0.1-0.1-0.1-0.1 -0.1 0-0.1 0-0.2 0.1 0 0-0.1 0.1-0.2 0.1 -0.1 0-0.1 0.1-0.1 0.1 0 0-0.1 0-0.1 0.1 -0.1 0-0.1 0.1-0.1 0.1 0 0-0.1 0.1-0.1 0.2 0 0.1 0 0.1-0.1 0.1 0 0-0.1-0.1-0.2-0.1 -0.1 0-0.1 0-0.1-0.1 0 0.1 0 0.2 0.1 0.5 0 0.2 0 0.4 0.1 0.5 0.1 0.3 0 0.5-0.2 0.6 -0.2 0.2-0.4 0.4-0.4 0.5 0 0.2 0 0.3 0.2 0.3 0 0.1 0 0.2-0.1 0.3 -0.1 0.1-0.1 0.2-0.1 0.3 0 0.1 0 0.1 0 0.2Z"/></symbol><symbol viewBox="0 0 24 24" id="google-plus"><title>google-plus</title><path d="M14.5 12.1c0 1.2-0.3 2.3-0.8 3.2 -0.5 0.9-1.2 1.7-2.2 2.2 -0.9 0.5-2 0.8-3.2 0.8 -0.9 0-1.7-0.2-2.5-0.5 -0.8-0.3-1.5-0.8-2-1.4 -0.6-0.6-1-1.2-1.4-2 -0.3-0.8-0.5-1.6-0.5-2.5 0-0.9 0.2-1.7 0.5-2.5 0.3-0.8 0.8-1.5 1.4-2 0.6-0.6 1.2-1 2-1.4 0.8-0.3 1.6-0.5 2.5-0.5 1.7 0 3.1 0.6 4.3 1.7l-1.7 1.7c-0.7-0.7-1.5-1-2.5-1 -0.7 0-1.4 0.2-2 0.5 -0.6 0.4-1.1 0.8-1.4 1.5 -0.4 0.6-0.5 1.3-0.5 2 0 0.7 0.2 1.4 0.5 2 0.4 0.6 0.8 1.1 1.4 1.5 0.6 0.4 1.3 0.5 2 0.5 0.5 0 0.9-0.1 1.3-0.2 0.4-0.1 0.7-0.3 1-0.5 0.3-0.2 0.5-0.4 0.7-0.7 0.2-0.3 0.3-0.5 0.4-0.7 0.1-0.2 0.2-0.4 0.2-0.6l-3.6 0 0-2.2 6 0c0.1 0.4 0.1 0.7 0.1 1.1Zm7.5-1.1l0 1.8 -1.8 0 0 1.8 -1.8 0 0-1.8 -1.8 0 0-1.8 1.8 0 0-1.8 1.8 0 0 1.8 1.8 0Z"/></symbol><symbol viewBox="0 0 392 250" id="high-tech-campus-linework"><title>high-tech-campus-linework</title> <line fill="none" stroke="#FFFFFF" stroke-width="0.25" stroke-miterlimit="10" x1="290.667" y1="166" x2="81.333" y2="130.667"/> <polyline fill="none" stroke="#FFFFFF" stroke-width="0.25" stroke-miterlimit="10" points="154.333,16.667 35.667,204 183.667,174 
	8.333,100 353,24.667 379.667,97.333 313.667,17.333 281,241.334 239,42.667 176.333,155.334 147,28.667 31.667,62 19,160 109,198 
	52.333,49.333 "/> <line fill="none" stroke="#FFFFFF" stroke-width="0.25" stroke-miterlimit="10" x1="98.667" y1="104.667" x2="380" y2="64.667"/> <line fill="none" stroke="#FFFFFF" stroke-width="0.25" stroke-miterlimit="10" x1="380" y1="64.667" x2="123.333" y2="66.667"/> </symbol><symbol viewBox="0 0 24 24" id="icon"><title>icon</title><path d="M12 1c6.1 0 11 4.9 11 11s-4.9 11-11 11S1 18.1 1 12 5.9 1 12 1M12 0C5.4 0 0 5.4 0 12c0 6.6 5.4 12 12 12 6.6 0 12-5.4 12-12C24 5.4 18.6 0 12 0L12 0z"/><path d="M12 7c2.8 0 5 2.2 5 5s-2.2 5-5 5 -5-2.2-5-5S9.2 7 12 7M12 6c-3.3 0-6 2.7-6 6s2.7 6 6 6 6-2.7 6-6S15.3 6 12 6L12 6z"/></symbol><symbol viewBox="0 0 24 24" id="joomla_logo"><title>joomla_logo</title><style>.s0{fill:#a09b9a;}</style><path d="M22.6 6.7l0 0.1 -0.2 0 0 0.6 -0.1 0 0-0.6 -0.2 0 0-0.1 0.5 0ZM22.7 6.7l0.1 0 0.2 0.5 0.2-0.5 0.1 0 0 0.6 -0.1 0 0-0.4 0-0.2 -0.2 0.5 -0.1 0 -0.2-0.5 0 0.5 -0.1 0 0-0.6 0 0Z" fill="#a09b9a"/><path d="M4.3 12.1l-0.5-0.5c-1.4-1.4-1.9-3.5-1.3-5.3 -1.4-0.3-2.5-1.6-2.5-3.1 0-1.8 1.4-3.2 3.2-3.2 1.6 0 2.9 1.2 3.2 2.7 1.7-0.4 3.6 0.1 5 1.4l0.2 0.2 -2.4 2.4 -0.2-0.2c-0.8-0.8-2-0.8-2.8 0 -0.8 0.8-0.8 2 0 2.8l5.3 5.3 -2.4 2.4 -2.5-2.5 -2.4-2.4Z" fill="#7ac143"/><path d="M7 9.4l2.5-2.5 2.4-2.4 0.5-0.5c1.4-1.4 3.5-1.9 5.3-1.3 0.2-1.6 1.6-2.8 3.2-2.8 1.8 0 3.2 1.4 3.2 3.2 0 1.6-1.2 3-2.8 3.2 0.5 1.8 0.1 3.8-1.3 5.2l-0.2 0.2 -2.4-2.4 0.2-0.2c0.8-0.8 0.8-2 0-2.8 -0.8-0.8-2-0.8-2.8 0l-0.5 0.5 -2.3 2.4 -2.5 2.5 -2.4-2.4Z" fill="#f9a541"/><path d="M17.6 21.4c-1.8 0.6-3.9 0.1-5.3-1.3l-0.2-0.2 2.4-2.4 0.2 0.2c0.8 0.8 2 0.8 2.8 0 0.8-0.8 0.8-2 0-2.8l-0.5-0.5 -2.4-2.4 -2.5-2.5 2.4-2.4 5.3 5.3c1.4 1.4 1.8 3.3 1.4 5 1.6 0.2 2.8 1.6 2.8 3.2 0 1.8-1.4 3.2-3.2 3.2 -1.6 0-2.9-1.1-3.2-2.5" fill="#f44321"/><path d="M16.7 14.7l-2.5 2.5 -2.4 2.4 -0.5 0.5c-1.4 1.4-3.3 1.8-5 1.4 -0.3 1.4-1.6 2.5-3.1 2.5 -1.8 0-3.2-1.4-3.2-3.2 0-1.5 1.1-2.8 2.5-3.1 -0.4-1.8 0-3.7 1.4-5.1l0.2-0.2 2.4 2.4 -0.2 0.2c-0.8 0.8-0.8 2 0 2.8 0.8 0.8 2 0.8 2.8 0l0.5-0.5 2.4-2.4 2.5-2.5 2.4 2.4Z" fill="#5091cd"/></symbol><symbol viewBox="0 0 24 24" id="joomladagen_logo"><title>joomladagen_logo</title><style>.s0{fill:#f1bd30;}.s1{fill:#e63329;}.s2{fill:#6b9cd2;}</style><path d="M15.8 3.2c0.1 1-0.1 1.7-0.6 2.1 -0.3-0.3-0.6-0.6-0.9-0.9 0.2-0.2 0.3-0.4 0.3-0.6 0-0.3-0.2-0.6-0.5-0.7 -0.3-0.1-0.6-0.1-0.9 0.1 -0.4 0.4-1.2 1.2-1.2 1.2 0 0-0.8-0.8-1.2-1.2 -0.4-0.4-1-0.3-1.3 0.2 -0.1 0.3-0.1 0.6 0.2 1 -0.3 0.3-0.6 0.6-1 0.9 -0.5-0.3-0.7-1-0.6-2.1 -0.4-0.1-0.8-0.3-1-0.7 -0.1-0.3-0.2-0.5-0.1-0.8 0.1-0.5 0.6-1 1.2-1 0.6-0.1 1.1 0.3 1.4 1.1 0.9-0.2 1.7 0 2.3 0.8 0.6-0.7 1.4-1 2.3-0.8 0.4-0.8 0.8-1.2 1.4-1.1 0.6 0.1 1.1 0.5 1.1 1.1 0.1 0.7-0.2 1.1-1.1 1.5l0 0Z" fill="#f1bd30"/><path d="M5.5 8.1l-0.3-1.2c0 0 2.4-0.6 3.3-0.9 0.1 0 0.1 0 0.1-0.1 0.7-0.8 1.5-1.6 2.3-2.3 0 0 0 0 0 0 0.3 0.3 0.6 0.6 0.9 0.9 0 0.1-1.4 1.4-2.1 2.1 -0.3 0.3-0.4 0.8 0 1.2 0.3 0.3 0.8 0.3 1.1 0 0 0 0 0 0 0l0.9 0.9c-0.3 0.3-0.7 0.5-1.2 0.6 -0.1 0-0.2 0.1-0.3 0.2 -0.3 0.4-0.7 0.6-1.2 0.7 -0.1-0.4-0.2-0.9-0.3-1.3 0.1 0 0.2-0.1 0.3-0.1 0.3-0.2 0.4-0.6 0.3-1 -0.1-0.3-0.5-0.5-0.9-0.4 -0.9 0.2-2.9 0.8-2.9 0.8l0 0Z" fill="#e63329"/><path d="M13 5.6c0.3 0.3 0.6 0.6 0.9 0.9l-1.9 1.9c-0.6-0.6-1.3-1.3-1.9-1.9 0.3-0.3 0.6-0.6 0.9-0.9 0.2 0.2 0.7 0.8 0.8 0.8 0.2 0.2 0.2 0.2 0.4 0 0.3-0.3 0.5-0.5 0.8-0.8Z" fill="#6b9cd2"/><path d="M8.2 20.8c-0.1-1 0.1-1.7 0.6-2.1 0.3 0.3 0.6 0.6 0.9 0.9 -0.2 0.2-0.3 0.4-0.3 0.6 0 0.3 0.2 0.6 0.5 0.7 0.3 0.1 0.6 0.1 0.9-0.1 0.4-0.4 1.2-1.2 1.2-1.2 0 0 0.8 0.8 1.2 1.2 0.4 0.4 1 0.3 1.3-0.2 0.1-0.3 0.1-0.6-0.2-1 0.3-0.3 0.6-0.6 1-0.9 0.5 0.3 0.7 1 0.6 2.1 0.4 0.1 0.8 0.3 1 0.7 0.1 0.3 0.2 0.5 0.1 0.8 -0.1 0.5-0.6 1-1.2 1 -0.6 0.1-1.1-0.3-1.4-1.1 -0.9 0.2-1.7 0-2.3-0.8 -0.6 0.7-1.4 1-2.3 0.8 -0.4 0.8-0.8 1.2-1.4 1.1 -0.6-0.1-1.1-0.5-1.1-1.1 -0.1-0.7 0.2-1.1 1.1-1.5l0 0Z" fill="#f1bd30"/><path d="M18.5 15.9l0.3 1.2c0 0-2.4 0.7-3.2 0.9 -0.1 0-0.1 0-0.1 0.1 -0.7 0.8-1.5 1.6-2.3 2.3 0 0 0 0 0 0 -0.3-0.3-0.6-0.6-0.9-0.9 0-0.1 1.4-1.4 2.1-2.1 0.3-0.3 0.4-0.8 0-1.2 -0.3-0.3-0.8-0.3-1.1 0 0 0 0 0 0 0l-0.9-0.9c0.3-0.3 0.7-0.5 1.2-0.6 0.1 0 0.2-0.1 0.3-0.2 0.3-0.4 0.7-0.6 1.2-0.7 0.1 0.4 0.2 0.9 0.3 1.3 -0.1 0-0.2 0.1-0.3 0.1 -0.3 0.2-0.4 0.6-0.3 1 0.2 0.3 0.5 0.5 0.9 0.4 0.9-0.2 2.9-0.8 2.9-0.8l0 0Z" fill="#e63329"/><path d="M11 18.4c-0.3-0.3-0.6-0.6-0.9-0.9l1.9-1.9c0.6 0.6 1.3 1.3 1.9 1.9 -0.3 0.3-0.6 0.6-0.9 0.9 -0.2-0.2-0.7-0.8-0.8-0.8 -0.2-0.2-0.2-0.2-0.4 0 -0.3 0.3-0.5 0.5-0.8 0.8Z" fill="#6b9cd2"/><path d="M6.3 4.3c0.9 0.3 1.4 0.9 1.5 1.6 -0.4 0.1-0.8 0.2-1.3 0.3 -0.1-0.2-0.2-0.4-0.4-0.5 -0.3-0.2-0.6-0.2-0.9 0 -0.3 0.2-0.4 0.5-0.3 0.8 0.1 0.5 0.4 1.6 0.4 1.6 0 0-1.1 0.3-1.6 0.4 -0.5 0.1-0.7 0.8-0.4 1.2 0.2 0.3 0.5 0.4 0.9 0.3 0.1 0.4 0.2 0.8 0.3 1.3 -0.5 0.3-1.2 0.1-2.1-0.5 -0.3 0.3-0.7 0.5-1.1 0.5 -0.3 0-0.5-0.1-0.8-0.3 -0.4-0.4-0.5-1-0.3-1.5 0.3-0.6 0.8-0.8 1.7-0.7 0.3-0.9 0.9-1.4 1.8-1.6 -0.3-0.9-0.1-1.7 0.5-2.4 -0.5-0.7-0.6-1.3-0.2-1.8 0.3-0.5 1-0.6 1.5-0.4 0.7 0.3 0.9 0.8 0.8 1.7l0 0Z" fill="#f1bd30"/><path d="M5.4 15.6l-1.2-0.3c0 0 0.6-2.4 0.9-3.2 0-0.1 0-0.1 0-0.1 -0.3-1-0.6-2.1-0.9-3.2 0 0 0 0 0 0 0.4-0.1 0.8-0.2 1.3-0.3 0 0 0.5 1.9 0.8 2.8 0.1 0.4 0.5 0.7 1 0.6 0.4-0.1 0.7-0.5 0.6-1 0 0 0 0 0 0 0.4-0.1 0.8-0.2 1.3-0.3 0.1 0.4 0.1 0.9 0 1.3 0 0.1 0 0.2 0 0.4 0.2 0.4 0.2 0.9 0 1.4 -0.4-0.1-0.9-0.2-1.3-0.3 0-0.1 0-0.2 0-0.3 0-0.4-0.3-0.7-0.8-0.7 -0.4 0-0.7 0.2-0.8 0.6 -0.2 0.9-0.8 2.9-0.8 2.9l0 0Z" fill="#e63329"/><path d="M7 7.9c0.4-0.1 0.8-0.2 1.2-0.4 0.2 0.9 0.5 1.8 0.7 2.7 -0.8 0.2-1.7 0.5-2.6 0.7 -0.1-0.4-0.2-0.8-0.3-1.3 0.3-0.1 1-0.2 1.1-0.3 0.3-0.1 0.3-0.1 0.2-0.4 -0.1-0.4-0.2-0.7-0.3-1.1l0 0Z" fill="#6b9cd2"/><path d="M17.7 19.7c-0.9-0.3-1.4-0.9-1.5-1.6 0.4-0.1 0.8-0.2 1.3-0.3 0.1 0.2 0.2 0.4 0.4 0.5 0.3 0.2 0.6 0.2 0.9 0 0.3-0.2 0.4-0.5 0.3-0.8 -0.1-0.5-0.4-1.6-0.4-1.6 0 0 1.1-0.3 1.6-0.4 0.5-0.1 0.7-0.8 0.4-1.2 -0.2-0.3-0.5-0.4-0.9-0.3 -0.1-0.4-0.2-0.8-0.3-1.3 0.5-0.3 1.2-0.1 2.1 0.5 0.3-0.3 0.7-0.5 1.1-0.5 0.3 0 0.5 0.1 0.8 0.3 0.4 0.4 0.5 1 0.3 1.5 -0.3 0.6-0.8 0.8-1.7 0.7 -0.3 0.9-0.9 1.4-1.8 1.6 0.3 0.9 0.2 1.7-0.5 2.4 0.5 0.7 0.6 1.3 0.2 1.8 -0.3 0.5-1 0.6-1.5 0.4 -0.7-0.3-0.9-0.8-0.8-1.7l0 0Z" fill="#f1bd30"/><path d="M18.6 8.4l1.2 0.3c0 0-0.6 2.4-0.9 3.3 0 0.1 0 0.1 0 0.1 0.3 1 0.6 2.1 0.9 3.2 0 0 0 0 0 0 -0.4 0.1-0.8 0.2-1.3 0.3 0 0-0.5-1.9-0.8-2.8 -0.1-0.4-0.5-0.7-1-0.6 -0.4 0.1-0.7 0.5-0.6 1 0 0 0 0 0 0 -0.4 0.1-0.8 0.2-1.3 0.3 -0.1-0.4-0.1-0.9 0-1.3 0-0.1 0-0.2 0-0.4 -0.2-0.4-0.2-0.9 0-1.4 0.4 0.1 0.9 0.2 1.3 0.3 0 0.1 0 0.2 0 0.3 0 0.4 0.3 0.7 0.8 0.7 0.4 0 0.7-0.2 0.8-0.6 0.2-0.9 0.8-2.9 0.8-2.9l0 0Z" fill="#e63329"/><path d="M17 16.1c-0.4 0.1-0.8 0.3-1.2 0.4 -0.2-0.9-0.5-1.8-0.7-2.7 0.8-0.2 1.7-0.5 2.6-0.7 0.1 0.4 0.2 0.8 0.3 1.3 -0.3 0.1-1 0.3-1.1 0.3 -0.3 0.1-0.3 0.1-0.2 0.4 0.1 0.4 0.2 0.7 0.3 1.1Z" fill="#6b9cd2"/><path d="M2.5 13.1c0.8-0.6 1.5-0.8 2.1-0.5 -0.1 0.4-0.2 0.8-0.3 1.3 -0.2-0.1-0.4-0.1-0.7 0.1 -0.3 0.2-0.4 0.4-0.4 0.8 0 0.3 0.2 0.6 0.6 0.7 0.5 0.1 1.6 0.5 1.6 0.5 0 0-0.3 1.1-0.4 1.6 -0.1 0.5 0.3 1 0.8 1 0.3 0 0.6-0.2 0.7-0.6 0.4 0.1 0.8 0.2 1.3 0.4 0 0.6-0.5 1.1-1.5 1.6 0.1 0.4 0.1 0.8-0.1 1.2 -0.2 0.2-0.4 0.4-0.7 0.5 -0.5 0.2-1.1 0-1.5-0.5 -0.4-0.5-0.3-1.1 0.2-1.8 -0.6-0.7-0.8-1.5-0.5-2.4 -0.9-0.2-1.6-0.7-1.8-1.6 -0.9 0.1-1.4-0.1-1.7-0.7 -0.2-0.5-0.1-1.2 0.4-1.5 0.6-0.4 1.1-0.4 1.9 0.2l0 0Z" fill="#f1bd30"/><path d="M11.8 19.6l-0.9 0.9c0 0-1.7-1.7-2.4-2.4 0 0-0.1 0-0.1-0.1 -1.1-0.2-2.1-0.5-3.2-0.8 0 0 0 0 0 0 0.1-0.4 0.2-0.8 0.3-1.3 0.1 0 2 0.5 2.8 0.8 0.4 0.1 0.9-0.1 1-0.5 0.1-0.4-0.1-0.8-0.6-1 0 0 0 0 0 0 0.1-0.4 0.2-0.8 0.3-1.3 0.4 0.1 0.8 0.3 1.1 0.7 0.1 0.1 0.2 0.2 0.3 0.2 0.5 0.1 0.9 0.3 1.2 0.7 -0.3 0.3-0.6 0.6-0.9 0.9 -0.1-0.1-0.2-0.1-0.3-0.2 -0.4-0.2-0.8-0.1-1 0.3 -0.2 0.3-0.2 0.7 0.1 1 0.7 0.7 2.1 2.1 2.1 2.1l0 0Z" fill="#e63329"/><path d="M6 14.3c0.1-0.4 0.2-0.8 0.3-1.2 0.9 0.2 1.8 0.5 2.7 0.7 -0.2 0.8-0.5 1.7-0.7 2.6 -0.4-0.1-0.8-0.2-1.2-0.4 0.1-0.3 0.3-1 0.3-1.1 0.1-0.3 0.1-0.3-0.2-0.4 -0.4-0.1-0.7-0.2-1.1-0.3Z" fill="#6b9cd2"/><path d="M21.5 10.9c-0.7 0.6-1.5 0.8-2.1 0.5 0.1-0.4 0.2-0.8 0.3-1.3 0.2 0.1 0.4 0.1 0.7-0.1 0.3-0.2 0.4-0.4 0.4-0.8 0-0.3-0.2-0.6-0.6-0.7 -0.5-0.1-1.6-0.5-1.6-0.5 0 0 0.3-1.1 0.4-1.6 0.1-0.5-0.3-1-0.8-1 -0.3 0-0.6 0.3-0.7 0.6 -0.4-0.1-0.8-0.2-1.3-0.4 0-0.6 0.5-1.1 1.5-1.6 -0.1-0.4-0.1-0.8 0.1-1.2 0.2-0.2 0.4-0.4 0.7-0.5 0.5-0.2 1.1 0 1.5 0.5 0.4 0.5 0.3 1.1-0.2 1.8 0.6 0.7 0.8 1.5 0.5 2.4 0.9 0.2 1.6 0.7 1.8 1.6 0.9-0.1 1.4 0.1 1.7 0.7 0.2 0.5 0.1 1.2-0.4 1.5 -0.6 0.4-1.1 0.4-1.9-0.2l0 0Z" fill="#f1bd30"/><path d="M12.2 4.4l0.9-0.9c0 0 1.7 1.7 2.4 2.4 0 0 0.1 0 0.1 0.1 1.1 0.2 2.1 0.5 3.2 0.8 0 0 0 0 0 0 -0.1 0.4-0.2 0.8-0.3 1.3 -0.1 0-2-0.5-2.8-0.8 -0.4-0.1-0.9 0.1-1 0.5 -0.1 0.4 0.1 0.8 0.6 1 0 0 0 0 0 0 -0.1 0.4-0.2 0.8-0.3 1.3 -0.4-0.1-0.8-0.3-1.1-0.7 -0.1-0.1-0.2-0.2-0.3-0.2 -0.5-0.1-0.9-0.3-1.2-0.7 0.3-0.3 0.6-0.6 0.9-0.9 0.1 0.1 0.2 0.1 0.3 0.2 0.4 0.2 0.8 0.1 1-0.3 0.2-0.3 0.2-0.7-0.1-1 -0.7-0.7-2.1-2.1-2.1-2.1l0 0Z" fill="#e63329"/><path d="M18 9.7c-0.1 0.4-0.2 0.9-0.3 1.2 -0.9-0.2-1.8-0.5-2.7-0.7 0.2-0.8 0.5-1.7 0.7-2.6 0.4 0.1 0.8 0.2 1.2 0.4 -0.1 0.3-0.3 1-0.3 1.1 -0.1 0.3-0.1 0.3 0.2 0.4 0.4 0.1 0.7 0.2 1.1 0.3l0 0Z" fill="#6b9cd2"/></symbol><symbol viewBox="0 0 24 24" id="linkedin"><title>linkedin</title><path d="M6.4 8.6l0 13.3 -4.4 0 0-13.3 4.4 0Zm0.3-4.1c0 0.7-0.2 1.2-0.7 1.6 -0.5 0.4-1.1 0.7-1.8 0.7l0 0c-0.7 0-1.3-0.2-1.8-0.7 -0.4-0.4-0.7-1-0.7-1.6 0-0.7 0.2-1.2 0.7-1.6 0.5-0.4 1.1-0.6 1.8-0.6 0.7 0 1.3 0.2 1.8 0.6 0.4 0.4 0.7 1 0.7 1.6Zm15.6 9.8l0 7.6 -4.4 0 0-7.1c0-0.9-0.2-1.7-0.5-2.2 -0.4-0.5-0.9-0.8-1.7-0.8 -0.6 0-1 0.2-1.4 0.5 -0.4 0.3-0.7 0.7-0.9 1.1 -0.1 0.3-0.1 0.6-0.1 1.1l0 7.4 -4.4 0c0-3.6 0-6.5 0-8.7 0-2.2 0-3.5 0-4l0-0.6 4.4 0 0 1.9 0 0c0.2-0.3 0.4-0.5 0.5-0.7 0.2-0.2 0.4-0.4 0.8-0.7 0.3-0.2 0.7-0.4 1.2-0.6 0.5-0.1 1-0.2 1.5-0.2 1.5 0 2.8 0.5 3.7 1.5 0.9 1 1.4 2.5 1.4 4.5Z"/></symbol><symbol viewBox="0 0 24 24" id="list-alt"><title>list-alt</title><path d="M21.8 3c0.4 0 0.8 0.3 0.8 0.8l0 16.5c0 0.4-0.3 0.8-0.7 0.8l-19.5 0c-0.4 0-0.7-0.3-0.7-0.7l0-16.5c0-0.4 0.3-0.7 0.8-0.7l19.5 0m0-1.5l-19.5 0c-1.2 0-2.2 1-2.2 2.3l0 16.5c0 1.2 1 2.3 2.3 2.3l19.5 0c1.2 0 2.3-1 2.3-2.2l0-16.5c0-1.2-1-2.2-2.2-2.2Zm-15.7 4.5c-0.8 0-1.5 0.7-1.5 1.5 0 0.8 0.7 1.5 1.5 1.5 0.8 0 1.5-0.7 1.5-1.5 0-0.8-0.7-1.5-1.5-1.5Zm0 4.5c-0.8 0-1.5 0.7-1.5 1.5 0 0.8 0.7 1.5 1.5 1.5 0.8 0 1.5-0.7 1.5-1.5 0-0.8-0.7-1.5-1.5-1.5Zm0 4.5c-0.8 0-1.5 0.7-1.5 1.5 0 0.8 0.7 1.5 1.5 1.5 0.8 0 1.5-0.7 1.5-1.5 0-0.8-0.7-1.5-1.5-1.5Zm13.5-6.9l0-1.1c0-0.2-0.1-0.3-0.3-0.3l-9.9 0c-0.2 0-0.3 0.1-0.3 0.3l0 1.1c0 0.2 0.1 0.3 0.3 0.3l9.9 0c0.2 0 0.3-0.1 0.3-0.3Zm0 4.5l0-1.1c0-0.2-0.1-0.3-0.3-0.3l-9.9 0c-0.2 0-0.3 0.1-0.3 0.3l0 1.1c0 0.2 0.1 0.3 0.3 0.3l9.9 0c0.2 0 0.3-0.1 0.3-0.3Zm0 4.5l0-1.1c0-0.2-0.1-0.3-0.3-0.3l-9.9 0c-0.2 0-0.3 0.1-0.3 0.3l0 1.1c0 0.2 0.1 0.3 0.3 0.3l9.9 0c0.2 0 0.3-0.1 0.3-0.3Z"/></symbol><symbol viewBox="0 0 93 26" id="logo-analyse"><title>logo-analyse</title><g><g><path d="M5.535,14.442l-1.289,4.653l-4.246,0l5.535,-18.127l5.375,0l5.615,18.127l-4.406,0l-1.398,-4.653l-5.186,0Zm4.595,-3.066l-1.129,-3.846c-0.322,-1.075 -0.644,-2.42 -0.913,-3.496l-0.054,0c-0.269,1.076 -0.537,2.447 -0.833,3.496l-1.074,3.846l4.003,0Z"/><path d="M18.648,10.139c0,-1.64 -0.053,-3.039 -0.107,-4.195l3.547,0l0.188,1.802l0.08,0c0.538,-0.834 1.881,-2.098 4.058,-2.098c2.687,0 4.702,1.775 4.702,5.648l0,7.799l-4.084,0l0,-7.288c0,-1.695 -0.591,-2.851 -2.069,-2.851c-1.129,0 -1.8,0.78 -2.069,1.533c-0.108,0.269 -0.161,0.645 -0.161,1.022l0,7.584l-4.085,0l0,-8.956Z"/><path d="M45.358,15.894c0,1.265 0.054,2.475 0.188,3.201l-3.681,0l-0.242,-1.318l-0.081,0c-0.859,1.049 -2.203,1.614 -3.762,1.614c-2.66,0 -4.245,-1.937 -4.245,-4.034c0,-3.416 3.063,-5.057 7.712,-5.03l0,-0.188c0,-0.699 -0.376,-1.694 -2.392,-1.694c-1.343,0 -2.767,0.457 -3.627,0.995l-0.752,-2.636c0.913,-0.511 2.713,-1.156 5.105,-1.156c4.38,0 5.777,2.582 5.777,5.674l0,4.572Zm-3.977,-3.012c-2.15,-0.026 -3.815,0.484 -3.815,2.071c0,1.049 0.698,1.56 1.612,1.56c1.021,0 1.854,-0.672 2.123,-1.506c0.053,-0.216 0.08,-0.457 0.08,-0.699l0,-1.426Z"/><rect x="48.583" y="0" width="4.084" height="19.095"/><path d="M59.036,5.944l1.961,6.454c0.215,0.78 0.484,1.748 0.645,2.448l0.081,0c0.188,-0.7 0.403,-1.695 0.591,-2.448l1.612,-6.454l4.38,0l-3.063,8.66c-1.881,5.217 -3.144,7.315 -4.622,8.632c-1.424,1.238 -2.929,1.668 -3.95,1.802l-0.86,-3.469c0.511,-0.081 1.155,-0.323 1.773,-0.699c0.619,-0.323 1.29,-0.969 1.693,-1.641c0.135,-0.188 0.215,-0.403 0.215,-0.591c0,-0.135 -0.027,-0.35 -0.188,-0.673l-4.81,-12.021l4.542,0l0,0Z"/><path d="M69.569,15.518c0.753,0.457 2.311,0.995 3.52,0.995c1.236,0 1.747,-0.43 1.747,-1.103c0,-0.672 -0.403,-0.995 -1.935,-1.506c-2.714,-0.914 -3.762,-2.393 -3.735,-3.926c0,-2.475 2.096,-4.33 5.347,-4.33c1.532,0 2.902,0.349 3.708,0.753l-0.725,2.824c-0.591,-0.323 -1.72,-0.753 -2.849,-0.753c-0.994,0 -1.558,0.403 -1.558,1.075c0,0.619 0.511,0.942 2.123,1.506c2.499,0.861 3.547,2.125 3.573,4.061c0,2.448 -1.934,4.276 -5.696,4.276c-1.72,0 -3.251,-0.403 -4.246,-0.941l0.726,-2.931Z"/><path d="M84.401,13.824c0.135,1.694 1.801,2.501 3.709,2.501c1.397,0 2.526,-0.188 3.627,-0.538l0.538,2.77c-1.344,0.538 -2.983,0.834 -4.756,0.834c-4.461,0 -7.013,-2.609 -7.013,-6.724c0,-3.334 2.069,-7.019 6.636,-7.019c4.246,0 5.858,3.308 5.858,6.562c0,0.699 -0.081,1.318 -0.134,1.614l-8.465,0Zm4.81,-2.797c0,-0.995 -0.43,-2.663 -2.31,-2.663c-1.72,0 -2.419,1.56 -2.526,2.663l4.836,0Z"/><path d="M39.564,5.648c-2.392,0 -4.192,0.645 -5.105,1.156l0.752,2.636c0.86,-0.538 2.284,-0.995 3.628,-0.995c2.015,0 2.391,0.995 2.391,1.694l0,0.188c-4.067,-0.023 -6.921,1.23 -7.571,3.832c1.301,0.089 2.625,0.167 3.971,0.233c0.357,-1.148 1.862,-1.533 3.734,-1.51l0,1.426c0,0.078 -0.004,0.157 -0.009,0.235c1.312,0.042 2.642,0.072 3.986,0.091l0,-3.311c0,-3.093 -1.397,-5.675 -5.777,-5.675"/><path d="M48.566,0l0,14.659c0.043,0 0.086,0 0.13,0c1.331,0 2.649,-0.011 3.954,-0.033l0,-14.626l-4.084,0Z"/><path d="M5.518,0.968l-2.217,7.263c0.947,0.476 2.054,0.935 3.304,1.372l0.579,-2.073c0.296,-1.049 0.565,-2.42 0.833,-3.496l0.054,0c0.269,1.076 0.591,2.421 0.914,3.496l0.905,3.085c1.331,0.363 2.772,0.706 4.31,1.029l-3.308,-10.676l-5.374,0Z"/><path d="M26.397,5.648c-2.177,0 -3.52,1.264 -4.058,2.097l-0.08,0l-0.188,-1.801l-3.547,0c0.054,1.156 0.107,2.555 0.107,4.195l0,2.33c1.311,0.216 2.674,0.419 4.085,0.606l0,-1.564c0,-0.377 0.053,-0.753 0.161,-1.022c0.269,-0.753 0.94,-1.533 2.069,-1.533c1.478,0 2.069,1.156 2.069,2.851l0,1.779c1.329,0.139 2.691,0.266 4.084,0.38l0,-2.67c0,-3.873 -2.015,-5.648 -4.702,-5.648"/><path d="M87.125,5.648c-4.34,0 -6.423,3.327 -6.62,6.519c1.935,-0.35 3.743,-0.731 5.406,-1.14l-1.553,0c0.107,-1.103 0.806,-2.663 2.525,-2.663c1.393,0 1.99,0.914 2.206,1.793c1.208,-0.369 2.308,-0.755 3.292,-1.156c-0.801,-1.914 -2.455,-3.353 -5.256,-3.353"/><path d="M75.195,11.054c-1.613,-0.565 -2.123,-0.888 -2.123,-1.507c0,-0.672 0.564,-1.075 1.558,-1.075c1.129,0 2.257,0.43 2.849,0.753l0.725,-2.824c-0.806,-0.404 -2.176,-0.753 -3.708,-0.753c-3.251,0 -5.347,1.855 -5.347,4.33c-0.023,1.294 0.721,2.549 2.585,3.459c2.136,-0.242 4.178,-0.517 6.113,-0.821c-0.578,-0.635 -1.444,-1.147 -2.652,-1.562"/><path d="M60.98,12.398l-1.961,-6.454l-4.541,0l3.413,8.531c1.217,-0.049 2.417,-0.108 3.601,-0.176c-0.155,-0.608 -0.349,-1.309 -0.512,-1.901"/><path d="M63.909,5.944l-1.612,6.454c-0.142,0.567 -0.298,1.269 -0.447,1.881c1.211,-0.072 2.404,-0.153 3.576,-0.244l2.863,-8.091l-4.38,0Z"/></g></g></symbol><symbol viewBox="0 0 24 24" id="print"><title>print</title><path d="M19.5 9l0-5.2c0-0.3-0.1-0.6-0.3-0.8l-2.7-2.7c-0.2-0.2-0.5-0.3-0.8-0.3l-10 0c-0.6 0-1.1 0.5-1.1 1.1l0 7.9c-2.5 0-4.5 2-4.5 4.5l0 6.4c0 0.6 0.5 1.1 1.1 1.1l3.4 0 0 1.9c0 0.6 0.5 1.1 1.1 1.1l12.8 0c0.6 0 1.1-0.5 1.1-1.1l0-1.9 3.4 0c0.6 0 1.1-0.5 1.1-1.1l0-6.4c0-2.5-2-4.5-4.5-4.5Zm-13.5-7.5l9.5 0 2.5 2.5 0 8 -12 0 0-10.5Zm12 21l-12 0 0-4.5 12 0 0 4.5Zm4.5-3l-3 0 0-1.9c0-0.6-0.5-1.1-1.1-1.1l-12.7 0c-0.6 0-1.1 0.5-1.1 1.1l0 1.9 -3 0 0-6c0-1.7 1.3-3 3-3l0 1.9c0 0.6 0.5 1.1 1.1 1.1l12.8 0c0.6 0 1.1-0.5 1.1-1.1l0-1.9c1.7 0 3 1.3 3 3l0 6Zm-1.3-5.2c0 0.5-0.4 0.9-0.9 0.9 -0.5 0-0.9-0.4-0.9-0.9 0-0.5 0.4-0.9 0.9-0.9 0.5 0 0.9 0.4 0.9 0.9Z"/></symbol><symbol viewBox="0 0 24 22" id="shopping-cart"><title>shopping-cart</title><path d="M23 2.7l-17 0 -0.4-1.9c-0.1-0.5-0.5-0.8-1-0.8l-4.2 0c-0.3 0-0.5 0.2-0.5 0.5l0 1c0 0.3 0.2 0.5 0.5 0.5l3.3 0 2.9 14.8c-0.5 0.5-0.7 1.1-0.7 1.8 0 1.5 1.2 2.7 2.7 2.7 1.5 0 2.7-1.2 2.7-2.7 0-0.5-0.1-0.9-0.4-1.3l6 0c-0.2 0.4-0.4 0.9-0.4 1.3 0 1.5 1.2 2.7 2.7 2.7 1.5 0 2.7-1.2 2.7-2.7 0-0.8-0.3-1.4-0.8-1.9l0-0.2c0.1-0.6-0.3-1.2-1-1.2l-11.8 0 -0.4-2 13 0c0.5 0 0.9-0.3 1-0.8l1.9-8.7c0.1-0.6-0.3-1.2-1-1.2Zm-14.3 17c-0.6 0-1-0.4-1-1 0-0.6 0.4-1 1-1 0.6 0 1 0.4 1 1 0 0.6-0.4 1-1 1Zm10.7 0c-0.6 0-1-0.4-1-1 0-0.6 0.4-1 1-1 0.6 0 1 0.4 1 1 0 0.6-0.4 1-1 1Zm1-8.3l-12.6 0 -1.3-6.7 15.4 0 -1.4 6.7Z"/></symbol><symbol viewBox="0 0 24 24" id="th-large"><title>th-large</title><path d="M11.1 14.6l0 5.1c0 0.5-0.2 0.9-0.5 1.2 -0.3 0.3-0.7 0.5-1.2 0.5l-6.9 0c-0.5 0-0.9-0.2-1.2-0.5 -0.3-0.3-0.5-0.7-0.5-1.2l0-5.1c0-0.5 0.2-0.9 0.5-1.2 0.3-0.3 0.7-0.5 1.2-0.5l6.9 0c0.5 0 0.9 0.2 1.2 0.5 0.3 0.3 0.5 0.7 0.5 1.2Zm0-10.3l0 5.1c0 0.5-0.2 0.9-0.5 1.2 -0.3 0.3-0.7 0.5-1.2 0.5l-6.9 0c-0.5 0-0.9-0.2-1.2-0.5 -0.3-0.3-0.5-0.7-0.5-1.2l0-5.1c0-0.5 0.2-0.9 0.5-1.2 0.3-0.3 0.7-0.5 1.2-0.5l6.9 0c0.5 0 0.9 0.2 1.2 0.5 0.3 0.3 0.5 0.7 0.5 1.2Zm12 10.3l0 5.1c0 0.5-0.2 0.9-0.5 1.2 -0.3 0.3-0.7 0.5-1.2 0.5l-6.9 0c-0.5 0-0.9-0.2-1.2-0.5 -0.3-0.3-0.5-0.7-0.5-1.2l0-5.1c0-0.5 0.2-0.9 0.5-1.2 0.3-0.3 0.7-0.5 1.2-0.5l6.9 0c0.5 0 0.9 0.2 1.2 0.5 0.3 0.3 0.5 0.7 0.5 1.2Zm0-10.3l0 5.1c0 0.5-0.2 0.9-0.5 1.2 -0.3 0.3-0.7 0.5-1.2 0.5l-6.9 0c-0.5 0-0.9-0.2-1.2-0.5 -0.3-0.3-0.5-0.7-0.5-1.2l0-5.1c0-0.5 0.2-0.9 0.5-1.2 0.3-0.3 0.7-0.5 1.2-0.5l6.9 0c0.5 0 0.9 0.2 1.2 0.5 0.3 0.3 0.5 0.7 0.5 1.2Z"/></symbol><symbol viewBox="0 0 24 24" id="trash"><title>trash</title><path d="M17.9 3.8l-1.6-2.7c-0.4-0.7-1.1-1.1-1.9-1.1l-4.7 0c-0.8 0-1.5 0.4-1.9 1.1l-1.6 2.7 -4.2 0c-0.6 0-1.1 0.5-1.1 1.1l0 0.6c0 0.3 0.3 0.6 0.6 0.6l0.8 0 1.5 16c0.1 1.2 1.1 2 2.2 2l12.4 0c1.2 0 2.1-0.9 2.2-2l1.5-16 0.8 0c0.3 0 0.6-0.3 0.6-0.6l0-0.6c0-0.6-0.5-1.1-1.1-1.1l-4.2 0Zm-8.2-1.5l4.7 0 0.9 1.5 -6.5 0 0.9-1.5Zm8.6 19.5l-12.4 0 -1.5-15.7 15.3 0 -1.5 15.8Z"/></symbol><symbol viewBox="0 0 24 24" id="twitter"><title>twitter</title><path d="M22.6 5.5c-0.6 0.9-1.3 1.6-2.2 2.2 0 0.1 0 0.3 0 0.6 0 1.2-0.2 2.3-0.5 3.5 -0.3 1.2-0.9 2.3-1.5 3.3 -0.7 1.1-1.5 2-2.5 2.8 -1 0.8-2.1 1.5-3.5 2 -1.3 0.5-2.8 0.7-4.3 0.7 -2.4 0-4.6-0.6-6.6-1.9 0.3 0 0.7 0.1 1 0.1 2 0 3.8-0.6 5.4-1.8 -0.9 0-1.8-0.3-2.5-0.9 -0.7-0.6-1.2-1.3-1.5-2.1 0.3 0 0.6 0.1 0.8 0.1 0.4 0 0.8 0 1.1-0.1 -1-0.2-1.8-0.7-2.5-1.5 -0.7-0.8-1-1.7-1-2.8l0-0.1c0.6 0.3 1.3 0.5 2 0.5 -0.6-0.4-1.1-0.9-1.4-1.5 -0.3-0.6-0.5-1.3-0.5-2.1 0-0.8 0.2-1.5 0.6-2.2 1.1 1.3 2.4 2.4 3.9 3.2 1.5 0.8 3.2 1.2 5 1.3 -0.1-0.3-0.1-0.7-0.1-1 0-1.2 0.4-2.2 1.3-3.1 0.8-0.8 1.9-1.3 3.1-1.3 1.3 0 2.3 0.5 3.2 1.4 1-0.2 1.9-0.5 2.7-1 -0.3 1-1 1.8-1.9 2.4 0.8-0.1 1.7-0.3 2.5-0.7Z"/></symbol><symbol viewBox="0 0 24 24" id="user"><title>user</title><path d="M21.4 18.8c0 1.1-0.3 1.9-1 2.5 -0.7 0.6-1.5 0.9-2.6 0.9l-11.7 0c-1.1 0-1.9-0.3-2.6-0.9 -0.7-0.6-1-1.5-1-2.5 0-0.5 0-0.9 0-1.4 0-0.5 0.1-0.9 0.2-1.5 0.1-0.5 0.2-1 0.4-1.5 0.1-0.4 0.3-0.9 0.6-1.3 0.2-0.4 0.5-0.8 0.8-1.1 0.3-0.3 0.7-0.5 1.1-0.7 0.5-0.2 0.9-0.3 1.5-0.3 0.1 0 0.3 0.1 0.6 0.3 0.3 0.2 0.6 0.4 1 0.6 0.4 0.2 0.9 0.5 1.4 0.6 0.6 0.2 1.2 0.3 1.8 0.3 0.6 0 1.2-0.1 1.8-0.3 0.6-0.2 1.1-0.4 1.4-0.6 0.4-0.2 0.7-0.5 1-0.6 0.3-0.2 0.5-0.3 0.6-0.3 0.5 0 1 0.1 1.5 0.3 0.5 0.2 0.8 0.4 1.1 0.7 0.3 0.3 0.6 0.7 0.8 1.1 0.2 0.4 0.4 0.9 0.6 1.3 0.1 0.4 0.3 0.9 0.4 1.5 0.1 0.5 0.2 1 0.2 1.5 0 0.5 0 0.9 0 1.4Zm-4.3-12c0 1.4-0.5 2.6-1.5 3.6 -1 1-2.2 1.5-3.6 1.5 -1.4 0-2.6-0.5-3.6-1.5 -1-1-1.5-2.2-1.5-3.6 0-1.4 0.5-2.6 1.5-3.6 1-1 2.2-1.5 3.6-1.5 1.4 0 2.6 0.5 3.6 1.5 1 1 1.5 2.2 1.5 3.6Z"/></symbol><symbol viewBox="0 0 48 24" id="vernieuwde"><title>vernieuwde</title><clipPath><path d="M24 22.5l-10.4-0.7 0.7-11 23.2-0.5 -13.5 12.2Z"/></clipPath><g clip-path="url(#_clip1)"><path d="M14.1 13.1c0.1-0.1 0.4-0.2 0.7-0.2 0.1 0 0.3 0 0.4 0.1 2.2 1.8 3.5 6.8 2.9 8.8 0 0 0 0.1-0.1 0.1 -0.1 0.1-0.3 0.2-0.4 0.1 -0.1 0-0.2-0.1-0.1-0.2 0.4-2-1.1-6.9-3.3-8.7 -0.1 0-0.1-0.1-0.1-0.1"/></g><clipPath><path d="M24 22.5l-10.4-0.7 0.7-11 23.2-0.5 -13.5 12.2Z"/></clipPath><g clip-path="url(#_clip2)"><path d="M37.2 10.6c0.2-0.2 0-0.3-0.3-0.3 -0.2 0-0.4 0-0.6 0.1 -6 2.4-16 8.7-18.5 11.3 0 0-0.1 0.1-0.1 0.1 -0.1 0.2 0 0.3 0.2 0.3 0.1 0 0.2 0 0.3-0.2 2.6-2.5 12.7-8.8 18.6-11.2 0.2-0.1 0.3-0.1 0.3-0.2"/></g><path d="M8.3 6c-1.5 2-2 4.4-3 6.6 -0.1 0.2-0.3 0.7-0.6 0.7 -0.7 0.1-1.1-2.1-1.2-2.4 -0.1-1-0.1-1.9 0.1-2.9 0-0.2 0.1-0.4 0.1-0.5 0-0.1 0-0.2 0-0.2 0-0.1-0.1-0.1-0.2 0 -1.3 0.2-1.5 0.6-1.5 0.9 0 0.3 0.3 0.7 1.1 0.9 0.1 0 0.2 0.1 0.2 0.3 0 0.2-0.1 0.3-0.3 0.4 0 0-0.1 0-0.1 0 -1.1-0.3-1.5-0.9-1.6-1.5 -0.1-0.9 0.7-1.5 2-1.7 0.4-0.1 0.9-0.1 1 0.5 0 0.1 0 0.3-0.1 0.5 0 0.2-0.1 0.4-0.1 0.6 -0.2 0.9-0.2 1.8-0.1 2.7 0.1 0.6 0.2 1.2 0.5 1.7 0.6-1.1 1-2.5 1.4-3.6 0.6-1.4 1.1-2.5 1.7-3.3 0.1-0.1 0.1-0.1 0.2-0.1 0.2 0 0.3 0.1 0.4 0.3 0 0.1 0 0.1-0.1 0.2ZM10.7 10.3l-0.1 0.2c-0.5 0.7-1.3 1.7-2.2 1.8 -0.8 0.1-1.3-0.5-1.5-1.3 -0.2-1.3 0.8-2.4 1.5-2.5 0.5-0.1 0.9 0.3 1 0.7 0.1 0.8-0.8 1.6-1.9 1.8 0.1 0.4 0.3 0.8 0.7 0.7 0.7-0.1 1.4-1 1.8-1.6l0.1-0.2c0.1-0.1 0.1-0.1 0.2-0.1 0.2 0 0.3 0.1 0.4 0.3 0 0.1 0 0.1-0.1 0.2Zm-2.1-1.2c-0.5 0.1-0.9 0.7-1 1.3 0.7-0.2 1.3-0.7 1.3-1.1 0-0.1-0.1-0.2-0.3-0.2ZM15 9.7l-0.1 0.2c-0.4 0.6-1.5 1.9-2.3 2 -0.4 0.1-0.7-0.1-0.8-0.6 -0.1-0.6 0.6-1.4 0.6-2 0-0.1 0-0.1 0-0.1 0-0.1 0-0.1-0.1-0.1 -0.3-0.1-0.4 0-0.7-0.1 -0.3 0.6-0.6 0.9-0.9 1.3l-0.1 0.2c-0.1 0.1-0.1 0.1-0.2 0.1 -0.2 0-0.3-0.1-0.4-0.3 0-0.1 0-0.1 0.1-0.2l0.1-0.2c0.3-0.4 0.6-0.8 0.8-1.2 -0.1-0.1-0.2-0.3-0.2-0.4 0-0.2 0.1-0.4 0.3-0.4 0.2 0 0.4 0.1 0.4 0.3 0 0 0 0.1 0 0.1 0.4 0.3 1.4 0 1.5 0.7 0.1 0.8-0.7 1.8-0.6 2.2 0 0.1 0 0.1 0.1 0.1 0.5-0.1 1.6-1.4 1.9-1.8l0.1-0.2c0.1-0.1 0.1-0.1 0.2-0.1 0.2 0 0.3 0.1 0.4 0.3 0 0.1 0 0.1-0.1 0.2ZM20.5 8.9l-0.1 0.2c-0.3 0.4-1.4 2-2.1 2.1 -0.3 0-0.6-0.2-0.6-0.5 -0.1-0.7 0.5-1.6 0.4-2 0-0.2-0.1-0.3-0.3-0.3 -0.8 0.1-1.7 1.9-2.1 2.6 -0.1 0.1-0.1 0.2-0.2 0.2 -0.2 0-0.3-0.1-0.4-0.3 0-0.1 0-0.1 0-0.2 0.1-0.4 0.2-1.1 0.3-1.6 -0.1 0.2-0.3 0.4-0.3 0.5l-0.1 0.2c-0.1 0.1-0.1 0.1-0.2 0.1 -0.2 0-0.3-0.1-0.4-0.3 0-0.1 0-0.1 0.1-0.2l0.1-0.2c0.2-0.2 0.5-0.7 0.7-1.1 0-0.1 0.1-0.2 0.3-0.2 0.3 0 0.4 0.3 0.4 0.4 0 0.3 0 0.6 0 0.9 0.5-0.7 1.1-1.4 1.7-1.5 0.6-0.1 1 0.3 1 0.8 0.1 0.5-0.3 1.1-0.4 1.7 0 0.1 0 0.1 0 0.2 0 0 0 0 0 0 0 0 0.1 0 0.1-0.1 0.5-0.4 1.2-1.4 1.4-1.7l0.1-0.2c0.1-0.1 0.1-0.1 0.2-0.1 0.2 0 0.3 0.1 0.4 0.3 0 0.1 0 0.1-0.1 0.2ZM23.4 8.5l-0.1 0.2c-0.4 0.6-1.1 1.6-1.9 1.7 -0.5 0.1-0.8-0.2-0.9-0.6 0-0.3 0.1-0.8 0.1-1.1 -0.1 0.1-0.1 0.2-0.2 0.3l-0.1 0.2c-0.1 0.1-0.1 0.1-0.2 0.1 -0.2 0-0.3-0.1-0.4-0.3 0-0.1 0-0.1 0.1-0.2l0.1-0.2c0.4-0.5 0.8-1.2 1-1.5 0 0 0.2-0.1 0.2-0.1 0.2 0 0.4 0.1 0.4 0.3 0 0 0 0.1 0 0.1 -0.1 0.3-0.5 2-0.5 2.3 0 0.1 0 0.1 0.1 0.1 0.5-0.1 1.2-1.1 1.5-1.5l0.1-0.2c0.1-0.1 0.1-0.1 0.2-0.1 0.2 0 0.3 0.1 0.4 0.3 0 0.1 0 0.1-0.1 0.2Zm-1.1-3.2l-0.2 0.3c-0.1 0.1-0.1 0.1-0.2 0.1 -0.2 0-0.3-0.1-0.4-0.3 0-0.1 0-0.1 0.1-0.2l0.2-0.3c0.1-0.1 0.1-0.1 0.2-0.1 0.2 0 0.3 0.1 0.4 0.3 0 0.1 0 0.2-0.1 0.2ZM26.7 8l-0.1 0.2c-0.5 0.7-1.3 1.7-2.2 1.8 -0.8 0.1-1.3-0.5-1.5-1.3 -0.2-1.3 0.8-2.4 1.5-2.5 0.5-0.1 0.9 0.3 1 0.7 0.1 0.8-0.8 1.6-1.9 1.8 0.1 0.4 0.3 0.8 0.7 0.7 0.7-0.1 1.4-1 1.8-1.6l0.1-0.2c0.1-0.1 0.1-0.1 0.2-0.1 0.2 0 0.3 0.1 0.4 0.3 0 0.1 0 0.1-0.1 0.2Zm-2.1-1.2c-0.5 0.1-0.9 0.7-1 1.3 0.7-0.2 1.3-0.7 1.3-1.1 0-0.1-0.1-0.2-0.3-0.2ZM32.2 7.2l-0.1 0.2c-0.4 0.5-1.2 1.6-1.8 1.7 -0.5 0.1-0.7-0.3-0.7-0.7 0-0.2 0-0.4 0-0.6 -0.5 0.8-1 1.6-1.5 1.7 -0.5 0.1-1-0.3-1-0.8 -0.1-0.4 0-0.8 0.1-1.3 -0.1 0.1-0.2 0.3-0.4 0.5l-0.1 0.2c-0.1 0.1-0.1 0.1-0.2 0.1 -0.2 0-0.3-0.1-0.4-0.3 0-0.1 0-0.1 0.1-0.2l0.1-0.2c0.5-0.7 0.7-1 0.9-1.3 0.1-0.2 0.2-0.4 0.4-0.4 0.1 0 0.4 0 0.5 0.3 0.1 0.5-0.5 1.7-0.4 2.4 0 0.2 0.1 0.3 0.3 0.2 0.6-0.1 1.7-2.2 2-3.1 0-0.1 0-0.2 0.1-0.2 0-0.1 0.1-0.1 0.2-0.1 0.2 0 0.3 0.1 0.4 0.3 0 0.1 0 0.2 0 0.3 -0.2 1-0.4 1.9-0.3 2.3 0 0.1 0 0.2 0.1 0.2 0 0 0.1 0 0.1-0.1 0.4-0.3 1.1-1.3 1.2-1.4l0.1-0.2c0.1-0.1 0.1-0.1 0.2-0.1 0.2 0 0.3 0.1 0.4 0.3 0 0.1 0 0.2-0.1 0.2ZM38.7 6.2l-0.1 0.2c-0.2 0.3-0.6 0.5-0.9 0.6 -0.2 0-0.3 0-0.5 0 -0.2 0.9-0.6 1.7-1.3 1.8 -0.6 0.1-1.1-0.4-1.2-1.1 -0.4 0.8-0.8 1.1-1.2 1.2 -0.6 0.1-0.8-0.5-0.8-1 0-0.3-0.1-0.7 0-1.1 -0.1 0.2-0.3 0.4-0.3 0.5l-0.1 0.2c-0.1 0.1-0.1 0.1-0.2 0.1 -0.2 0-0.3-0.1-0.4-0.3 0-0.1 0-0.1 0.1-0.2l0.1-0.2c0.2-0.3 0.9-1.3 1.1-1.5 0-0.1 0-0.1 0.1-0.2 0-0.1 0.1-0.2 0.2-0.2 0.2 0 0.3 0.1 0.4 0.3 0 0.1 0 0.1 0 0.2 -0.3 0.7-0.4 1.7-0.3 2.4 0 0.1 0 0.2 0.1 0.3 0 0.1 0.1 0.1 0.1 0.1 0 0 0.1 0 0.1 0 0.3-0.2 0.8-0.9 1.2-2.8 0-0.1 0.1-0.2 0.3-0.2 0.2 0 0.3 0.1 0.4 0.3 0 0 0 0.1 0 0.1 -0.1 0.6-0.2 1.2-0.1 1.9 0.1 0.7 0.4 0.8 0.5 0.7 0.5-0.1 0.7-0.8 0.8-1.6 -0.1-0.2-0.2-0.4-0.2-0.6 -0.1-0.4-0.1-1 0.4-1.1 0.3 0 0.4 0.2 0.5 0.4 0 0.3 0 0.7 0 1.1 0.1 0.1 0.2 0.1 0.3 0 0.2 0 0.4-0.1 0.5-0.3l0.1-0.2c0.1-0.1 0.1-0.1 0.2-0.1 0.2 0 0.3 0.1 0.4 0.3 0 0.1 0 0.1-0.1 0.2ZM43.1 5.6l-0.1 0.2c-0.4 0.5-1 1.3-1.6 1.4 -0.4 0.1-0.6-0.1-0.8-0.3 -0.4 0.6-0.9 0.9-1.3 1 -0.7 0.1-1.1-0.5-1.1-1.1 -0.2-1.2 0.5-2.4 1.4-2.5 0.2 0 0.4 0 0.6 0.1 0-1.1 0.2-2.2 0.7-3 0.2-0.3 0.4-0.6 0.8-0.7 0.5-0.1 0.7 0.4 0.7 0.8 0.1 0.9-0.5 3.2-1.4 4.8 0.1 0.4 0.3 0.3 0.3 0.3 0.4-0.1 0.9-0.8 1.2-1.1l0.1-0.2c0.1-0.1 0.1-0.1 0.2-0.1 0.2 0 0.3 0.1 0.4 0.3 0 0.1 0 0.1-0.1 0.2Zm-3.4-0.8c-0.5 0.1-1 0.8-0.9 1.8 0.1 0.5 0.3 0.6 0.4 0.6 0.4-0.1 0.8-0.5 1.1-1.1 0-0.1 0-0.2-0.1-0.3 0-0.2-0.1-0.5-0.1-0.8 -0.2-0.2-0.4-0.2-0.5-0.2Zm2-3.5c0 0-0.1 0-0.1 0.1 -0.6 0.6-0.7 2.6-0.7 3.5 0 0.1 0 0.3 0 0.3 0.6-1.4 1-3.1 0.9-3.7 0-0.1 0-0.2-0.1-0.2ZM46.4 5.1l-0.1 0.2c-0.5 0.7-1.3 1.7-2.2 1.8 -0.8 0.1-1.3-0.5-1.5-1.3 -0.2-1.3 0.8-2.4 1.5-2.5 0.5-0.1 0.9 0.3 1 0.7 0.1 0.8-0.8 1.6-1.9 1.8 0.1 0.4 0.3 0.8 0.7 0.7 0.7-0.1 1.4-1 1.8-1.6l0.1-0.2c0.1-0.1 0.1-0.1 0.2-0.1 0.2 0 0.3 0.1 0.4 0.3 0 0.1 0 0.2-0.1 0.2Zm-2.1-1.2c-0.5 0.1-0.9 0.7-1 1.3 0.7-0.2 1.3-0.7 1.3-1.1 0-0.1-0.1-0.2-0.3-0.2Z"/></symbol></svg>