<?xml version="1.0" encoding="UTF-8" standalone="no"?><!DOCTYPE svg PUBLIC "-//W3C//DTD SVG 1.1//EN" "http://www.w3.org/Graphics/SVG/1.1/DTD/svg11.dtd"><svg width="100%" height="100%" viewBox="0 0 93 26" version="1.1" xmlns="http://www.w3.org/2000/svg" xmlns:xlink="http://www.w3.org/1999/xlink" xml:space="preserve" xmlns:serif="http://www.serif.com/" style="fill-rule:evenodd;clip-rule:evenodd;stroke-linejoin:round;stroke-miterlimit:1.41421;"><g><g><path d="M5.535,14.442l-1.289,4.653l-4.246,0l5.535,-18.127l5.375,0l5.615,18.127l-4.406,0l-1.398,-4.653l-5.186,0Zm4.595,-3.066l-1.129,-3.846c-0.322,-1.075 -0.644,-2.42 -0.913,-3.496l-0.054,0c-0.269,1.076 -0.537,2.447 -0.833,3.496l-1.074,3.846l4.003,0Z" style="fill:#0790ce;fill-rule:nonzero;"/><path d="M18.648,10.139c0,-1.64 -0.053,-3.039 -0.107,-4.195l3.547,0l0.188,1.802l0.08,0c0.538,-0.834 1.881,-2.098 4.058,-2.098c2.687,0 4.702,1.775 4.702,5.648l0,7.799l-4.084,0l0,-7.288c0,-1.695 -0.591,-2.851 -2.069,-2.851c-1.129,0 -1.8,0.78 -2.069,1.533c-0.108,0.269 -0.161,0.645 -0.161,1.022l0,7.584l-4.085,0l0,-8.956Z" style="fill:#0790ce;fill-rule:nonzero;"/><path d="M45.358,15.894c0,1.265 0.054,2.475 0.188,3.201l-3.681,0l-0.242,-1.318l-0.081,0c-0.859,1.049 -2.203,1.614 -3.762,1.614c-2.66,0 -4.245,-1.937 -4.245,-4.034c0,-3.416 3.063,-5.057 7.712,-5.03l0,-0.188c0,-0.699 -0.376,-1.694 -2.392,-1.694c-1.343,0 -2.767,0.457 -3.627,0.995l-0.752,-2.636c0.913,-0.511 2.713,-1.156 5.105,-1.156c4.38,0 5.777,2.582 5.777,5.674l0,4.572Zm-3.977,-3.012c-2.15,-0.026 -3.815,0.484 -3.815,2.071c0,1.049 0.698,1.56 1.612,1.56c1.021,0 1.854,-0.672 2.123,-1.506c0.053,-0.216 0.08,-0.457 0.08,-0.699l0,-1.426Z" style="fill:#0790ce;fill-rule:nonzero;"/><rect x="48.583" y="0" width="4.084" height="19.095" style="fill:#0790ce;"/><path d="M59.036,5.944l1.961,6.454c0.215,0.78 0.484,1.748 0.645,2.448l0.081,0c0.188,-0.7 0.403,-1.695 0.591,-2.448l1.612,-6.454l4.38,0l-3.063,8.66c-1.881,5.217 -3.144,7.315 -4.622,8.632c-1.424,1.238 -2.929,1.668 -3.95,1.802l-0.86,-3.469c0.511,-0.081 1.155,-0.323 1.773,-0.699c0.619,-0.323 1.29,-0.969 1.693,-1.641c0.135,-0.188 0.215,-0.403 0.215,-0.591c0,-0.135 -0.027,-0.35 -0.188,-0.673l-4.81,-12.021l4.542,0l0,0Z" style="fill:#0790ce;fill-rule:nonzero;"/><path d="M69.569,15.518c0.753,0.457 2.311,0.995 3.52,0.995c1.236,0 1.747,-0.43 1.747,-1.103c0,-0.672 -0.403,-0.995 -1.935,-1.506c-2.714,-0.914 -3.762,-2.393 -3.735,-3.926c0,-2.475 2.096,-4.33 5.347,-4.33c1.532,0 2.902,0.349 3.708,0.753l-0.725,2.824c-0.591,-0.323 -1.72,-0.753 -2.849,-0.753c-0.994,0 -1.558,0.403 -1.558,1.075c0,0.619 0.511,0.942 2.123,1.506c2.499,0.861 3.547,2.125 3.573,4.061c0,2.448 -1.934,4.276 -5.696,4.276c-1.72,0 -3.251,-0.403 -4.246,-0.941l0.726,-2.931Z" style="fill:#0790ce;fill-rule:nonzero;"/><path d="M84.401,13.824c0.135,1.694 1.801,2.501 3.709,2.501c1.397,0 2.526,-0.188 3.627,-0.538l0.538,2.77c-1.344,0.538 -2.983,0.834 -4.756,0.834c-4.461,0 -7.013,-2.609 -7.013,-6.724c0,-3.334 2.069,-7.019 6.636,-7.019c4.246,0 5.858,3.308 5.858,6.562c0,0.699 -0.081,1.318 -0.134,1.614l-8.465,0Zm4.81,-2.797c0,-0.995 -0.43,-2.663 -2.31,-2.663c-1.72,0 -2.419,1.56 -2.526,2.663l4.836,0Z" style="fill:#0790ce;fill-rule:nonzero;"/><path d="M39.564,5.648c-2.392,0 -4.192,0.645 -5.105,1.156l0.752,2.636c0.86,-0.538 2.284,-0.995 3.628,-0.995c2.015,0 2.391,0.995 2.391,1.694l0,0.188c-4.067,-0.023 -6.921,1.23 -7.571,3.832c1.301,0.089 2.625,0.167 3.971,0.233c0.357,-1.148 1.862,-1.533 3.734,-1.51l0,1.426c0,0.078 -0.004,0.157 -0.009,0.235c1.312,0.042 2.642,0.072 3.986,0.091l0,-3.311c0,-3.093 -1.397,-5.675 -5.777,-5.675" style="fill:#1c4989;fill-rule:nonzero;"/><path d="M48.566,0l0,14.659c0.043,0 0.086,0 0.13,0c1.331,0 2.649,-0.011 3.954,-0.033l0,-14.626l-4.084,0Z" style="fill:#1c4989;fill-rule:nonzero;"/><path d="M5.518,0.968l-2.217,7.263c0.947,0.476 2.054,0.935 3.304,1.372l0.579,-2.073c0.296,-1.049 0.565,-2.42 0.833,-3.496l0.054,0c0.269,1.076 0.591,2.421 0.914,3.496l0.905,3.085c1.331,0.363 2.772,0.706 4.31,1.029l-3.308,-10.676l-5.374,0Z" style="fill:#1c4989;fill-rule:nonzero;"/><path d="M26.397,5.648c-2.177,0 -3.52,1.264 -4.058,2.097l-0.08,0l-0.188,-1.801l-3.547,0c0.054,1.156 0.107,2.555 0.107,4.195l0,2.33c1.311,0.216 2.674,0.419 4.085,0.606l0,-1.564c0,-0.377 0.053,-0.753 0.161,-1.022c0.269,-0.753 0.94,-1.533 2.069,-1.533c1.478,0 2.069,1.156 2.069,2.851l0,1.779c1.329,0.139 2.691,0.266 4.084,0.38l0,-2.67c0,-3.873 -2.015,-5.648 -4.702,-5.648" style="fill:#1c4989;fill-rule:nonzero;"/><path d="M87.125,5.648c-4.34,0 -6.423,3.327 -6.62,6.519c1.935,-0.35 3.743,-0.731 5.406,-1.14l-1.553,0c0.107,-1.103 0.806,-2.663 2.525,-2.663c1.393,0 1.99,0.914 2.206,1.793c1.208,-0.369 2.308,-0.755 3.292,-1.156c-0.801,-1.914 -2.455,-3.353 -5.256,-3.353" style="fill:#1c4989;fill-rule:nonzero;"/><path d="M75.195,11.054c-1.613,-0.565 -2.123,-0.888 -2.123,-1.507c0,-0.672 0.564,-1.075 1.558,-1.075c1.129,0 2.257,0.43 2.849,0.753l0.725,-2.824c-0.806,-0.404 -2.176,-0.753 -3.708,-0.753c-3.251,0 -5.347,1.855 -5.347,4.33c-0.023,1.294 0.721,2.549 2.585,3.459c2.136,-0.242 4.178,-0.517 6.113,-0.821c-0.578,-0.635 -1.444,-1.147 -2.652,-1.562" style="fill:#1c4989;fill-rule:nonzero;"/><path d="M60.98,12.398l-1.961,-6.454l-4.541,0l3.413,8.531c1.217,-0.049 2.417,-0.108 3.601,-0.176c-0.155,-0.608 -0.349,-1.309 -0.512,-1.901" style="fill:#1c4989;fill-rule:nonzero;"/><path d="M63.909,5.944l-1.612,6.454c-0.142,0.567 -0.298,1.269 -0.447,1.881c1.211,-0.072 2.404,-0.153 3.576,-0.244l2.863,-8.091l-4.38,0Z" style="fill:#1c4989;fill-rule:nonzero;"/></g></g></svg>