<svg xmlns="http://www.w3.org/2000/svg" viewBox="0 0 48 24"><clipPath><path d="M24 22.5l-10.4-0.7 0.7-11 23.2-0.5 -13.5 12.2Z"/></clipPath><g clip-path="url(#_clip1)"><path d="M14.1 13.1c0.1-0.1 0.4-0.2 0.7-0.2 0.1 0 0.3 0 0.4 0.1 2.2 1.8 3.5 6.8 2.9 8.8 0 0 0 0.1-0.1 0.1 -0.1 0.1-0.3 0.2-0.4 0.1 -0.1 0-0.2-0.1-0.1-0.2 0.4-2-1.1-6.9-3.3-8.7 -0.1 0-0.1-0.1-0.1-0.1"/></g><clipPath><path d="M24 22.5l-10.4-0.7 0.7-11 23.2-0.5 -13.5 12.2Z"/></clipPath><g clip-path="url(#_clip2)"><path d="M37.2 10.6c0.2-0.2 0-0.3-0.3-0.3 -0.2 0-0.4 0-0.6 0.1 -6 2.4-16 8.7-18.5 11.3 0 0-0.1 0.1-0.1 0.1 -0.1 0.2 0 0.3 0.2 0.3 0.1 0 0.2 0 0.3-0.2 2.6-2.5 12.7-8.8 18.6-11.2 0.2-0.1 0.3-0.1 0.3-0.2"/></g><path d="M8.3 6c-1.5 2-2 4.4-3 6.6 -0.1 0.2-0.3 0.7-0.6 0.7 -0.7 0.1-1.1-2.1-1.2-2.4 -0.1-1-0.1-1.9 0.1-2.9 0-0.2 0.1-0.4 0.1-0.5 0-0.1 0-0.2 0-0.2 0-0.1-0.1-0.1-0.2 0 -1.3 0.2-1.5 0.6-1.5 0.9 0 0.3 0.3 0.7 1.1 0.9 0.1 0 0.2 0.1 0.2 0.3 0 0.2-0.1 0.3-0.3 0.4 0 0-0.1 0-0.1 0 -1.1-0.3-1.5-0.9-1.6-1.5 -0.1-0.9 0.7-1.5 2-1.7 0.4-0.1 0.9-0.1 1 0.5 0 0.1 0 0.3-0.1 0.5 0 0.2-0.1 0.4-0.1 0.6 -0.2 0.9-0.2 1.8-0.1 2.7 0.1 0.6 0.2 1.2 0.5 1.7 0.6-1.1 1-2.5 1.4-3.6 0.6-1.4 1.1-2.5 1.7-3.3 0.1-0.1 0.1-0.1 0.2-0.1 0.2 0 0.3 0.1 0.4 0.3 0 0.1 0 0.1-0.1 0.2ZM10.7 10.3l-0.1 0.2c-0.5 0.7-1.3 1.7-2.2 1.8 -0.8 0.1-1.3-0.5-1.5-1.3 -0.2-1.3 0.8-2.4 1.5-2.5 0.5-0.1 0.9 0.3 1 0.7 0.1 0.8-0.8 1.6-1.9 1.8 0.1 0.4 0.3 0.8 0.7 0.7 0.7-0.1 1.4-1 1.8-1.6l0.1-0.2c0.1-0.1 0.1-0.1 0.2-0.1 0.2 0 0.3 0.1 0.4 0.3 0 0.1 0 0.1-0.1 0.2Zm-2.1-1.2c-0.5 0.1-0.9 0.7-1 1.3 0.7-0.2 1.3-0.7 1.3-1.1 0-0.1-0.1-0.2-0.3-0.2ZM15 9.7l-0.1 0.2c-0.4 0.6-1.5 1.9-2.3 2 -0.4 0.1-0.7-0.1-0.8-0.6 -0.1-0.6 0.6-1.4 0.6-2 0-0.1 0-0.1 0-0.1 0-0.1 0-0.1-0.1-0.1 -0.3-0.1-0.4 0-0.7-0.1 -0.3 0.6-0.6 0.9-0.9 1.3l-0.1 0.2c-0.1 0.1-0.1 0.1-0.2 0.1 -0.2 0-0.3-0.1-0.4-0.3 0-0.1 0-0.1 0.1-0.2l0.1-0.2c0.3-0.4 0.6-0.8 0.8-1.2 -0.1-0.1-0.2-0.3-0.2-0.4 0-0.2 0.1-0.4 0.3-0.4 0.2 0 0.4 0.1 0.4 0.3 0 0 0 0.1 0 0.1 0.4 0.3 1.4 0 1.5 0.7 0.1 0.8-0.7 1.8-0.6 2.2 0 0.1 0 0.1 0.1 0.1 0.5-0.1 1.6-1.4 1.9-1.8l0.1-0.2c0.1-0.1 0.1-0.1 0.2-0.1 0.2 0 0.3 0.1 0.4 0.3 0 0.1 0 0.1-0.1 0.2ZM20.5 8.9l-0.1 0.2c-0.3 0.4-1.4 2-2.1 2.1 -0.3 0-0.6-0.2-0.6-0.5 -0.1-0.7 0.5-1.6 0.4-2 0-0.2-0.1-0.3-0.3-0.3 -0.8 0.1-1.7 1.9-2.1 2.6 -0.1 0.1-0.1 0.2-0.2 0.2 -0.2 0-0.3-0.1-0.4-0.3 0-0.1 0-0.1 0-0.2 0.1-0.4 0.2-1.1 0.3-1.6 -0.1 0.2-0.3 0.4-0.3 0.5l-0.1 0.2c-0.1 0.1-0.1 0.1-0.2 0.1 -0.2 0-0.3-0.1-0.4-0.3 0-0.1 0-0.1 0.1-0.2l0.1-0.2c0.2-0.2 0.5-0.7 0.7-1.1 0-0.1 0.1-0.2 0.3-0.2 0.3 0 0.4 0.3 0.4 0.4 0 0.3 0 0.6 0 0.9 0.5-0.7 1.1-1.4 1.7-1.5 0.6-0.1 1 0.3 1 0.8 0.1 0.5-0.3 1.1-0.4 1.7 0 0.1 0 0.1 0 0.2 0 0 0 0 0 0 0 0 0.1 0 0.1-0.1 0.5-0.4 1.2-1.4 1.4-1.7l0.1-0.2c0.1-0.1 0.1-0.1 0.2-0.1 0.2 0 0.3 0.1 0.4 0.3 0 0.1 0 0.1-0.1 0.2ZM23.4 8.5l-0.1 0.2c-0.4 0.6-1.1 1.6-1.9 1.7 -0.5 0.1-0.8-0.2-0.9-0.6 0-0.3 0.1-0.8 0.1-1.1 -0.1 0.1-0.1 0.2-0.2 0.3l-0.1 0.2c-0.1 0.1-0.1 0.1-0.2 0.1 -0.2 0-0.3-0.1-0.4-0.3 0-0.1 0-0.1 0.1-0.2l0.1-0.2c0.4-0.5 0.8-1.2 1-1.5 0 0 0.2-0.1 0.2-0.1 0.2 0 0.4 0.1 0.4 0.3 0 0 0 0.1 0 0.1 -0.1 0.3-0.5 2-0.5 2.3 0 0.1 0 0.1 0.1 0.1 0.5-0.1 1.2-1.1 1.5-1.5l0.1-0.2c0.1-0.1 0.1-0.1 0.2-0.1 0.2 0 0.3 0.1 0.4 0.3 0 0.1 0 0.1-0.1 0.2Zm-1.1-3.2l-0.2 0.3c-0.1 0.1-0.1 0.1-0.2 0.1 -0.2 0-0.3-0.1-0.4-0.3 0-0.1 0-0.1 0.1-0.2l0.2-0.3c0.1-0.1 0.1-0.1 0.2-0.1 0.2 0 0.3 0.1 0.4 0.3 0 0.1 0 0.2-0.1 0.2ZM26.7 8l-0.1 0.2c-0.5 0.7-1.3 1.7-2.2 1.8 -0.8 0.1-1.3-0.5-1.5-1.3 -0.2-1.3 0.8-2.4 1.5-2.5 0.5-0.1 0.9 0.3 1 0.7 0.1 0.8-0.8 1.6-1.9 1.8 0.1 0.4 0.3 0.8 0.7 0.7 0.7-0.1 1.4-1 1.8-1.6l0.1-0.2c0.1-0.1 0.1-0.1 0.2-0.1 0.2 0 0.3 0.1 0.4 0.3 0 0.1 0 0.1-0.1 0.2Zm-2.1-1.2c-0.5 0.1-0.9 0.7-1 1.3 0.7-0.2 1.3-0.7 1.3-1.1 0-0.1-0.1-0.2-0.3-0.2ZM32.2 7.2l-0.1 0.2c-0.4 0.5-1.2 1.6-1.8 1.7 -0.5 0.1-0.7-0.3-0.7-0.7 0-0.2 0-0.4 0-0.6 -0.5 0.8-1 1.6-1.5 1.7 -0.5 0.1-1-0.3-1-0.8 -0.1-0.4 0-0.8 0.1-1.3 -0.1 0.1-0.2 0.3-0.4 0.5l-0.1 0.2c-0.1 0.1-0.1 0.1-0.2 0.1 -0.2 0-0.3-0.1-0.4-0.3 0-0.1 0-0.1 0.1-0.2l0.1-0.2c0.5-0.7 0.7-1 0.9-1.3 0.1-0.2 0.2-0.4 0.4-0.4 0.1 0 0.4 0 0.5 0.3 0.1 0.5-0.5 1.7-0.4 2.4 0 0.2 0.1 0.3 0.3 0.2 0.6-0.1 1.7-2.2 2-3.1 0-0.1 0-0.2 0.1-0.2 0-0.1 0.1-0.1 0.2-0.1 0.2 0 0.3 0.1 0.4 0.3 0 0.1 0 0.2 0 0.3 -0.2 1-0.4 1.9-0.3 2.3 0 0.1 0 0.2 0.1 0.2 0 0 0.1 0 0.1-0.1 0.4-0.3 1.1-1.3 1.2-1.4l0.1-0.2c0.1-0.1 0.1-0.1 0.2-0.1 0.2 0 0.3 0.1 0.4 0.3 0 0.1 0 0.2-0.1 0.2ZM38.7 6.2l-0.1 0.2c-0.2 0.3-0.6 0.5-0.9 0.6 -0.2 0-0.3 0-0.5 0 -0.2 0.9-0.6 1.7-1.3 1.8 -0.6 0.1-1.1-0.4-1.2-1.1 -0.4 0.8-0.8 1.1-1.2 1.2 -0.6 0.1-0.8-0.5-0.8-1 0-0.3-0.1-0.7 0-1.1 -0.1 0.2-0.3 0.4-0.3 0.5l-0.1 0.2c-0.1 0.1-0.1 0.1-0.2 0.1 -0.2 0-0.3-0.1-0.4-0.3 0-0.1 0-0.1 0.1-0.2l0.1-0.2c0.2-0.3 0.9-1.3 1.1-1.5 0-0.1 0-0.1 0.1-0.2 0-0.1 0.1-0.2 0.2-0.2 0.2 0 0.3 0.1 0.4 0.3 0 0.1 0 0.1 0 0.2 -0.3 0.7-0.4 1.7-0.3 2.4 0 0.1 0 0.2 0.1 0.3 0 0.1 0.1 0.1 0.1 0.1 0 0 0.1 0 0.1 0 0.3-0.2 0.8-0.9 1.2-2.8 0-0.1 0.1-0.2 0.3-0.2 0.2 0 0.3 0.1 0.4 0.3 0 0 0 0.1 0 0.1 -0.1 0.6-0.2 1.2-0.1 1.9 0.1 0.7 0.4 0.8 0.5 0.7 0.5-0.1 0.7-0.8 0.8-1.6 -0.1-0.2-0.2-0.4-0.2-0.6 -0.1-0.4-0.1-1 0.4-1.1 0.3 0 0.4 0.2 0.5 0.4 0 0.3 0 0.7 0 1.1 0.1 0.1 0.2 0.1 0.3 0 0.2 0 0.4-0.1 0.5-0.3l0.1-0.2c0.1-0.1 0.1-0.1 0.2-0.1 0.2 0 0.3 0.1 0.4 0.3 0 0.1 0 0.1-0.1 0.2ZM43.1 5.6l-0.1 0.2c-0.4 0.5-1 1.3-1.6 1.4 -0.4 0.1-0.6-0.1-0.8-0.3 -0.4 0.6-0.9 0.9-1.3 1 -0.7 0.1-1.1-0.5-1.1-1.1 -0.2-1.2 0.5-2.4 1.4-2.5 0.2 0 0.4 0 0.6 0.1 0-1.1 0.2-2.2 0.7-3 0.2-0.3 0.4-0.6 0.8-0.7 0.5-0.1 0.7 0.4 0.7 0.8 0.1 0.9-0.5 3.2-1.4 4.8 0.1 0.4 0.3 0.3 0.3 0.3 0.4-0.1 0.9-0.8 1.2-1.1l0.1-0.2c0.1-0.1 0.1-0.1 0.2-0.1 0.2 0 0.3 0.1 0.4 0.3 0 0.1 0 0.1-0.1 0.2Zm-3.4-0.8c-0.5 0.1-1 0.8-0.9 1.8 0.1 0.5 0.3 0.6 0.4 0.6 0.4-0.1 0.8-0.5 1.1-1.1 0-0.1 0-0.2-0.1-0.3 0-0.2-0.1-0.5-0.1-0.8 -0.2-0.2-0.4-0.2-0.5-0.2Zm2-3.5c0 0-0.1 0-0.1 0.1 -0.6 0.6-0.7 2.6-0.7 3.5 0 0.1 0 0.3 0 0.3 0.6-1.4 1-3.1 0.9-3.7 0-0.1 0-0.2-0.1-0.2ZM46.4 5.1l-0.1 0.2c-0.5 0.7-1.3 1.7-2.2 1.8 -0.8 0.1-1.3-0.5-1.5-1.3 -0.2-1.3 0.8-2.4 1.5-2.5 0.5-0.1 0.9 0.3 1 0.7 0.1 0.8-0.8 1.6-1.9 1.8 0.1 0.4 0.3 0.8 0.7 0.7 0.7-0.1 1.4-1 1.8-1.6l0.1-0.2c0.1-0.1 0.1-0.1 0.2-0.1 0.2 0 0.3 0.1 0.4 0.3 0 0.1 0 0.2-0.1 0.2Zm-2.1-1.2c-0.5 0.1-0.9 0.7-1 1.3 0.7-0.2 1.3-0.7 1.3-1.1 0-0.1-0.1-0.2-0.3-0.2Z"/></svg>