<svg xmlns="http://www.w3.org/2000/svg" viewBox="0 0 24 24" ><style>.s0{fill:#f1bd30;}.s1{fill:#e63329;}.s2{fill:#6b9cd2;}</style><path d="M15.8 3.2c0.1 1-0.1 1.7-0.6 2.1 -0.3-0.3-0.6-0.6-0.9-0.9 0.2-0.2 0.3-0.4 0.3-0.6 0-0.3-0.2-0.6-0.5-0.7 -0.3-0.1-0.6-0.1-0.9 0.1 -0.4 0.4-1.2 1.2-1.2 1.2 0 0-0.8-0.8-1.2-1.2 -0.4-0.4-1-0.3-1.3 0.2 -0.1 0.3-0.1 0.6 0.2 1 -0.3 0.3-0.6 0.6-1 0.9 -0.5-0.3-0.7-1-0.6-2.1 -0.4-0.1-0.8-0.3-1-0.7 -0.1-0.3-0.2-0.5-0.1-0.8 0.1-0.5 0.6-1 1.2-1 0.6-0.1 1.1 0.3 1.4 1.1 0.9-0.2 1.7 0 2.3 0.8 0.6-0.7 1.4-1 2.3-0.8 0.4-0.8 0.8-1.2 1.4-1.1 0.6 0.1 1.1 0.5 1.1 1.1 0.1 0.7-0.2 1.1-1.1 1.5l0 0Z" fill="#f1bd30"/><path d="M5.5 8.1l-0.3-1.2c0 0 2.4-0.6 3.3-0.9 0.1 0 0.1 0 0.1-0.1 0.7-0.8 1.5-1.6 2.3-2.3 0 0 0 0 0 0 0.3 0.3 0.6 0.6 0.9 0.9 0 0.1-1.4 1.4-2.1 2.1 -0.3 0.3-0.4 0.8 0 1.2 0.3 0.3 0.8 0.3 1.1 0 0 0 0 0 0 0l0.9 0.9c-0.3 0.3-0.7 0.5-1.2 0.6 -0.1 0-0.2 0.1-0.3 0.2 -0.3 0.4-0.7 0.6-1.2 0.7 -0.1-0.4-0.2-0.9-0.3-1.3 0.1 0 0.2-0.1 0.3-0.1 0.3-0.2 0.4-0.6 0.3-1 -0.1-0.3-0.5-0.5-0.9-0.4 -0.9 0.2-2.9 0.8-2.9 0.8l0 0Z" fill="#e63329"/><path d="M13 5.6c0.3 0.3 0.6 0.6 0.9 0.9l-1.9 1.9c-0.6-0.6-1.3-1.3-1.9-1.9 0.3-0.3 0.6-0.6 0.9-0.9 0.2 0.2 0.7 0.8 0.8 0.8 0.2 0.2 0.2 0.2 0.4 0 0.3-0.3 0.5-0.5 0.8-0.8Z" fill="#6b9cd2"/><path d="M8.2 20.8c-0.1-1 0.1-1.7 0.6-2.1 0.3 0.3 0.6 0.6 0.9 0.9 -0.2 0.2-0.3 0.4-0.3 0.6 0 0.3 0.2 0.6 0.5 0.7 0.3 0.1 0.6 0.1 0.9-0.1 0.4-0.4 1.2-1.2 1.2-1.2 0 0 0.8 0.8 1.2 1.2 0.4 0.4 1 0.3 1.3-0.2 0.1-0.3 0.1-0.6-0.2-1 0.3-0.3 0.6-0.6 1-0.9 0.5 0.3 0.7 1 0.6 2.1 0.4 0.1 0.8 0.3 1 0.7 0.1 0.3 0.2 0.5 0.1 0.8 -0.1 0.5-0.6 1-1.2 1 -0.6 0.1-1.1-0.3-1.4-1.1 -0.9 0.2-1.7 0-2.3-0.8 -0.6 0.7-1.4 1-2.3 0.8 -0.4 0.8-0.8 1.2-1.4 1.1 -0.6-0.1-1.1-0.5-1.1-1.1 -0.1-0.7 0.2-1.1 1.1-1.5l0 0Z" fill="#f1bd30"/><path d="M18.5 15.9l0.3 1.2c0 0-2.4 0.7-3.2 0.9 -0.1 0-0.1 0-0.1 0.1 -0.7 0.8-1.5 1.6-2.3 2.3 0 0 0 0 0 0 -0.3-0.3-0.6-0.6-0.9-0.9 0-0.1 1.4-1.4 2.1-2.1 0.3-0.3 0.4-0.8 0-1.2 -0.3-0.3-0.8-0.3-1.1 0 0 0 0 0 0 0l-0.9-0.9c0.3-0.3 0.7-0.5 1.2-0.6 0.1 0 0.2-0.1 0.3-0.2 0.3-0.4 0.7-0.6 1.2-0.7 0.1 0.4 0.2 0.9 0.3 1.3 -0.1 0-0.2 0.1-0.3 0.1 -0.3 0.2-0.4 0.6-0.3 1 0.2 0.3 0.5 0.5 0.9 0.4 0.9-0.2 2.9-0.8 2.9-0.8l0 0Z" fill="#e63329"/><path d="M11 18.4c-0.3-0.3-0.6-0.6-0.9-0.9l1.9-1.9c0.6 0.6 1.3 1.3 1.9 1.9 -0.3 0.3-0.6 0.6-0.9 0.9 -0.2-0.2-0.7-0.8-0.8-0.8 -0.2-0.2-0.2-0.2-0.4 0 -0.3 0.3-0.5 0.5-0.8 0.8Z" fill="#6b9cd2"/><path d="M6.3 4.3c0.9 0.3 1.4 0.9 1.5 1.6 -0.4 0.1-0.8 0.2-1.3 0.3 -0.1-0.2-0.2-0.4-0.4-0.5 -0.3-0.2-0.6-0.2-0.9 0 -0.3 0.2-0.4 0.5-0.3 0.8 0.1 0.5 0.4 1.6 0.4 1.6 0 0-1.1 0.3-1.6 0.4 -0.5 0.1-0.7 0.8-0.4 1.2 0.2 0.3 0.5 0.4 0.9 0.3 0.1 0.4 0.2 0.8 0.3 1.3 -0.5 0.3-1.2 0.1-2.1-0.5 -0.3 0.3-0.7 0.5-1.1 0.5 -0.3 0-0.5-0.1-0.8-0.3 -0.4-0.4-0.5-1-0.3-1.5 0.3-0.6 0.8-0.8 1.7-0.7 0.3-0.9 0.9-1.4 1.8-1.6 -0.3-0.9-0.1-1.7 0.5-2.4 -0.5-0.7-0.6-1.3-0.2-1.8 0.3-0.5 1-0.6 1.5-0.4 0.7 0.3 0.9 0.8 0.8 1.7l0 0Z" fill="#f1bd30"/><path d="M5.4 15.6l-1.2-0.3c0 0 0.6-2.4 0.9-3.2 0-0.1 0-0.1 0-0.1 -0.3-1-0.6-2.1-0.9-3.2 0 0 0 0 0 0 0.4-0.1 0.8-0.2 1.3-0.3 0 0 0.5 1.9 0.8 2.8 0.1 0.4 0.5 0.7 1 0.6 0.4-0.1 0.7-0.5 0.6-1 0 0 0 0 0 0 0.4-0.1 0.8-0.2 1.3-0.3 0.1 0.4 0.1 0.9 0 1.3 0 0.1 0 0.2 0 0.4 0.2 0.4 0.2 0.9 0 1.4 -0.4-0.1-0.9-0.2-1.3-0.3 0-0.1 0-0.2 0-0.3 0-0.4-0.3-0.7-0.8-0.7 -0.4 0-0.7 0.2-0.8 0.6 -0.2 0.9-0.8 2.9-0.8 2.9l0 0Z" fill="#e63329"/><path d="M7 7.9c0.4-0.1 0.8-0.2 1.2-0.4 0.2 0.9 0.5 1.8 0.7 2.7 -0.8 0.2-1.7 0.5-2.6 0.7 -0.1-0.4-0.2-0.8-0.3-1.3 0.3-0.1 1-0.2 1.1-0.3 0.3-0.1 0.3-0.1 0.2-0.4 -0.1-0.4-0.2-0.7-0.3-1.1l0 0Z" fill="#6b9cd2"/><path d="M17.7 19.7c-0.9-0.3-1.4-0.9-1.5-1.6 0.4-0.1 0.8-0.2 1.3-0.3 0.1 0.2 0.2 0.4 0.4 0.5 0.3 0.2 0.6 0.2 0.9 0 0.3-0.2 0.4-0.5 0.3-0.8 -0.1-0.5-0.4-1.6-0.4-1.6 0 0 1.1-0.3 1.6-0.4 0.5-0.1 0.7-0.8 0.4-1.2 -0.2-0.3-0.5-0.4-0.9-0.3 -0.1-0.4-0.2-0.8-0.3-1.3 0.5-0.3 1.2-0.1 2.1 0.5 0.3-0.3 0.7-0.5 1.1-0.5 0.3 0 0.5 0.1 0.8 0.3 0.4 0.4 0.5 1 0.3 1.5 -0.3 0.6-0.8 0.8-1.7 0.7 -0.3 0.9-0.9 1.4-1.8 1.6 0.3 0.9 0.2 1.7-0.5 2.4 0.5 0.7 0.6 1.3 0.2 1.8 -0.3 0.5-1 0.6-1.5 0.4 -0.7-0.3-0.9-0.8-0.8-1.7l0 0Z" fill="#f1bd30"/><path d="M18.6 8.4l1.2 0.3c0 0-0.6 2.4-0.9 3.3 0 0.1 0 0.1 0 0.1 0.3 1 0.6 2.1 0.9 3.2 0 0 0 0 0 0 -0.4 0.1-0.8 0.2-1.3 0.3 0 0-0.5-1.9-0.8-2.8 -0.1-0.4-0.5-0.7-1-0.6 -0.4 0.1-0.7 0.5-0.6 1 0 0 0 0 0 0 -0.4 0.1-0.8 0.2-1.3 0.3 -0.1-0.4-0.1-0.9 0-1.3 0-0.1 0-0.2 0-0.4 -0.2-0.4-0.2-0.9 0-1.4 0.4 0.1 0.9 0.2 1.3 0.3 0 0.1 0 0.2 0 0.3 0 0.4 0.3 0.7 0.8 0.7 0.4 0 0.7-0.2 0.8-0.6 0.2-0.9 0.8-2.9 0.8-2.9l0 0Z" fill="#e63329"/><path d="M17 16.1c-0.4 0.1-0.8 0.3-1.2 0.4 -0.2-0.9-0.5-1.8-0.7-2.7 0.8-0.2 1.7-0.5 2.6-0.7 0.1 0.4 0.2 0.8 0.3 1.3 -0.3 0.1-1 0.3-1.1 0.3 -0.3 0.1-0.3 0.1-0.2 0.4 0.1 0.4 0.2 0.7 0.3 1.1Z" fill="#6b9cd2"/><path d="M2.5 13.1c0.8-0.6 1.5-0.8 2.1-0.5 -0.1 0.4-0.2 0.8-0.3 1.3 -0.2-0.1-0.4-0.1-0.7 0.1 -0.3 0.2-0.4 0.4-0.4 0.8 0 0.3 0.2 0.6 0.6 0.7 0.5 0.1 1.6 0.5 1.6 0.5 0 0-0.3 1.1-0.4 1.6 -0.1 0.5 0.3 1 0.8 1 0.3 0 0.6-0.2 0.7-0.6 0.4 0.1 0.8 0.2 1.3 0.4 0 0.6-0.5 1.1-1.5 1.6 0.1 0.4 0.1 0.8-0.1 1.2 -0.2 0.2-0.4 0.4-0.7 0.5 -0.5 0.2-1.1 0-1.5-0.5 -0.4-0.5-0.3-1.1 0.2-1.8 -0.6-0.7-0.8-1.5-0.5-2.4 -0.9-0.2-1.6-0.7-1.8-1.6 -0.9 0.1-1.4-0.1-1.7-0.7 -0.2-0.5-0.1-1.2 0.4-1.5 0.6-0.4 1.1-0.4 1.9 0.2l0 0Z" fill="#f1bd30"/><path d="M11.8 19.6l-0.9 0.9c0 0-1.7-1.7-2.4-2.4 0 0-0.1 0-0.1-0.1 -1.1-0.2-2.1-0.5-3.2-0.8 0 0 0 0 0 0 0.1-0.4 0.2-0.8 0.3-1.3 0.1 0 2 0.5 2.8 0.8 0.4 0.1 0.9-0.1 1-0.5 0.1-0.4-0.1-0.8-0.6-1 0 0 0 0 0 0 0.1-0.4 0.2-0.8 0.3-1.3 0.4 0.1 0.8 0.3 1.1 0.7 0.1 0.1 0.2 0.2 0.3 0.2 0.5 0.1 0.9 0.3 1.2 0.7 -0.3 0.3-0.6 0.6-0.9 0.9 -0.1-0.1-0.2-0.1-0.3-0.2 -0.4-0.2-0.8-0.1-1 0.3 -0.2 0.3-0.2 0.7 0.1 1 0.7 0.7 2.1 2.1 2.1 2.1l0 0Z" fill="#e63329"/><path d="M6 14.3c0.1-0.4 0.2-0.8 0.3-1.2 0.9 0.2 1.8 0.5 2.7 0.7 -0.2 0.8-0.5 1.7-0.7 2.6 -0.4-0.1-0.8-0.2-1.2-0.4 0.1-0.3 0.3-1 0.3-1.1 0.1-0.3 0.1-0.3-0.2-0.4 -0.4-0.1-0.7-0.2-1.1-0.3Z" fill="#6b9cd2"/><path d="M21.5 10.9c-0.7 0.6-1.5 0.8-2.1 0.5 0.1-0.4 0.2-0.8 0.3-1.3 0.2 0.1 0.4 0.1 0.7-0.1 0.3-0.2 0.4-0.4 0.4-0.8 0-0.3-0.2-0.6-0.6-0.7 -0.5-0.1-1.6-0.5-1.6-0.5 0 0 0.3-1.1 0.4-1.6 0.1-0.5-0.3-1-0.8-1 -0.3 0-0.6 0.3-0.7 0.6 -0.4-0.1-0.8-0.2-1.3-0.4 0-0.6 0.5-1.1 1.5-1.6 -0.1-0.4-0.1-0.8 0.1-1.2 0.2-0.2 0.4-0.4 0.7-0.5 0.5-0.2 1.1 0 1.5 0.5 0.4 0.5 0.3 1.1-0.2 1.8 0.6 0.7 0.8 1.5 0.5 2.4 0.9 0.2 1.6 0.7 1.8 1.6 0.9-0.1 1.4 0.1 1.7 0.7 0.2 0.5 0.1 1.2-0.4 1.5 -0.6 0.4-1.1 0.4-1.9-0.2l0 0Z" fill="#f1bd30"/><path d="M12.2 4.4l0.9-0.9c0 0 1.7 1.7 2.4 2.4 0 0 0.1 0 0.1 0.1 1.1 0.2 2.1 0.5 3.2 0.8 0 0 0 0 0 0 -0.1 0.4-0.2 0.8-0.3 1.3 -0.1 0-2-0.5-2.8-0.8 -0.4-0.1-0.9 0.1-1 0.5 -0.1 0.4 0.1 0.8 0.6 1 0 0 0 0 0 0 -0.1 0.4-0.2 0.8-0.3 1.3 -0.4-0.1-0.8-0.3-1.1-0.7 -0.1-0.1-0.2-0.2-0.3-0.2 -0.5-0.1-0.9-0.3-1.2-0.7 0.3-0.3 0.6-0.6 0.9-0.9 0.1 0.1 0.2 0.1 0.3 0.2 0.4 0.2 0.8 0.1 1-0.3 0.2-0.3 0.2-0.7-0.1-1 -0.7-0.7-2.1-2.1-2.1-2.1l0 0Z" fill="#e63329"/><path d="M18 9.7c-0.1 0.4-0.2 0.9-0.3 1.2 -0.9-0.2-1.8-0.5-2.7-0.7 0.2-0.8 0.5-1.7 0.7-2.6 0.4 0.1 0.8 0.2 1.2 0.4 -0.1 0.3-0.3 1-0.3 1.1 -0.1 0.3-0.1 0.3 0.2 0.4 0.4 0.1 0.7 0.2 1.1 0.3l0 0Z" fill="#6b9cd2"/></svg>