<svg xmlns="http://www.w3.org/2000/svg" viewBox="0 0 24 24"><style>.s0{fill:#a09b9a;}</style><path d="M22.6 6.7l0 0.1 -0.2 0 0 0.6 -0.1 0 0-0.6 -0.2 0 0-0.1 0.5 0ZM22.7 6.7l0.1 0 0.2 0.5 0.2-0.5 0.1 0 0 0.6 -0.1 0 0-0.4 0-0.2 -0.2 0.5 -0.1 0 -0.2-0.5 0 0.5 -0.1 0 0-0.6 0 0Z" fill="#a09b9a"/><path d="M4.3 12.1l-0.5-0.5c-1.4-1.4-1.9-3.5-1.3-5.3 -1.4-0.3-2.5-1.6-2.5-3.1 0-1.8 1.4-3.2 3.2-3.2 1.6 0 2.9 1.2 3.2 2.7 1.7-0.4 3.6 0.1 5 1.4l0.2 0.2 -2.4 2.4 -0.2-0.2c-0.8-0.8-2-0.8-2.8 0 -0.8 0.8-0.8 2 0 2.8l5.3 5.3 -2.4 2.4 -2.5-2.5 -2.4-2.4Z" fill="#7ac143"/><path d="M7 9.4l2.5-2.5 2.4-2.4 0.5-0.5c1.4-1.4 3.5-1.9 5.3-1.3 0.2-1.6 1.6-2.8 3.2-2.8 1.8 0 3.2 1.4 3.2 3.2 0 1.6-1.2 3-2.8 3.2 0.5 1.8 0.1 3.8-1.3 5.2l-0.2 0.2 -2.4-2.4 0.2-0.2c0.8-0.8 0.8-2 0-2.8 -0.8-0.8-2-0.8-2.8 0l-0.5 0.5 -2.3 2.4 -2.5 2.5 -2.4-2.4Z" fill="#f9a541"/><path d="M17.6 21.4c-1.8 0.6-3.9 0.1-5.3-1.3l-0.2-0.2 2.4-2.4 0.2 0.2c0.8 0.8 2 0.8 2.8 0 0.8-0.8 0.8-2 0-2.8l-0.5-0.5 -2.4-2.4 -2.5-2.5 2.4-2.4 5.3 5.3c1.4 1.4 1.8 3.3 1.4 5 1.6 0.2 2.8 1.6 2.8 3.2 0 1.8-1.4 3.2-3.2 3.2 -1.6 0-2.9-1.1-3.2-2.5" fill="#f44321"/><path d="M16.7 14.7l-2.5 2.5 -2.4 2.4 -0.5 0.5c-1.4 1.4-3.3 1.8-5 1.4 -0.3 1.4-1.6 2.5-3.1 2.5 -1.8 0-3.2-1.4-3.2-3.2 0-1.5 1.1-2.8 2.5-3.1 -0.4-1.8 0-3.7 1.4-5.1l0.2-0.2 2.4 2.4 -0.2 0.2c-0.8 0.8-0.8 2 0 2.8 0.8 0.8 2 0.8 2.8 0l0.5-0.5 2.4-2.4 2.5-2.5 2.4 2.4Z" fill="#5091cd"/></svg>