<svg xmlns="http://www.w3.org/2000/svg" viewBox="0 0 24 24"><path d="M21.4 18.8c0 1.1-0.3 1.9-1 2.5 -0.7 0.6-1.5 0.9-2.6 0.9l-11.7 0c-1.1 0-1.9-0.3-2.6-0.9 -0.7-0.6-1-1.5-1-2.5 0-0.5 0-0.9 0-1.4 0-0.5 0.1-0.9 0.2-1.5 0.1-0.5 0.2-1 0.4-1.5 0.1-0.4 0.3-0.9 0.6-1.3 0.2-0.4 0.5-0.8 0.8-1.1 0.3-0.3 0.7-0.5 1.1-0.7 0.5-0.2 0.9-0.3 1.5-0.3 0.1 0 0.3 0.1 0.6 0.3 0.3 0.2 0.6 0.4 1 0.6 0.4 0.2 0.9 0.5 1.4 0.6 0.6 0.2 1.2 0.3 1.8 0.3 0.6 0 1.2-0.1 1.8-0.3 0.6-0.2 1.1-0.4 1.4-0.6 0.4-0.2 0.7-0.5 1-0.6 0.3-0.2 0.5-0.3 0.6-0.3 0.5 0 1 0.1 1.5 0.3 0.5 0.2 0.8 0.4 1.1 0.7 0.3 0.3 0.6 0.7 0.8 1.1 0.2 0.4 0.4 0.9 0.6 1.3 0.1 0.4 0.3 0.9 0.4 1.5 0.1 0.5 0.2 1 0.2 1.5 0 0.5 0 0.9 0 1.4Zm-4.3-12c0 1.4-0.5 2.6-1.5 3.6 -1 1-2.2 1.5-3.6 1.5 -1.4 0-2.6-0.5-3.6-1.5 -1-1-1.5-2.2-1.5-3.6 0-1.4 0.5-2.6 1.5-3.6 1-1 2.2-1.5 3.6-1.5 1.4 0 2.6 0.5 3.6 1.5 1 1 1.5 2.2 1.5 3.6Z"/></svg>