<svg xmlns="http://www.w3.org/2000/svg" viewBox="0 0 24 24"><path d="M21.2 20.3c0 0.5-0.4 0.9-0.9 0.9 -0.5 0-0.9-0.4-0.9-0.9 0-0.5 0.4-0.9 0.9-0.9 0.5 0 0.9 0.4 0.9 0.9Zm-3.9-0.9c-0.5 0-0.9 0.4-0.9 0.9 0 0.5 0.4 0.9 0.9 0.9 0.5 0 0.9-0.4 0.9-0.9 0-0.5-0.4-0.9-0.9-0.9Zm6.8-2.2l0 4.9c0 1.1-0.9 2.1-2.1 2.1l-19.9 0c-1.1 0-2.1-0.9-2.1-2.1l0-4.9c0-1.1 0.9-2.1 2.1-2.1l4.7 0 -2.6-2.6c-1.2-1.2-0.3-3.2 1.3-3.2l2.5 0 0-7.3c0-1 0.8-1.9 1.9-1.9l4.5 0c1 0 1.9 0.8 1.9 1.9l0 7.3 2.5 0c1.7 0 2.5 2 1.3 3.2l-2.6 2.6 4.7 0c1.1 0 2.1 0.9 2.1 2.1Zm-12.3 0.8c0.1 0.1 0.4 0.1 0.5 0l6.6-6.6c0.2-0.2 0.1-0.6-0.3-0.6l-4 0 0-8.8c0-0.2-0.2-0.4-0.4-0.4l-4.5 0c-0.2 0-0.4 0.2-0.4 0.4l0 8.8 -4 0c-0.3 0-0.5 0.4-0.3 0.6l6.6 6.6Zm10.8-0.8c0-0.3-0.3-0.6-0.6-0.6l-6.2 0 -2.5 2.5c-0.7 0.7-1.9 0.7-2.7 0l-2.5-2.5 -6.2 0c-0.3 0-0.6 0.3-0.6 0.6l0 4.9c0 0.3 0.3 0.6 0.6 0.6l19.9 0c0.3 0 0.6-0.3 0.6-0.6l0-4.9Z"/></svg>