<svg xmlns="http://www.w3.org/2000/svg" viewBox="0 0 24 24" version="1.1"><path d="M20.3 4.6l-3.9-3.9c-0.4-0.4-1-0.7-1.6-0.7l-9.6 0c-1.2 0-2.2 1-2.2 2.3l0 19.5c0 1.2 1 2.3 2.3 2.3l13.5 0c1.2 0 2.3-1 2.3-2.2l0-15.6c0-0.6-0.2-1.2-0.7-1.6Zm-1.1 1.1c0.1 0.1 0.2 0.2 0.2 0.3l-4.5 0 0-4.5c0.1 0 0.2 0.1 0.3 0.2l3.9 3.9Zm-0.5 16.8l-13.5 0c-0.4 0-0.7-0.3-0.7-0.7l0-19.5c0-0.4 0.3-0.7 0.8-0.7l8.3 0 0 4.9c0 0.6 0.5 1.1 1.1 1.1l4.9 0 0 14.3c0 0.4-0.3 0.8-0.7 0.8Zm-1-8c-0.6-0.6-2.6-0.4-3.5-0.3 -1-0.6-1.6-1.4-2.1-2.7 0.2-0.8 0.6-2.2 0.3-3 -0.2-1.3-1.9-1.2-2.1-0.3 -0.2 0.9 0 2.1 0.4 3.6 -0.6 1.3-1.4 3.1-2 4.2 -1 0.5-2.5 1.4-2.8 2.5 -0.2 0.8 1.1 1.8 2.5 0.3 0.4-0.5 0.9-1.2 1.5-2.1 1.3-0.4 2.6-0.9 3.8-1.1 1 0.6 2.2 0.9 3 0.9 1.3 0 1.4-1.4 0.9-1.9Zm-10.7 4.2c0.3-0.7 1.3-1.6 1.7-1.9 -1 1.7-1.7 1.9-1.7 1.9Zm4.5-10.4c0.4 0 0.4 1.8 0.1 2.2 -0.2-0.8-0.2-2.2-0.1-2.2Zm-1.3 7.5c0.5-0.9 1-2 1.4-3 0.5 0.8 1 1.5 1.6 1.9 -1.1 0.2-2.1 0.7-3 1Zm7.2-0.3c0 0-0.3 0.3-2-0.4 1.9-0.1 2.2 0.3 2 0.4Z"/></svg>