<svg xmlns="http://www.w3.org/2000/svg" viewBox="0 0 24 24"><path d="M6.4 8.6l0 13.3 -4.4 0 0-13.3 4.4 0Zm0.3-4.1c0 0.7-0.2 1.2-0.7 1.6 -0.5 0.4-1.1 0.7-1.8 0.7l0 0c-0.7 0-1.3-0.2-1.8-0.7 -0.4-0.4-0.7-1-0.7-1.6 0-0.7 0.2-1.2 0.7-1.6 0.5-0.4 1.1-0.6 1.8-0.6 0.7 0 1.3 0.2 1.8 0.6 0.4 0.4 0.7 1 0.7 1.6Zm15.6 9.8l0 7.6 -4.4 0 0-7.1c0-0.9-0.2-1.7-0.5-2.2 -0.4-0.5-0.9-0.8-1.7-0.8 -0.6 0-1 0.2-1.4 0.5 -0.4 0.3-0.7 0.7-0.9 1.1 -0.1 0.3-0.1 0.6-0.1 1.1l0 7.4 -4.4 0c0-3.6 0-6.5 0-8.7 0-2.2 0-3.5 0-4l0-0.6 4.4 0 0 1.9 0 0c0.2-0.3 0.4-0.5 0.5-0.7 0.2-0.2 0.4-0.4 0.8-0.7 0.3-0.2 0.7-0.4 1.2-0.6 0.5-0.1 1-0.2 1.5-0.2 1.5 0 2.8 0.5 3.7 1.5 0.9 1 1.4 2.5 1.4 4.5Z"/></svg>