<svg xmlns="http://www.w3.org/2000/svg" viewBox="0 0 24 24"><path d="M21.8 3c0.4 0 0.8 0.3 0.8 0.8l0 16.5c0 0.4-0.3 0.8-0.7 0.8l-19.5 0c-0.4 0-0.7-0.3-0.7-0.7l0-16.5c0-0.4 0.3-0.7 0.8-0.7l19.5 0m0-1.5l-19.5 0c-1.2 0-2.2 1-2.2 2.3l0 16.5c0 1.2 1 2.3 2.3 2.3l19.5 0c1.2 0 2.3-1 2.3-2.2l0-16.5c0-1.2-1-2.2-2.2-2.2Zm-15.7 4.5c-0.8 0-1.5 0.7-1.5 1.5 0 0.8 0.7 1.5 1.5 1.5 0.8 0 1.5-0.7 1.5-1.5 0-0.8-0.7-1.5-1.5-1.5Zm0 4.5c-0.8 0-1.5 0.7-1.5 1.5 0 0.8 0.7 1.5 1.5 1.5 0.8 0 1.5-0.7 1.5-1.5 0-0.8-0.7-1.5-1.5-1.5Zm0 4.5c-0.8 0-1.5 0.7-1.5 1.5 0 0.8 0.7 1.5 1.5 1.5 0.8 0 1.5-0.7 1.5-1.5 0-0.8-0.7-1.5-1.5-1.5Zm13.5-6.9l0-1.1c0-0.2-0.1-0.3-0.3-0.3l-9.9 0c-0.2 0-0.3 0.1-0.3 0.3l0 1.1c0 0.2 0.1 0.3 0.3 0.3l9.9 0c0.2 0 0.3-0.1 0.3-0.3Zm0 4.5l0-1.1c0-0.2-0.1-0.3-0.3-0.3l-9.9 0c-0.2 0-0.3 0.1-0.3 0.3l0 1.1c0 0.2 0.1 0.3 0.3 0.3l9.9 0c0.2 0 0.3-0.1 0.3-0.3Zm0 4.5l0-1.1c0-0.2-0.1-0.3-0.3-0.3l-9.9 0c-0.2 0-0.3 0.1-0.3 0.3l0 1.1c0 0.2 0.1 0.3 0.3 0.3l9.9 0c0.2 0 0.3-0.1 0.3-0.3Z"/></svg>