<svg xmlns="http://www.w3.org/2000/svg" viewBox="0 0 24 24"><path d="M19.5 9l0-5.2c0-0.3-0.1-0.6-0.3-0.8l-2.7-2.7c-0.2-0.2-0.5-0.3-0.8-0.3l-10 0c-0.6 0-1.1 0.5-1.1 1.1l0 7.9c-2.5 0-4.5 2-4.5 4.5l0 6.4c0 0.6 0.5 1.1 1.1 1.1l3.4 0 0 1.9c0 0.6 0.5 1.1 1.1 1.1l12.8 0c0.6 0 1.1-0.5 1.1-1.1l0-1.9 3.4 0c0.6 0 1.1-0.5 1.1-1.1l0-6.4c0-2.5-2-4.5-4.5-4.5Zm-13.5-7.5l9.5 0 2.5 2.5 0 8 -12 0 0-10.5Zm12 21l-12 0 0-4.5 12 0 0 4.5Zm4.5-3l-3 0 0-1.9c0-0.6-0.5-1.1-1.1-1.1l-12.7 0c-0.6 0-1.1 0.5-1.1 1.1l0 1.9 -3 0 0-6c0-1.7 1.3-3 3-3l0 1.9c0 0.6 0.5 1.1 1.1 1.1l12.8 0c0.6 0 1.1-0.5 1.1-1.1l0-1.9c1.7 0 3 1.3 3 3l0 6Zm-1.3-5.2c0 0.5-0.4 0.9-0.9 0.9 -0.5 0-0.9-0.4-0.9-0.9 0-0.5 0.4-0.9 0.9-0.9 0.5 0 0.9 0.4 0.9 0.9Z"/></svg>