<svg xmlns="http://www.w3.org/2000/svg" viewBox="0 0 24 22"><path d="M23 2.7l-17 0 -0.4-1.9c-0.1-0.5-0.5-0.8-1-0.8l-4.2 0c-0.3 0-0.5 0.2-0.5 0.5l0 1c0 0.3 0.2 0.5 0.5 0.5l3.3 0 2.9 14.8c-0.5 0.5-0.7 1.1-0.7 1.8 0 1.5 1.2 2.7 2.7 2.7 1.5 0 2.7-1.2 2.7-2.7 0-0.5-0.1-0.9-0.4-1.3l6 0c-0.2 0.4-0.4 0.9-0.4 1.3 0 1.5 1.2 2.7 2.7 2.7 1.5 0 2.7-1.2 2.7-2.7 0-0.8-0.3-1.4-0.8-1.9l0-0.2c0.1-0.6-0.3-1.2-1-1.2l-11.8 0 -0.4-2 13 0c0.5 0 0.9-0.3 1-0.8l1.9-8.7c0.1-0.6-0.3-1.2-1-1.2Zm-14.3 17c-0.6 0-1-0.4-1-1 0-0.6 0.4-1 1-1 0.6 0 1 0.4 1 1 0 0.6-0.4 1-1 1Zm10.7 0c-0.6 0-1-0.4-1-1 0-0.6 0.4-1 1-1 0.6 0 1 0.4 1 1 0 0.6-0.4 1-1 1Zm1-8.3l-12.6 0 -1.3-6.7 15.4 0 -1.4 6.7Z"/></svg>