<svg xmlns="http://www.w3.org/2000/svg" viewBox="0 0 24 24"><path d="M11.1 14.6l0 5.1c0 0.5-0.2 0.9-0.5 1.2 -0.3 0.3-0.7 0.5-1.2 0.5l-6.9 0c-0.5 0-0.9-0.2-1.2-0.5 -0.3-0.3-0.5-0.7-0.5-1.2l0-5.1c0-0.5 0.2-0.9 0.5-1.2 0.3-0.3 0.7-0.5 1.2-0.5l6.9 0c0.5 0 0.9 0.2 1.2 0.5 0.3 0.3 0.5 0.7 0.5 1.2Zm0-10.3l0 5.1c0 0.5-0.2 0.9-0.5 1.2 -0.3 0.3-0.7 0.5-1.2 0.5l-6.9 0c-0.5 0-0.9-0.2-1.2-0.5 -0.3-0.3-0.5-0.7-0.5-1.2l0-5.1c0-0.5 0.2-0.9 0.5-1.2 0.3-0.3 0.7-0.5 1.2-0.5l6.9 0c0.5 0 0.9 0.2 1.2 0.5 0.3 0.3 0.5 0.7 0.5 1.2Zm12 10.3l0 5.1c0 0.5-0.2 0.9-0.5 1.2 -0.3 0.3-0.7 0.5-1.2 0.5l-6.9 0c-0.5 0-0.9-0.2-1.2-0.5 -0.3-0.3-0.5-0.7-0.5-1.2l0-5.1c0-0.5 0.2-0.9 0.5-1.2 0.3-0.3 0.7-0.5 1.2-0.5l6.9 0c0.5 0 0.9 0.2 1.2 0.5 0.3 0.3 0.5 0.7 0.5 1.2Zm0-10.3l0 5.1c0 0.5-0.2 0.9-0.5 1.2 -0.3 0.3-0.7 0.5-1.2 0.5l-6.9 0c-0.5 0-0.9-0.2-1.2-0.5 -0.3-0.3-0.5-0.7-0.5-1.2l0-5.1c0-0.5 0.2-0.9 0.5-1.2 0.3-0.3 0.7-0.5 1.2-0.5l6.9 0c0.5 0 0.9 0.2 1.2 0.5 0.3 0.3 0.5 0.7 0.5 1.2Z"/></svg>