<svg viewBox="0 0 100 100" xmlns="http://www.w3.org/2000/svg" xmlns:xlink="http://www.w3.org/1999/xlink"><symbol viewBox="0 0 24 24" id="chevron-down"><title>chevron-down</title><path d="M23.8 5.8c-0.4-0.4-1-0.4-1.2 0l-10.6 10.7 -10.6-10.7c-0.4-0.4-0.8-0.4-1.2 0 -0.4 0.4-0.4 0.8 0 1.2l11.2 11.3c0.1 0.1 0.4 0.2 0.6 0.2 0.2 0 0.4-0.1 0.6-0.2l11.2-11.3c0.2-0.4 0.2-0.8 0-1.2Z"/></symbol><symbol viewBox="0 0 24 24" id="chevron-left"><title>chevron-left</title><path d="M5.7 12.5l11.8 11.4c0.2 0.2 0.7 0.2 0.9 0 0.2-0.2 0.2-0.7 0-0.9l-11.2-10.9 11.2-10.9c0.2-0.2 0.2-0.7 0-0.9 -0.2-0.2-0.2-0.2-0.4-0.2 -0.2 0-0.4 0-0.4 0.2l-11.8 11.4c-0.2 0.2-0.2 0.7 0 0.9l0 0Z"/></symbol><symbol viewBox="0 0 24 24" id="chevron-right"><title>chevron-right</title><path d="M18.3 11.5l-11.8-11.4c-0.2-0.2-0.7-0.2-0.9 0 -0.2 0.2-0.2 0.7 0 0.9l11.2 10.9 -11.2 10.9c-0.2 0.2-0.2 0.7 0 0.9 0.2 0.2 0.2 0.2 0.4 0.2 0.2 0 0.4 0 0.4-0.2l11.8-11.4c0.2-0.2 0.2-0.7 0-0.9Z"/></symbol><symbol viewBox="0 0 24 24" id="chevron-up"><title>chevron-up</title><path d="M23.8 18.2c-0.4 0.4-1 0.4-1.2 0l-10.6-10.7 -10.6 10.7c-0.4 0.4-0.8 0.4-1.2 0 -0.4-0.4-0.4-0.8 0-1.2l11.2-11.3c0.1-0.1 0.4-0.2 0.6-0.2 0.2 0 0.4 0.1 0.6 0.2l11.2 11.3c0.2 0.4 0.2 0.8 0 1.2l0 0Z"/></symbol><symbol viewBox="0 0 24 24" id="facebook"><title>facebook</title><path d="M17.8 1l0 3.5 -2.1 0c-0.8 0-1.3 0.2-1.6 0.5 -0.3 0.3-0.4 0.8-0.4 1.4l0 2.5 3.9 0 -0.5 4 -3.4 0 0 10.2 -4.1 0 0-10.2 -3.4 0 0-4 3.4 0 0-2.9c0-1.7 0.5-2.9 1.4-3.9 0.9-0.9 2.2-1.4 3.7-1.4 1.3 0 2.3 0.1 3.1 0.2Z"/></symbol><symbol viewBox="0 0 24 24" id="globe"><title>globe</title><path d="M12 1.7c1.9 0 3.6 0.5 5.2 1.4 1.6 0.9 2.8 2.2 3.7 3.7 0.9 1.6 1.4 3.3 1.4 5.2 0 1.9-0.5 3.6-1.4 5.2 -0.9 1.6-2.2 2.8-3.7 3.7 -1.6 0.9-3.3 1.4-5.2 1.4 -1.9 0-3.6-0.5-5.2-1.4 -1.6-0.9-2.8-2.2-3.7-3.7 -0.9-1.6-1.4-3.3-1.4-5.2 0-1.9 0.5-3.6 1.4-5.2 0.9-1.6 2.2-2.8 3.7-3.7 1.6-0.9 3.3-1.4 5.2-1.4Zm3.7 7c0 0-0.1 0.1-0.1 0.1 -0.1 0.1-0.1 0.1-0.2 0.1 0 0 0 0 0.1-0.1 0 0 0-0.1 0.1-0.1 0-0.1 0-0.1 0-0.1 0.1-0.1 0.2-0.1 0.3-0.2 0.1-0.1 0.4-0.1 0.7-0.2 0.3-0.1 0.5 0 0.7 0.1 0 0 0-0.1 0.1-0.2 0.1-0.1 0.2-0.2 0.2-0.2 0 0 0.1 0 0.2-0.1 0.1 0 0.2-0.1 0.2-0.1l0-0.3c-0.1 0-0.2 0-0.2-0.1 0-0.1-0.1-0.2-0.1-0.3 0 0 0 0.1-0.1 0.1 0-0.1 0-0.1-0.1-0.1 0 0-0.1 0-0.2 0 -0.1 0-0.1 0-0.1 0 -0.1 0-0.2-0.1-0.2-0.1 0 0-0.1-0.1-0.1-0.2 0-0.1 0-0.2-0.1-0.2 0 0-0.1-0.1-0.1-0.1 -0.1 0-0.1-0.1-0.1-0.1 0 0 0 0 0-0.1 0 0 0-0.1 0-0.1 0 0 0-0.1-0.1-0.1 0 0 0 0-0.1 0 0 0-0.1 0-0.1 0.1 0 0-0.1 0.1-0.1 0.1 0 0-0.1 0.1-0.1 0.1 0 0-0.1 0-0.1 0 0 0 0 0-0.1 0 0 0 0 0-0.1 0 0 0 0 0-0.1 0 0 0-0.1 0-0.1 0 0 0-0.1 0-0.1 0 0.1 0 0.1-0.1 0-0.1 -0.1 0-0.2 0-0.2 0 0.1 0 0.1-0.1 0.1-0.2 0-0.1-0.1-0.1-0.1-0.2l0.1 0c0 0 0-0.1-0.1-0.1 -0.1 0-0.1-0.1-0.2-0.1 -0.1 0-0.1-0.1-0.2-0.1 -0.1 0-0.2-0.1-0.5-0.1 -0.2 0-0.4 0-0.4 0 0 0.1-0.1 0.1-0.1 0.1 0 0 0 0.1 0.1 0.2 0 0.1 0 0.1 0 0.2 0 0.1 0 0.1-0.1 0.2 -0.1 0.1-0.1 0.1-0.1 0.2 0 0.1 0.1 0.1 0.2 0.2 0.1 0.1 0.2 0.2 0.1 0.3 0 0.1-0.1 0.1-0.2 0.2 -0.1 0.1-0.2 0.1-0.2 0.2 0 0.1-0.1 0.2 0 0.2 0 0.1 0.1 0.2 0.1 0.2 0 0 0 0 0 0.1 0 0 0 0 0 0.1 0 0-0.1 0-0.1 0.1 0 0-0.1 0-0.1 0l0 0c-0.1 0-0.2 0-0.3-0.1 -0.1-0.1-0.1-0.2-0.2-0.3 -0.1-0.2-0.1-0.4-0.2-0.4 -0.2-0.1-0.3-0.1-0.4 0 0-0.1-0.2-0.2-0.5-0.3 -0.2-0.1-0.5-0.1-0.8-0.1 0.1 0 0.1-0.1 0-0.2 -0.1-0.1-0.1-0.2-0.3-0.2 0-0.1 0-0.1 0.1-0.2 0-0.1 0-0.2 0-0.2 0-0.1 0.1-0.2 0.2-0.3 0 0 0 0 0.1-0.1 0.1-0.1 0.1-0.1 0.1-0.2 0-0.1 0-0.1 0-0.1 0.3 0 0.5 0 0.7-0.1 0 0 0.1-0.1 0.2-0.2 0.1-0.1 0.1-0.2 0.1-0.2 0.1-0.1 0.1-0.1 0.2-0.1 0 0 0.1 0 0.2 0.1 0.1 0 0.1 0.1 0.2 0.1 0.1 0 0.2 0 0.2-0.1 0-0.1 0-0.2-0.1-0.3 0.1 0 0.1-0.1 0-0.2 0-0.1-0.1-0.1-0.1-0.1 -0.1 0-0.2 0-0.4 0.1 -0.1 0-0.1 0.1 0 0.1 0 0-0.1 0-0.1 0.1 -0.1 0.1-0.1 0.2-0.2 0.2 -0.1 0.1-0.1 0-0.2-0.1 0 0 0-0.1-0.1-0.2 0-0.1-0.1-0.2-0.1-0.2 -0.1 0-0.1 0.1-0.2 0.2 0-0.1 0-0.1-0.1-0.2 -0.1-0.1-0.2-0.1-0.3-0.1 0.2-0.1 0.1-0.2-0.1-0.4 -0.1 0-0.2-0.1-0.3-0.1 -0.1 0-0.2 0-0.3 0.1 0 0.1-0.1 0.1-0.1 0.2 0 0 0 0.1 0.1 0.1 0 0 0.1 0.1 0.1 0.1 0 0 0.1 0 0.2 0.1 0.1 0 0.1 0 0.1 0 0.1 0.1 0.2 0.2 0.1 0.2 0 0-0.1 0-0.1 0 -0.1 0-0.1 0-0.2 0.1 0 0-0.1 0-0.1 0.1 0 0 0 0.1 0 0.2 0 0.1 0 0.2 0 0.2 0 0-0.1-0.1-0.1-0.2 0-0.1-0.1-0.2-0.1-0.2 0.1 0.1 0 0.1-0.3 0.1l-0.1 0c0 0-0.1 0-0.2 0 -0.1 0-0.2 0-0.3 0 -0.1 0-0.1 0-0.2-0.1 0-0.1 0-0.2 0-0.3 0 0 0 0 0.1 0 0 0-0.1-0.1-0.1-0.1 -0.1-0.1-0.1-0.1-0.1-0.1 -0.4 0.1-0.8 0.3-1.3 0.5 0.1 0 0.1 0 0.2 0 0 0 0.1 0 0.2-0.1 0.1 0 0.1-0.1 0.1-0.1 0.3-0.1 0.5-0.2 0.6-0.1l0.1-0.1c0.1 0.1 0.2 0.3 0.3 0.3 -0.1 0-0.2 0-0.4 0 -0.2 0.1-0.3 0.1-0.3 0.2 0.1 0.1 0.1 0.2 0.1 0.2 0 0-0.1-0.1-0.2-0.1 -0.1-0.1-0.1-0.1-0.2-0.1 -0.1 0-0.1-0.1-0.2-0.1 -0.1 0-0.2 0-0.3 0 -1.3 0.7-2.4 1.7-3.1 3 0.1 0.1 0.1 0.1 0.2 0.1 0 0 0.1 0 0.1 0.1 0 0.1 0 0.1 0 0.1 0 0 0.1 0 0.2 0 0.1 0.1 0.1 0.2 0 0.3 0 0 0.2 0.1 0.6 0.4 0.2 0.2 0.3 0.2 0.3 0.3 0 0.1 0 0.2-0.1 0.2 0 0 0-0.1-0.1-0.1 -0.1-0.1-0.1-0.1-0.1-0.1 0 0 0 0.1 0 0.2 0 0.1 0.1 0.2 0.1 0.2 -0.1 0-0.1 0.1-0.1 0.2 0 0.1 0 0.3 0 0.5 0 0.2 0 0.3 0 0.3l0 0c0 0.1 0 0.3 0.1 0.5 0.1 0.2 0.2 0.3 0.3 0.3 -0.1 0 0 0.2 0.3 0.6 0.1 0.1 0.1 0.1 0.1 0.1 0 0 0.1 0.1 0.2 0.1 0.1 0 0.1 0.1 0.2 0.1 0.1 0 0.1 0.1 0.1 0.1 0 0 0.1 0.1 0.1 0.3 0.1 0.2 0.1 0.3 0.2 0.3 0 0.1 0 0.1 0.1 0.3 0.1 0.1 0.1 0.2 0.1 0.3 0 0 0 0 0 0 0 0 0 0 0 0 0 0.1 0.1 0.1 0.2 0.2 0.1 0.1 0.2 0.1 0.2 0.2 0 0 0 0.1 0 0.1 0 0.1 0 0.1 0 0.1 0 0 0.1 0 0.1 0 0-0.2-0.1-0.5-0.3-0.8 -0.1-0.2-0.2-0.4-0.2-0.4 0 0-0.1-0.1-0.1-0.2 0-0.1 0-0.2-0.1-0.2 0 0 0 0 0.1 0 0 0 0.1 0 0.1 0 0 0 0.1 0 0.1 0.1 0 0 0 0 0 0 0 0.1 0 0.1 0 0.2 0 0.1 0.1 0.2 0.2 0.2 0.1 0.1 0.1 0.2 0.2 0.3 0.1 0.1 0.1 0.2 0.2 0.2 0.1 0.1 0.1 0.1 0.2 0.3 0.1 0.1 0.1 0.2 0 0.2 0.1 0 0.2 0 0.3 0.1 0.1 0.1 0.2 0.2 0.2 0.3 0 0.1 0.1 0.2 0.1 0.3 0 0.2 0 0.3 0.1 0.3 0 0.1 0.1 0.1 0.1 0.2 0.1 0.1 0.1 0.1 0.2 0.1l0.2 0.1 0.2 0.1c0 0 0.1 0.1 0.2 0.1 0.1 0.1 0.2 0.1 0.3 0.2 0.1 0 0.2 0.1 0.2 0.1 0.1 0 0.1 0 0.2 0 0.1 0 0.1 0 0.2 0 0.1 0 0.3 0 0.4 0.2 0.1 0.2 0.2 0.2 0.3 0.3 0.3 0.2 0.6 0.2 0.7 0.1 0 0 0 0 0 0.1 0 0.1 0.1 0.1 0.1 0.2 0 0.1 0.1 0.1 0.1 0.2 0 0 0.1 0.1 0.1 0.1 0 0.1 0.1 0.1 0.2 0.2 0.1 0.1 0.2 0.1 0.2 0.2 0.1 0 0.1-0.1 0.1-0.1 0 0.1 0 0.2 0.1 0.3 0.1 0.1 0.2 0.2 0.2 0.1 0.1 0 0.2-0.2 0.2-0.4 -0.3 0.1-0.5 0.1-0.7-0.2 0 0 0 0 0-0.1 0 0 0-0.1-0.1-0.1 0 0 0-0.1 0-0.1 0 0 0-0.1 0-0.1 0 0 0 0 0.1 0 0.1 0 0.1 0 0.1 0 0 0 0-0.1 0-0.2 0-0.1 0-0.1-0.1-0.2 0-0.1-0.1-0.2-0.1-0.3 -0.1-0.1-0.1-0.2-0.2-0.2 0 0.1-0.1 0.1-0.2 0.1 -0.1 0-0.2 0-0.2-0.1 0 0 0 0 0 0.1 0 0 0 0.1 0 0.1 -0.1 0-0.2 0-0.2 0 0 0 0-0.1 0-0.2 0-0.1 0-0.2 0-0.3 0 0 0-0.1 0.1-0.2 0-0.1 0.1-0.1 0.1-0.2 0-0.1 0-0.1 0.1-0.2 0-0.1 0-0.1-0.1-0.1 0 0-0.1 0-0.2 0 -0.2 0-0.3 0.1-0.3 0.3 0 0 0 0.1 0 0.1 0 0.1 0 0.1-0.1 0.2 0 0-0.1 0.1-0.1 0.1 -0.1 0-0.2 0-0.3 0 -0.2 0-0.3 0-0.3-0.1 -0.1-0.1-0.2-0.2-0.3-0.4 -0.1-0.2-0.1-0.4-0.1-0.5 0-0.1 0-0.2 0-0.4 0-0.1 0-0.3 0-0.3 0-0.1 0-0.2-0.1-0.3 0 0 0.1-0.1 0.1-0.1 0.1-0.1 0.1-0.1 0.1-0.1 0 0 0 0 0.1 0 0 0 0 0 0.1 0 0 0 0 0 0.1 0 0 0 0 0 0-0.1 0 0 0 0-0.1 0 0 0 0 0-0.1 0 0.1 0 0.2 0 0.4 0 0.2 0 0.3 0 0.4 0 0.1 0.1 0.2 0.1 0.3 0 0 0 0-0.1 0-0.1 0-0.1 0-0.1 0-0.2 0 0.2 0.2 0.3 0.4 0.1 0 0 0.1 0 0.2 0.1 0.1 0 0.2 0 0.2 0.1 0 0 0.1 0 0.1 0.1 0 0 0.1 0.1 0.1 0.1 0 0 0 0 0.1 0 0 0 0.1 0 0.1-0.1 0.1 0.1 0.1 0.2 0.2 0.3 0.1 0.4 0.2 0.6 0.3 0.6 0.1 0 0.1 0 0.1 0 0 0 0.1-0.1 0.1-0.1 0-0.1 0-0.1 0-0.2 0 0 0-0.1 0-0.2l0-0.1 0-0.2 0-0.1c-0.1 0-0.2-0.1-0.2-0.2 0-0.1 0-0.2 0-0.2 0-0.1 0.1-0.2 0.2-0.2 0 0 0 0 0.1 0 0.1 0 0.1-0.1 0.2-0.1 0.1 0 0.1-0.1 0.2-0.1 0.2-0.2 0.3-0.3 0.2-0.5 0.1 0 0.1 0 0.1-0.1 0 0 0 0-0.1 0 0 0-0.1 0-0.1-0.1 0 0-0.1 0-0.1 0 0.1 0 0.1-0.1 0-0.2 0 0 0.1-0.1 0.1-0.1 0-0.1 0.1-0.1 0.1-0.1 0.1 0.1 0.2 0.1 0.3 0 0.1-0.1 0.1-0.1 0-0.2 0-0.1 0.1-0.1 0.3-0.1 0.1 0 0.2-0.1 0.2-0.1 0.1 0 0.1 0 0.1 0 0 0 0-0.1 0-0.2 0-0.1 0-0.1 0-0.2 0 0 0.1-0.1 0.2-0.1 0.1 0 0.2-0.1 0.2-0.1l0.2-0.1c0 0 0-0.1 0-0.1 0.2 0 0.3 0 0.4-0.1 0.1-0.1 0.1-0.2-0.1-0.3 0-0.1 0-0.1 0-0.1 -0.1 0-0.1-0.1-0.2-0.1 0 0 0.1 0 0.2 0 0.1 0 0.1 0 0.1 0 0.1-0.1 0.1-0.2-0.1-0.2 -0.2 0-0.3 0-0.6 0.2Zm-2.2 11.7c1.8-0.3 3.4-1.2 4.7-2.5 0 0-0.1 0-0.2-0.1 -0.1 0-0.1 0-0.2 0 -0.2-0.1-0.3-0.1-0.3-0.1 0-0.1 0-0.1 0-0.2 0-0.1-0.1-0.1-0.1-0.1 0 0-0.1-0.1-0.2-0.1 -0.1 0-0.1-0.1-0.1-0.1 0 0 0 0-0.1-0.1 0 0-0.1-0.1-0.1-0.1 0 0-0.1 0-0.1-0.1 0 0-0.1 0-0.1 0 0 0-0.1 0-0.1 0l0 0c0 0-0.1 0-0.1 0 0 0 0 0-0.1 0 0 0 0 0-0.1 0 0 0 0 0 0 0 -0.2-0.2-0.3-0.2-0.5-0.3 0 0-0.1 0-0.1-0.1 -0.1 0-0.1-0.1-0.1-0.1 0 0-0.1 0-0.1 0 0 0-0.1 0-0.2 0.1 0 0-0.1 0.1-0.1 0.2 0 0.1 0 0.1 0 0.2 -0.1 0-0.1-0.1 0-0.2 0.1-0.1 0.1-0.2 0-0.2 0-0.1-0.1-0.1-0.1-0.1 -0.1 0-0.1 0-0.2 0.1 0 0-0.1 0.1-0.2 0.1 -0.1 0-0.1 0.1-0.1 0.1 0 0-0.1 0-0.1 0.1 -0.1 0-0.1 0.1-0.1 0.1 0 0-0.1 0.1-0.1 0.2 0 0.1 0 0.1-0.1 0.1 0 0-0.1-0.1-0.2-0.1 -0.1 0-0.1 0-0.1-0.1 0 0.1 0 0.2 0.1 0.5 0 0.2 0 0.4 0.1 0.5 0.1 0.3 0 0.5-0.2 0.6 -0.2 0.2-0.4 0.4-0.4 0.5 0 0.2 0 0.3 0.2 0.3 0 0.1 0 0.2-0.1 0.3 -0.1 0.1-0.1 0.2-0.1 0.3 0 0.1 0 0.1 0 0.2Z"/></symbol><symbol viewBox="0 0 24 24" id="google-plus"><title>google-plus</title><path d="M14.5 12.1c0 1.2-0.3 2.3-0.8 3.2 -0.5 0.9-1.2 1.7-2.2 2.2 -0.9 0.5-2 0.8-3.2 0.8 -0.9 0-1.7-0.2-2.5-0.5 -0.8-0.3-1.5-0.8-2-1.4 -0.6-0.6-1-1.2-1.4-2 -0.3-0.8-0.5-1.6-0.5-2.5 0-0.9 0.2-1.7 0.5-2.5 0.3-0.8 0.8-1.5 1.4-2 0.6-0.6 1.2-1 2-1.4 0.8-0.3 1.6-0.5 2.5-0.5 1.7 0 3.1 0.6 4.3 1.7l-1.7 1.7c-0.7-0.7-1.5-1-2.5-1 -0.7 0-1.4 0.2-2 0.5 -0.6 0.4-1.1 0.8-1.4 1.5 -0.4 0.6-0.5 1.3-0.5 2 0 0.7 0.2 1.4 0.5 2 0.4 0.6 0.8 1.1 1.4 1.5 0.6 0.4 1.3 0.5 2 0.5 0.5 0 0.9-0.1 1.3-0.2 0.4-0.1 0.7-0.3 1-0.5 0.3-0.2 0.5-0.4 0.7-0.7 0.2-0.3 0.3-0.5 0.4-0.7 0.1-0.2 0.2-0.4 0.2-0.6l-3.6 0 0-2.2 6 0c0.1 0.4 0.1 0.7 0.1 1.1Zm7.5-1.1l0 1.8 -1.8 0 0 1.8 -1.8 0 0-1.8 -1.8 0 0-1.8 1.8 0 0-1.8 1.8 0 0 1.8 1.8 0Z"/></symbol><symbol viewBox="0 0 24 24" id="icon"><title>icon</title><path d="M12 1c6.1 0 11 4.9 11 11s-4.9 11-11 11S1 18.1 1 12 5.9 1 12 1M12 0C5.4 0 0 5.4 0 12c0 6.6 5.4 12 12 12 6.6 0 12-5.4 12-12C24 5.4 18.6 0 12 0L12 0z"/><path d="M12 7c2.8 0 5 2.2 5 5s-2.2 5-5 5 -5-2.2-5-5S9.2 7 12 7M12 6c-3.3 0-6 2.7-6 6s2.7 6 6 6 6-2.7 6-6S15.3 6 12 6L12 6z"/></symbol><symbol viewBox="0 0 24 24" id="joomladagen_logo"><title>joomladagen_logo</title><style>.s0{fill:#f1bd30;}.s1{fill:#e63329;}.s2{fill:#6b9cd2;}</style><path d="M15.8 3.2c0.1 1-0.1 1.7-0.6 2.1 -0.3-0.3-0.6-0.6-0.9-0.9 0.2-0.2 0.3-0.4 0.3-0.6 0-0.3-0.2-0.6-0.5-0.7 -0.3-0.1-0.6-0.1-0.9 0.1 -0.4 0.4-1.2 1.2-1.2 1.2 0 0-0.8-0.8-1.2-1.2 -0.4-0.4-1-0.3-1.3 0.2 -0.1 0.3-0.1 0.6 0.2 1 -0.3 0.3-0.6 0.6-1 0.9 -0.5-0.3-0.7-1-0.6-2.1 -0.4-0.1-0.8-0.3-1-0.7 -0.1-0.3-0.2-0.5-0.1-0.8 0.1-0.5 0.6-1 1.2-1 0.6-0.1 1.1 0.3 1.4 1.1 0.9-0.2 1.7 0 2.3 0.8 0.6-0.7 1.4-1 2.3-0.8 0.4-0.8 0.8-1.2 1.4-1.1 0.6 0.1 1.1 0.5 1.1 1.1 0.1 0.7-0.2 1.1-1.1 1.5l0 0Z" fill="#f1bd30"/><path d="M5.5 8.1l-0.3-1.2c0 0 2.4-0.6 3.3-0.9 0.1 0 0.1 0 0.1-0.1 0.7-0.8 1.5-1.6 2.3-2.3 0 0 0 0 0 0 0.3 0.3 0.6 0.6 0.9 0.9 0 0.1-1.4 1.4-2.1 2.1 -0.3 0.3-0.4 0.8 0 1.2 0.3 0.3 0.8 0.3 1.1 0 0 0 0 0 0 0l0.9 0.9c-0.3 0.3-0.7 0.5-1.2 0.6 -0.1 0-0.2 0.1-0.3 0.2 -0.3 0.4-0.7 0.6-1.2 0.7 -0.1-0.4-0.2-0.9-0.3-1.3 0.1 0 0.2-0.1 0.3-0.1 0.3-0.2 0.4-0.6 0.3-1 -0.1-0.3-0.5-0.5-0.9-0.4 -0.9 0.2-2.9 0.8-2.9 0.8l0 0Z" fill="#e63329"/><path d="M13 5.6c0.3 0.3 0.6 0.6 0.9 0.9l-1.9 1.9c-0.6-0.6-1.3-1.3-1.9-1.9 0.3-0.3 0.6-0.6 0.9-0.9 0.2 0.2 0.7 0.8 0.8 0.8 0.2 0.2 0.2 0.2 0.4 0 0.3-0.3 0.5-0.5 0.8-0.8Z" fill="#6b9cd2"/><path d="M8.2 20.8c-0.1-1 0.1-1.7 0.6-2.1 0.3 0.3 0.6 0.6 0.9 0.9 -0.2 0.2-0.3 0.4-0.3 0.6 0 0.3 0.2 0.6 0.5 0.7 0.3 0.1 0.6 0.1 0.9-0.1 0.4-0.4 1.2-1.2 1.2-1.2 0 0 0.8 0.8 1.2 1.2 0.4 0.4 1 0.3 1.3-0.2 0.1-0.3 0.1-0.6-0.2-1 0.3-0.3 0.6-0.6 1-0.9 0.5 0.3 0.7 1 0.6 2.1 0.4 0.1 0.8 0.3 1 0.7 0.1 0.3 0.2 0.5 0.1 0.8 -0.1 0.5-0.6 1-1.2 1 -0.6 0.1-1.1-0.3-1.4-1.1 -0.9 0.2-1.7 0-2.3-0.8 -0.6 0.7-1.4 1-2.3 0.8 -0.4 0.8-0.8 1.2-1.4 1.1 -0.6-0.1-1.1-0.5-1.1-1.1 -0.1-0.7 0.2-1.1 1.1-1.5l0 0Z" fill="#f1bd30"/><path d="M18.5 15.9l0.3 1.2c0 0-2.4 0.7-3.2 0.9 -0.1 0-0.1 0-0.1 0.1 -0.7 0.8-1.5 1.6-2.3 2.3 0 0 0 0 0 0 -0.3-0.3-0.6-0.6-0.9-0.9 0-0.1 1.4-1.4 2.1-2.1 0.3-0.3 0.4-0.8 0-1.2 -0.3-0.3-0.8-0.3-1.1 0 0 0 0 0 0 0l-0.9-0.9c0.3-0.3 0.7-0.5 1.2-0.6 0.1 0 0.2-0.1 0.3-0.2 0.3-0.4 0.7-0.6 1.2-0.7 0.1 0.4 0.2 0.9 0.3 1.3 -0.1 0-0.2 0.1-0.3 0.1 -0.3 0.2-0.4 0.6-0.3 1 0.2 0.3 0.5 0.5 0.9 0.4 0.9-0.2 2.9-0.8 2.9-0.8l0 0Z" fill="#e63329"/><path d="M11 18.4c-0.3-0.3-0.6-0.6-0.9-0.9l1.9-1.9c0.6 0.6 1.3 1.3 1.9 1.9 -0.3 0.3-0.6 0.6-0.9 0.9 -0.2-0.2-0.7-0.8-0.8-0.8 -0.2-0.2-0.2-0.2-0.4 0 -0.3 0.3-0.5 0.5-0.8 0.8Z" fill="#6b9cd2"/><path d="M6.3 4.3c0.9 0.3 1.4 0.9 1.5 1.6 -0.4 0.1-0.8 0.2-1.3 0.3 -0.1-0.2-0.2-0.4-0.4-0.5 -0.3-0.2-0.6-0.2-0.9 0 -0.3 0.2-0.4 0.5-0.3 0.8 0.1 0.5 0.4 1.6 0.4 1.6 0 0-1.1 0.3-1.6 0.4 -0.5 0.1-0.7 0.8-0.4 1.2 0.2 0.3 0.5 0.4 0.9 0.3 0.1 0.4 0.2 0.8 0.3 1.3 -0.5 0.3-1.2 0.1-2.1-0.5 -0.3 0.3-0.7 0.5-1.1 0.5 -0.3 0-0.5-0.1-0.8-0.3 -0.4-0.4-0.5-1-0.3-1.5 0.3-0.6 0.8-0.8 1.7-0.7 0.3-0.9 0.9-1.4 1.8-1.6 -0.3-0.9-0.1-1.7 0.5-2.4 -0.5-0.7-0.6-1.3-0.2-1.8 0.3-0.5 1-0.6 1.5-0.4 0.7 0.3 0.9 0.8 0.8 1.7l0 0Z" fill="#f1bd30"/><path d="M5.4 15.6l-1.2-0.3c0 0 0.6-2.4 0.9-3.2 0-0.1 0-0.1 0-0.1 -0.3-1-0.6-2.1-0.9-3.2 0 0 0 0 0 0 0.4-0.1 0.8-0.2 1.3-0.3 0 0 0.5 1.9 0.8 2.8 0.1 0.4 0.5 0.7 1 0.6 0.4-0.1 0.7-0.5 0.6-1 0 0 0 0 0 0 0.4-0.1 0.8-0.2 1.3-0.3 0.1 0.4 0.1 0.9 0 1.3 0 0.1 0 0.2 0 0.4 0.2 0.4 0.2 0.9 0 1.4 -0.4-0.1-0.9-0.2-1.3-0.3 0-0.1 0-0.2 0-0.3 0-0.4-0.3-0.7-0.8-0.7 -0.4 0-0.7 0.2-0.8 0.6 -0.2 0.9-0.8 2.9-0.8 2.9l0 0Z" fill="#e63329"/><path d="M7 7.9c0.4-0.1 0.8-0.2 1.2-0.4 0.2 0.9 0.5 1.8 0.7 2.7 -0.8 0.2-1.7 0.5-2.6 0.7 -0.1-0.4-0.2-0.8-0.3-1.3 0.3-0.1 1-0.2 1.1-0.3 0.3-0.1 0.3-0.1 0.2-0.4 -0.1-0.4-0.2-0.7-0.3-1.1l0 0Z" fill="#6b9cd2"/><path d="M17.7 19.7c-0.9-0.3-1.4-0.9-1.5-1.6 0.4-0.1 0.8-0.2 1.3-0.3 0.1 0.2 0.2 0.4 0.4 0.5 0.3 0.2 0.6 0.2 0.9 0 0.3-0.2 0.4-0.5 0.3-0.8 -0.1-0.5-0.4-1.6-0.4-1.6 0 0 1.1-0.3 1.6-0.4 0.5-0.1 0.7-0.8 0.4-1.2 -0.2-0.3-0.5-0.4-0.9-0.3 -0.1-0.4-0.2-0.8-0.3-1.3 0.5-0.3 1.2-0.1 2.1 0.5 0.3-0.3 0.7-0.5 1.1-0.5 0.3 0 0.5 0.1 0.8 0.3 0.4 0.4 0.5 1 0.3 1.5 -0.3 0.6-0.8 0.8-1.7 0.7 -0.3 0.9-0.9 1.4-1.8 1.6 0.3 0.9 0.2 1.7-0.5 2.4 0.5 0.7 0.6 1.3 0.2 1.8 -0.3 0.5-1 0.6-1.5 0.4 -0.7-0.3-0.9-0.8-0.8-1.7l0 0Z" fill="#f1bd30"/><path d="M18.6 8.4l1.2 0.3c0 0-0.6 2.4-0.9 3.3 0 0.1 0 0.1 0 0.1 0.3 1 0.6 2.1 0.9 3.2 0 0 0 0 0 0 -0.4 0.1-0.8 0.2-1.3 0.3 0 0-0.5-1.9-0.8-2.8 -0.1-0.4-0.5-0.7-1-0.6 -0.4 0.1-0.7 0.5-0.6 1 0 0 0 0 0 0 -0.4 0.1-0.8 0.2-1.3 0.3 -0.1-0.4-0.1-0.9 0-1.3 0-0.1 0-0.2 0-0.4 -0.2-0.4-0.2-0.9 0-1.4 0.4 0.1 0.9 0.2 1.3 0.3 0 0.1 0 0.2 0 0.3 0 0.4 0.3 0.7 0.8 0.7 0.4 0 0.7-0.2 0.8-0.6 0.2-0.9 0.8-2.9 0.8-2.9l0 0Z" fill="#e63329"/><path d="M17 16.1c-0.4 0.1-0.8 0.3-1.2 0.4 -0.2-0.9-0.5-1.8-0.7-2.7 0.8-0.2 1.7-0.5 2.6-0.7 0.1 0.4 0.2 0.8 0.3 1.3 -0.3 0.1-1 0.3-1.1 0.3 -0.3 0.1-0.3 0.1-0.2 0.4 0.1 0.4 0.2 0.7 0.3 1.1Z" fill="#6b9cd2"/><path d="M2.5 13.1c0.8-0.6 1.5-0.8 2.1-0.5 -0.1 0.4-0.2 0.8-0.3 1.3 -0.2-0.1-0.4-0.1-0.7 0.1 -0.3 0.2-0.4 0.4-0.4 0.8 0 0.3 0.2 0.6 0.6 0.7 0.5 0.1 1.6 0.5 1.6 0.5 0 0-0.3 1.1-0.4 1.6 -0.1 0.5 0.3 1 0.8 1 0.3 0 0.6-0.2 0.7-0.6 0.4 0.1 0.8 0.2 1.3 0.4 0 0.6-0.5 1.1-1.5 1.6 0.1 0.4 0.1 0.8-0.1 1.2 -0.2 0.2-0.4 0.4-0.7 0.5 -0.5 0.2-1.1 0-1.5-0.5 -0.4-0.5-0.3-1.1 0.2-1.8 -0.6-0.7-0.8-1.5-0.5-2.4 -0.9-0.2-1.6-0.7-1.8-1.6 -0.9 0.1-1.4-0.1-1.7-0.7 -0.2-0.5-0.1-1.2 0.4-1.5 0.6-0.4 1.1-0.4 1.9 0.2l0 0Z" fill="#f1bd30"/><path d="M11.8 19.6l-0.9 0.9c0 0-1.7-1.7-2.4-2.4 0 0-0.1 0-0.1-0.1 -1.1-0.2-2.1-0.5-3.2-0.8 0 0 0 0 0 0 0.1-0.4 0.2-0.8 0.3-1.3 0.1 0 2 0.5 2.8 0.8 0.4 0.1 0.9-0.1 1-0.5 0.1-0.4-0.1-0.8-0.6-1 0 0 0 0 0 0 0.1-0.4 0.2-0.8 0.3-1.3 0.4 0.1 0.8 0.3 1.1 0.7 0.1 0.1 0.2 0.2 0.3 0.2 0.5 0.1 0.9 0.3 1.2 0.7 -0.3 0.3-0.6 0.6-0.9 0.9 -0.1-0.1-0.2-0.1-0.3-0.2 -0.4-0.2-0.8-0.1-1 0.3 -0.2 0.3-0.2 0.7 0.1 1 0.7 0.7 2.1 2.1 2.1 2.1l0 0Z" fill="#e63329"/><path d="M6 14.3c0.1-0.4 0.2-0.8 0.3-1.2 0.9 0.2 1.8 0.5 2.7 0.7 -0.2 0.8-0.5 1.7-0.7 2.6 -0.4-0.1-0.8-0.2-1.2-0.4 0.1-0.3 0.3-1 0.3-1.1 0.1-0.3 0.1-0.3-0.2-0.4 -0.4-0.1-0.7-0.2-1.1-0.3Z" fill="#6b9cd2"/><path d="M21.5 10.9c-0.7 0.6-1.5 0.8-2.1 0.5 0.1-0.4 0.2-0.8 0.3-1.3 0.2 0.1 0.4 0.1 0.7-0.1 0.3-0.2 0.4-0.4 0.4-0.8 0-0.3-0.2-0.6-0.6-0.7 -0.5-0.1-1.6-0.5-1.6-0.5 0 0 0.3-1.1 0.4-1.6 0.1-0.5-0.3-1-0.8-1 -0.3 0-0.6 0.3-0.7 0.6 -0.4-0.1-0.8-0.2-1.3-0.4 0-0.6 0.5-1.1 1.5-1.6 -0.1-0.4-0.1-0.8 0.1-1.2 0.2-0.2 0.4-0.4 0.7-0.5 0.5-0.2 1.1 0 1.5 0.5 0.4 0.5 0.3 1.1-0.2 1.8 0.6 0.7 0.8 1.5 0.5 2.4 0.9 0.2 1.6 0.7 1.8 1.6 0.9-0.1 1.4 0.1 1.7 0.7 0.2 0.5 0.1 1.2-0.4 1.5 -0.6 0.4-1.1 0.4-1.9-0.2l0 0Z" fill="#f1bd30"/><path d="M12.2 4.4l0.9-0.9c0 0 1.7 1.7 2.4 2.4 0 0 0.1 0 0.1 0.1 1.1 0.2 2.1 0.5 3.2 0.8 0 0 0 0 0 0 -0.1 0.4-0.2 0.8-0.3 1.3 -0.1 0-2-0.5-2.8-0.8 -0.4-0.1-0.9 0.1-1 0.5 -0.1 0.4 0.1 0.8 0.6 1 0 0 0 0 0 0 -0.1 0.4-0.2 0.8-0.3 1.3 -0.4-0.1-0.8-0.3-1.1-0.7 -0.1-0.1-0.2-0.2-0.3-0.2 -0.5-0.1-0.9-0.3-1.2-0.7 0.3-0.3 0.6-0.6 0.9-0.9 0.1 0.1 0.2 0.1 0.3 0.2 0.4 0.2 0.8 0.1 1-0.3 0.2-0.3 0.2-0.7-0.1-1 -0.7-0.7-2.1-2.1-2.1-2.1l0 0Z" fill="#e63329"/><path d="M18 9.7c-0.1 0.4-0.2 0.9-0.3 1.2 -0.9-0.2-1.8-0.5-2.7-0.7 0.2-0.8 0.5-1.7 0.7-2.6 0.4 0.1 0.8 0.2 1.2 0.4 -0.1 0.3-0.3 1-0.3 1.1 -0.1 0.3-0.1 0.3 0.2 0.4 0.4 0.1 0.7 0.2 1.1 0.3l0 0Z" fill="#6b9cd2"/></symbol><symbol viewBox="0 0 24 24" id="linkedin"><title>linkedin</title><path d="M6.4 8.6l0 13.3 -4.4 0 0-13.3 4.4 0Zm0.3-4.1c0 0.7-0.2 1.2-0.7 1.6 -0.5 0.4-1.1 0.7-1.8 0.7l0 0c-0.7 0-1.3-0.2-1.8-0.7 -0.4-0.4-0.7-1-0.7-1.6 0-0.7 0.2-1.2 0.7-1.6 0.5-0.4 1.1-0.6 1.8-0.6 0.7 0 1.3 0.2 1.8 0.6 0.4 0.4 0.7 1 0.7 1.6Zm15.6 9.8l0 7.6 -4.4 0 0-7.1c0-0.9-0.2-1.7-0.5-2.2 -0.4-0.5-0.9-0.8-1.7-0.8 -0.6 0-1 0.2-1.4 0.5 -0.4 0.3-0.7 0.7-0.9 1.1 -0.1 0.3-0.1 0.6-0.1 1.1l0 7.4 -4.4 0c0-3.6 0-6.5 0-8.7 0-2.2 0-3.5 0-4l0-0.6 4.4 0 0 1.9 0 0c0.2-0.3 0.4-0.5 0.5-0.7 0.2-0.2 0.4-0.4 0.8-0.7 0.3-0.2 0.7-0.4 1.2-0.6 0.5-0.1 1-0.2 1.5-0.2 1.5 0 2.8 0.5 3.7 1.5 0.9 1 1.4 2.5 1.4 4.5Z"/></symbol><symbol viewBox="0 0 24 24" id="th-large"><title>th-large</title><path d="M11.1 14.6l0 5.1c0 0.5-0.2 0.9-0.5 1.2 -0.3 0.3-0.7 0.5-1.2 0.5l-6.9 0c-0.5 0-0.9-0.2-1.2-0.5 -0.3-0.3-0.5-0.7-0.5-1.2l0-5.1c0-0.5 0.2-0.9 0.5-1.2 0.3-0.3 0.7-0.5 1.2-0.5l6.9 0c0.5 0 0.9 0.2 1.2 0.5 0.3 0.3 0.5 0.7 0.5 1.2Zm0-10.3l0 5.1c0 0.5-0.2 0.9-0.5 1.2 -0.3 0.3-0.7 0.5-1.2 0.5l-6.9 0c-0.5 0-0.9-0.2-1.2-0.5 -0.3-0.3-0.5-0.7-0.5-1.2l0-5.1c0-0.5 0.2-0.9 0.5-1.2 0.3-0.3 0.7-0.5 1.2-0.5l6.9 0c0.5 0 0.9 0.2 1.2 0.5 0.3 0.3 0.5 0.7 0.5 1.2Zm12 10.3l0 5.1c0 0.5-0.2 0.9-0.5 1.2 -0.3 0.3-0.7 0.5-1.2 0.5l-6.9 0c-0.5 0-0.9-0.2-1.2-0.5 -0.3-0.3-0.5-0.7-0.5-1.2l0-5.1c0-0.5 0.2-0.9 0.5-1.2 0.3-0.3 0.7-0.5 1.2-0.5l6.9 0c0.5 0 0.9 0.2 1.2 0.5 0.3 0.3 0.5 0.7 0.5 1.2Zm0-10.3l0 5.1c0 0.5-0.2 0.9-0.5 1.2 -0.3 0.3-0.7 0.5-1.2 0.5l-6.9 0c-0.5 0-0.9-0.2-1.2-0.5 -0.3-0.3-0.5-0.7-0.5-1.2l0-5.1c0-0.5 0.2-0.9 0.5-1.2 0.3-0.3 0.7-0.5 1.2-0.5l6.9 0c0.5 0 0.9 0.2 1.2 0.5 0.3 0.3 0.5 0.7 0.5 1.2Z"/></symbol><symbol viewBox="0 0 24 24" id="twitter"><title>twitter</title><path d="M22.6 5.5c-0.6 0.9-1.3 1.6-2.2 2.2 0 0.1 0 0.3 0 0.6 0 1.2-0.2 2.3-0.5 3.5 -0.3 1.2-0.9 2.3-1.5 3.3 -0.7 1.1-1.5 2-2.5 2.8 -1 0.8-2.1 1.5-3.5 2 -1.3 0.5-2.8 0.7-4.3 0.7 -2.4 0-4.6-0.6-6.6-1.9 0.3 0 0.7 0.1 1 0.1 2 0 3.8-0.6 5.4-1.8 -0.9 0-1.8-0.3-2.5-0.9 -0.7-0.6-1.2-1.3-1.5-2.1 0.3 0 0.6 0.1 0.8 0.1 0.4 0 0.8 0 1.1-0.1 -1-0.2-1.8-0.7-2.5-1.5 -0.7-0.8-1-1.7-1-2.8l0-0.1c0.6 0.3 1.3 0.5 2 0.5 -0.6-0.4-1.1-0.9-1.4-1.5 -0.3-0.6-0.5-1.3-0.5-2.1 0-0.8 0.2-1.5 0.6-2.2 1.1 1.3 2.4 2.4 3.9 3.2 1.5 0.8 3.2 1.2 5 1.3 -0.1-0.3-0.1-0.7-0.1-1 0-1.2 0.4-2.2 1.3-3.1 0.8-0.8 1.9-1.3 3.1-1.3 1.3 0 2.3 0.5 3.2 1.4 1-0.2 1.9-0.5 2.7-1 -0.3 1-1 1.8-1.9 2.4 0.8-0.1 1.7-0.3 2.5-0.7Z"/></symbol><symbol viewBox="0 0 24 24" id="user"><title>user</title><path d="M21.4 18.8c0 1.1-0.3 1.9-1 2.5 -0.7 0.6-1.5 0.9-2.6 0.9l-11.7 0c-1.1 0-1.9-0.3-2.6-0.9 -0.7-0.6-1-1.5-1-2.5 0-0.5 0-0.9 0-1.4 0-0.5 0.1-0.9 0.2-1.5 0.1-0.5 0.2-1 0.4-1.5 0.1-0.4 0.3-0.9 0.6-1.3 0.2-0.4 0.5-0.8 0.8-1.1 0.3-0.3 0.7-0.5 1.1-0.7 0.5-0.2 0.9-0.3 1.5-0.3 0.1 0 0.3 0.1 0.6 0.3 0.3 0.2 0.6 0.4 1 0.6 0.4 0.2 0.9 0.5 1.4 0.6 0.6 0.2 1.2 0.3 1.8 0.3 0.6 0 1.2-0.1 1.8-0.3 0.6-0.2 1.1-0.4 1.4-0.6 0.4-0.2 0.7-0.5 1-0.6 0.3-0.2 0.5-0.3 0.6-0.3 0.5 0 1 0.1 1.5 0.3 0.5 0.2 0.8 0.4 1.1 0.7 0.3 0.3 0.6 0.7 0.8 1.1 0.2 0.4 0.4 0.9 0.6 1.3 0.1 0.4 0.3 0.9 0.4 1.5 0.1 0.5 0.2 1 0.2 1.5 0 0.5 0 0.9 0 1.4Zm-4.3-12c0 1.4-0.5 2.6-1.5 3.6 -1 1-2.2 1.5-3.6 1.5 -1.4 0-2.6-0.5-3.6-1.5 -1-1-1.5-2.2-1.5-3.6 0-1.4 0.5-2.6 1.5-3.6 1-1 2.2-1.5 3.6-1.5 1.4 0 2.6 0.5 3.6 1.5 1 1 1.5 2.2 1.5 3.6Z"/></symbol></svg>