<svg viewBox="0 0 100 100" xmlns="http://www.w3.org/2000/svg" xmlns:xlink="http://www.w3.org/1999/xlink"><symbol viewBox="0 0 1792 1792" id="facebook"><title>facebook</title><path d="M1343 12v264h-157q-86 0-116 36t-30 108v189h293l-39 296h-254v759h-306v-759h-255v-296h255v-218q0-186 104-288.5t277-102.5q147 0 228 12z"/></symbol><symbol viewBox="0 0 1792 1792" id="globe"><title>globe</title><path d="M896 128q209 0 385.5 103t279.5 279.5 103 385.5-103 385.5-279.5 279.5-385.5 103-385.5-103-279.5-279.5-103-385.5 103-385.5 279.5-279.5 385.5-103zm274 521q-2 1-9.5 9.5t-13.5 9.5q2 0 4.5-5t5-11 3.5-7q6-7 22-15 14-6 52-12 34-8 51 11-2-2 9.5-13t14.5-12q3-2 15-4.5t15-7.5l2-22q-12 1-17.5-7t-6.5-21q0 2-6 8 0-7-4.5-8t-11.5 1-9 1q-10-3-15-7.5t-8-16.5-4-15q-2-5-9.5-10.5t-9.5-10.5q-1-2-2.5-5.5t-3-6.5-4-5.5-5.5-2.5-7 5-7.5 10-4.5 5q-3-2-6-1.5t-4.5 1-4.5 3-5 3.5q-3 2-8.5 3t-8.5 2q15-5-1-11-10-4-16-3 9-4 7.5-12t-8.5-14h5q-1-4-8.5-8.5t-17.5-8.5-13-6q-8-5-34-9.5t-33-.5q-5 6-4.5 10.5t4 14 3.5 12.5q1 6-5.5 13t-6.5 12q0 7 14 15.5t10 21.5q-3 8-16 16t-16 12q-5 8-1.5 18.5t10.5 16.5q2 2 1.5 4t-3.5 4.5-5.5 4-6.5 3.5l-3 2q-11 5-20.5-6t-13.5-26q-7-25-16-30-23-8-29 1-5-13-41-26-25-9-58-4 6-1 0-15-7-15-19-12 3-6 4-17.5t1-13.5q3-13 12-23 1-1 7-8.5t9.5-13.5.5-6q35 4 50-11 5-5 11.5-17t10.5-17q9-6 14-5.5t14.5 5.5 14.5 5q14 1 15.5-11t-7.5-20q12 1 3-17-5-7-8-9-12-4-27 5-8 4 2 8-1-1-9.5 10.5t-16.5 17.5-16-5q-1-1-5.5-13.5t-9.5-13.5q-8 0-16 15 3-8-11-15t-24-8q19-12-8-27-7-4-20.5-5t-19.5 4q-5 7-5.5 11.5t5 8 10.5 5.5 11.5 4 8.5 3q14 10 8 14-2 1-8.5 3.5t-11.5 4.5-6 4q-3 4 0 14t-2 14q-5-5-9-17.5t-7-16.5q7 9-25 6l-10-1q-4 0-16 2t-20.5 1-13.5-8q-4-8 0-20 1-4 4-2-4-3-11-9.5t-10-8.5q-46 15-94 41 6 1 12-1 5-2 13-6.5t10-5.5q34-14 42-7l5-5q14 16 20 25-7-4-30-1-20 6-22 12 7 12 5 18-4-3-11.5-10t-14.5-11-15-5q-16 0-22 1-146 80-235 222 7 7 12 8 4 1 5 9t2.5 11 11.5-3q9 8 3 19 1-1 44 27 19 17 21 21 3 11-10 18-1-2-9-9t-9-4q-3 5 .5 18.5t10.5 12.5q-7 0-9.5 16t-2.5 35.5-1 23.5l2 1q-3 12 5.5 34.5t21.5 19.5q-13 3 20 43 6 8 8 9 3 2 12 7.5t15 10 10 10.5q4 5 10 22.5t14 23.5q-2 6 9.5 20t10.5 23q-1 0-2.5 1t-2.5 1q3 7 15.5 14t15.5 13q1 3 2 10t3 11 8 2q2-20-24-62-15-25-17-29-3-5-5.5-15.5t-4.5-14.5q2 0 6 1.5t8.5 3.5 7.5 4 2 3q-3 7 2 17.5t12 18.5 17 19 12 13q6 6 14 19.5t0 13.5q9 0 20 10t17 20q5 8 8 26t5 24q2 7 8.5 13.5t12.5 9.5l16 8 13 7q5 2 18.5 10.5t21.5 11.5q10 4 16 4t14.5-2.5 13.5-3.5q15-2 29 15t21 21q36 19 55 11-2 1 .5 7.5t8 15.5 9 14.5 5.5 8.5q5 6 18 15t18 15q6-4 7-9-3 8 7 20t18 10q14-3 14-32-31 15-49-18 0-1-2.5-5.5t-4-8.5-2.5-8.5 0-7.5 5-3q9 0 10-3.5t-2-12.5-4-13q-1-8-11-20t-12-15q-5 9-16 8t-16-9q0 1-1.5 5.5t-1.5 6.5q-13 0-15-1 1-3 2.5-17.5t3.5-22.5q1-4 5.5-12t7.5-14.5 4-12.5-4.5-9.5-17.5-2.5q-19 1-26 20-1 3-3 10.5t-5 11.5-9 7q-7 3-24 2t-24-5q-13-8-22.5-29t-9.5-37q0-10 2.5-26.5t3-25-5.5-24.5q3-2 9-9.5t10-10.5q2-1 4.5-1.5t4.5 0 4-1.5 3-6q-1-1-4-3-3-3-4-3 7 3 28.5-1.5t27.5 1.5q15 11 22-2 0-1-2.5-9.5t-.5-13.5q5 27 29 9 3 3 15.5 5t17.5 5q3 2 7 5.5t5.5 4.5 5-.5 8.5-6.5q10 14 12 24 11 40 19 44 7 3 11 2t4.5-9.5 0-14-1.5-12.5l-1-8v-18l-1-8q-15-3-18.5-12t1.5-18.5 15-18.5q1-1 8-3.5t15.5-6.5 12.5-8q21-19 15-35 7 0 11-9-1 0-5-3t-7.5-5-4.5-2q9-5 2-16 5-3 7.5-11t7.5-10q9 12 21 2 7-8 1-16 5-7 20.5-10.5t18.5-9.5q7 2 8-2t1-12 3-12q4-5 15-9t13-5l17-11q3-4 0-4 18 2 31-11 10-11-6-20 3-6-3-9.5t-15-5.5q3-1 11.5-.5t10.5-1.5q15-10-7-16-17-5-43 12zm-163 877q206-36 351-189-3-3-12.5-4.5t-12.5-3.5q-18-7-24-8 1-7-2.5-13t-8-9-12.5-8-11-7q-2-2-7-6t-7-5.5-7.5-4.5-8.5-2-10 1l-3 1q-3 1-5.5 2.5t-5.5 3-4 3 0 2.5q-21-17-36-22-5-1-11-5.5t-10.5-7-10-1.5-11.5 7q-5 5-6 15t-2 13q-7-5 0-17.5t2-18.5q-3-6-10.5-4.5t-12 4.5-11.5 8.5-9 6.5-8.5 5.5-8.5 7.5q-3 4-6 12t-5 11q-2-4-11.5-6.5t-9.5-5.5q2 10 4 35t5 38q7 31-12 48-27 25-29 40-4 22 12 26 0 7-8 20.5t-7 21.5q0 6 2 16z"/></symbol><symbol viewBox="0 0 1792 1792" id="google-plus"><title>google-plus</title><path d="M1181 913q0 208-87 370.5t-248 254-369 91.5q-149 0-285-58t-234-156-156-234-58-285 58-285 156-234 234-156 285-58q286 0 491 192l-199 191q-117-113-292-113-123 0-227.5 62t-165.5 168.5-61 232.5 61 232.5 165.5 168.5 227.5 62q83 0 152.5-23t114.5-57.5 78.5-78.5 49-83 21.5-74h-416v-252h692q12 63 12 122zm867-122v210h-209v209h-210v-209h-209v-210h209v-209h210v209h209z"/></symbol><symbol viewBox="0 0 24 24" id="icon"><title>icon</title><path d="M12 1c6.1 0 11 4.9 11 11s-4.9 11-11 11S1 18.1 1 12 5.9 1 12 1M12 0C5.4 0 0 5.4 0 12c0 6.6 5.4 12 12 12 6.6 0 12-5.4 12-12C24 5.4 18.6 0 12 0L12 0z"/><path d="M12 7c2.8 0 5 2.2 5 5s-2.2 5-5 5 -5-2.2-5-5S9.2 7 12 7M12 6c-3.3 0-6 2.7-6 6s2.7 6 6 6 6-2.7 6-6S15.3 6 12 6L12 6z"/></symbol><symbol viewBox="0 0 595.3 595.3" id="joomladagen_logo"><title>joomladagen_logo</title> <style> .a{fill:#F1BD30;}.b{fill:#E63329;}.c{fill:#6B9CD2;} </style> <path d="M391 77.3c3.6 23.6-1.9 42-15.3 52.2-7.6-7.5-15.2-15-23.2-22.9 3.9-4 6.7-8.8 6.7-15 0-8.5-3.8-14.3-11.3-17.8-7.8-3.7-15.7-2.5-21.7 3.3-8.9 8.7-30.1 29.7-30.1 29.7s-19.5-19.9-29.4-29.5c-9.5-9.2-25.5-6.4-31.4 5.3-3.6 7.1-2 15.7 4.6 23.9-7.8 7.3-15.6 14.7-23.6 22.3-11.8-7.5-17.4-25.7-14.8-51.9-10.5-2.5-19.1-8-24-18.2-3.2-6.6-3.8-13.5-2.4-20.5 2.6-13.6 14.8-24.3 28.6-25.4 16.1-1.4 27.9 7.6 35 27.2 22.4-4.9 41.7 1 57.6 19.3 15.6-18 34.9-24.4 57.5-19.3 8.8-20.6 20.1-29.1 35.9-27.2 14.1 1.7 26.2 13.1 28.1 26.6 2.6 17.6-5.1 28.5-26.8 37.9z" class="a"/> <path d="M136.3 198.5l-8.3-31s58.8-16.1 80.6-21.6c1.3-.3 2-.9 2.8-1.8 18.5-19.9 38.1-38.7 57.3-57.8.1-.1.3-.1.1 0 7.6 7.6 15.2 15.1 23 22.9-.2 1.4-34.9 35.9-51.4 51.5-7.9 7.5-8.7 20.5-1.2 28.6 7.2 7.8 19.4 8 28.2.4.4-.3.8-.6.7-.5l23.2 23.2c-7.1 8.2-17.1 13.4-28.7 15.5-3.6.6-5.9 2-8.2 4.7-7.6 9-17.1 15-29.1 17.6-2.9-10.8-5.7-21.1-8.5-31.6 2.7-1.2 5.5-2 7.8-3.5 8.6-5.4 11.1-15.3 6.7-25.4-3.7-8.4-13.3-12.6-23.1-10-22.4 5.7-71.9 18.8-71.9 18.8z" class="b"/> <path d="M321.6 137c8.2 7.7 15.8 14.9 22.8 21.6l-48.3 48.3c-15.2-15.2-31.3-31.4-48-48.1 7.1-6.7 14.8-14.1 23.4-22.2 5.1 5.4 18.1 19.1 19.8 20.7 5.1 4.8 5.4 4.8 10.3-.2 6.6-6.6 13.1-13.1 20-20.1z" class="c"/> <path d="M202.6 514c-3.6-23.6 1.9-42 15.3-52.2 7.6 7.5 15.2 15 23.2 22.9-3.9 4-6.7 8.8-6.7 15 0 8.5 3.8 14.3 11.3 17.8 7.8 3.7 15.7 2.5 21.7-3.3 9-8.7 30.1-29.7 30.1-29.7s19.5 19.9 29.4 29.5c9.5 9.2 25.5 6.4 31.4-5.3 3.6-7.1 2-15.7-4.6-23.9 7.8-7.3 15.6-14.7 23.6-22.3 11.8 7.5 17.4 25.7 14.8 51.9 10.5 2.5 19.1 8 24 18.2 3.2 6.6 3.8 13.5 2.4 20.5-2.6 13.6-14.8 24.3-28.6 25.4-16.1 1.4-27.9-7.6-35-27.2-22.4 4.9-41.7-1-57.6-19.3-15.6 18-34.9 24.4-57.5 19.3-8.8 20.6-20.1 29.1-35.9 27.2-14.1-1.7-26.2-13.1-28.1-26.6-2.6-17.6 5.1-28.5 26.8-37.9z" class="a"/> <path d="M457.3 392.8l8.3 31s-58.8 16.1-80.6 21.6c-1.3.3-2 1-2.8 1.8-18.5 19.9-38.1 38.7-57.3 57.8-.1.1-.3.1-.1 0-7.6-7.6-15.2-15.1-23-22.9.2-1.4 34.9-35.9 51.4-51.5 7.9-7.5 8.7-20.5 1.2-28.6-7.2-7.8-19.4-8-28.2-.4-.4.3-.8.6-.7.5l-23.2-23.2c7.1-8.2 17.1-13.4 28.7-15.5 3.6-.6 5.9-2 8.2-4.7 7.6-9 17.1-15 29.1-17.6 2.9 10.8 5.7 21.1 8.5 31.6-2.7 1.2-5.5 2-7.8 3.5-8.6 5.4-11.1 15.3-6.7 25.4 3.7 8.4 13.3 12.6 23.1 10 22.4-5.7 71.9-18.8 71.9-18.8z" class="b"/> <path d="M271.9 454.2c-8.2-7.7-15.8-14.9-22.8-21.6l48.3-48.3c15.2 15.2 31.3 31.4 48 48.1-7.1 6.7-14.8 14.1-23.4 22.2-5.1-5.4-18.1-19.1-19.8-20.7-5.1-4.8-5.4-4.8-10.3.2-6.5 6.6-13.1 13.2-20 20.1z" class="c"/> <path d="M154.8 104.9c22.2 8.6 35.4 22.7 37.5 39.4-10.3 2.8-20.5 5.6-31.4 8.6-1.5-5.4-4.3-10.2-9.7-13.3-7.3-4.2-14.3-3.8-21.1.9-7.1 5-10.1 12.4-8 20.4 3.1 12.1 10.7 40.9 10.7 40.9s-27 7-40.3 10.7c-12.7 3.6-18.2 18.9-11.1 29.8 4.4 6.7 12.6 9.5 23.1 8 2.5 10.4 5 20.8 7.5 31.6-12.4 6.5-30.9 2.3-52.3-13.2-7.5 7.9-16.5 12.5-27.8 11.7-7.3-.5-13.6-3.5-19-8.2-10.3-9-13.4-24.9-7.6-37.4 6.9-14.7 20.6-20.3 41-16.7 7-21.9 21.7-35.6 45.5-40.2-7.8-22.5-3.7-42.4 12.1-59.4-13.5-17.9-15.2-31.9-5.6-44.7 8.5-11.3 24.5-16.1 37.1-11.1 16.5 6.6 22.1 18.7 19.4 42.2z" class="a"/> <path d="M132.4 386l-31-8.3s15.5-59 21.5-80.6c.3-1.3.2-2.2-.2-3.3-8-26-14.5-52.3-21.4-78.6 0-.1.1-.3 0-.1 10.4-2.8 20.7-5.6 31.3-8.4 1.1.9 13.6 48.2 18.9 70.2 2.5 10.6 13.4 17.8 24.2 15.3 10.4-2.4 16.6-12.8 14.4-24.3-.1-.5-.1-1-.1-.8 10.5-2.8 20.9-5.6 31.7-8.5 3.6 10.3 3.1 21.5-.9 32.6-1.2 3.4-1.2 6.1 0 9.5 4 11.1 4.4 22.3.7 34-10.8-2.9-21.1-5.6-31.6-8.4.3-3 1-5.8.9-8.5-.4-10.1-7.7-17.3-18.7-18.5-9.1-1-17.6 5.2-20.2 15-6.1 22.4-19.5 71.7-19.5 71.7z" class="b"/> <path d="M171.9 194.8c10.8-3.2 20.8-6.2 30.1-9 6 22.4 11.9 44.5 17.7 66-20.8 5.5-42.9 11.4-65.6 17.5-2.3-9.5-4.8-19.9-7.5-31.4 7.2-1.7 25.6-6.2 27.8-6.8 6.7-2.1 6.8-2.3 5-9-2.6-8.9-5-17.9-7.5-27.3z" class="c"/> <path d="M438.8 486.4c-22.2-8.6-35.4-22.7-37.5-39.4 10.3-2.8 20.5-5.6 31.4-8.6 1.5 5.4 4.3 10.2 9.7 13.3 7.3 4.2 14.3 3.8 21.1-.9 7.1-4.9 10.1-12.4 8-20.4-3.1-12.1-10.7-40.9-10.7-40.9s27-7 40.3-10.7c12.7-3.6 18.3-18.9 11.1-29.8-4.4-6.7-12.6-9.5-23.1-8-2.5-10.4-5-20.8-7.5-31.6 12.4-6.5 30.9-2.3 52.3 13.2 7.5-7.9 16.5-12.5 27.8-11.7 7.3.5 13.6 3.5 19 8.2 10.5 9.1 13.6 25 7.7 37.5-6.9 14.7-20.6 20.3-41 16.7-7 21.9-21.7 35.6-45.5 40.2 7.8 22.5 3.7 42.4-12.1 59.4 13.5 17.9 15.2 31.9 5.6 44.7-8.5 11.3-24.5 16.1-37.1 11.1-16.6-6.7-22.2-18.8-19.5-42.3z" class="a"/> <path d="M461.2 205.2l31 8.3s-15.5 59-21.5 80.6c-.3 1.3-.2 2.2.2 3.3 8 26 14.5 52.3 21.4 78.6 0 .1-.1.3 0 .1-10.4 2.8-20.7 5.6-31.3 8.4-1.1-.9-13.6-48.2-18.9-70.2-2.5-10.6-13.4-17.8-24.2-15.3-10.4 2.4-16.6 12.8-14.4 24.3.1.5.1 1 .1.8-10.5 2.8-20.9 5.6-31.7 8.5-3.6-10.3-3.1-21.5.9-32.6 1.2-3.4 1.2-6.1 0-9.5-4-11.1-4.4-22.3-.7-34 10.8 2.9 21.1 5.6 31.6 8.4-.3 3-1 5.8-.9 8.5.4 10.1 7.7 17.3 18.7 18.5 9.1 1 17.6-5.2 20.2-15 6.1-22.3 19.5-71.7 19.5-71.7z" class="b"/> <path d="M421.7 396.5c-10.8 3.2-20.8 6.2-30.1 9-6-22.4-11.9-44.5-17.7-66 20.8-5.5 42.9-11.4 65.6-17.5 2.3 9.5 4.8 19.9 7.5 31.4-7.2 1.7-25.6 6.2-27.8 6.8-6.7 2.1-6.8 2.3-5 9 2.5 8.9 5 17.8 7.5 27.3z" class="c"/> <path d="M60.6 323.2c18.6-14.9 37.4-19.3 52.9-12.8-2.7 10.3-5.4 20.6-8.2 31.5-5.4-1.4-11-1.4-16.4 1.7-7.3 4.2-10.5 10.5-9.8 18.7.7 8.6 5.7 14.9 13.7 17.1 12 3.4 40.7 11.2 40.7 11.2s-7.4 26.9-10.8 40.3c-3.2 12.8 7.2 25.2 20.3 24.5 8-.4 14.6-6.1 18.4-16 10.3 3.1 20.5 6.1 31.1 9.3-.6 14-13.5 27.9-37.6 38.7 3.1 10.4 2.6 20.5-3.7 29.9-4.1 6.1-9.8 10-16.5 12.3-13.1 4.5-28.4-.7-36.3-12.1-9.3-13.3-7.3-28 6.1-43.9-15.5-17-20-36.6-12-59.5-23.4-4.5-38.6-18-45.4-40.2-22.3 2.7-35.2-2.8-41.5-17.5-5.6-13-1.7-29.3 9-37.7 13.7-10.7 27-9.6 46 4.5z" class="a"/> <path d="M292.9 483.2l-22.7 22.7s-43.3-42.9-59-58.9c-.9-.9-1.8-1.2-3-1.5-26.5-6.1-52.5-13.6-78.7-20.7-.1 0-.3-.2-.1 0 2.8-10.4 5.5-20.7 8.4-31.4 1.3-.5 48.6 12.3 70.3 18.8 10.5 3.1 22.1-2.7 25.3-13.3 3.1-10.2-2.7-20.8-13.8-24.6-.5-.2-.9-.4-.8-.3 2.8-10.5 5.6-20.9 8.5-31.7 10.7 2 20.2 8.1 27.8 17.1 2.3 2.8 4.7 4.1 8.2 4.7 11.6 2.1 21.5 7.3 29.8 16.4-7.9 7.9-15.4 15.5-23.1 23.2-2.4-1.8-4.5-3.7-6.9-5-8.9-4.7-18.8-1.9-25.4 6.9-5.4 7.4-4.2 17.9 2.9 25 16.2 16.3 52.3 52.6 52.3 52.6z" class="b"/> <path d="M147 353.4c2.6-11 5-21.1 7.3-30.5 22.4 6 44.5 11.9 66 17.7-5.6 20.8-11.5 42.8-17.6 65.6-9.3-2.8-19.6-5.8-30.9-9.2 2.1-7.1 7.5-25.2 8-27.5 1.6-6.8 1.4-7.1-5.3-8.9-9.1-2.3-18-4.7-27.5-7.2z" class="c"/> <path d="M533 268.1c-18.6 14.9-37.4 19.3-52.9 12.8 2.7-10.3 5.4-20.6 8.2-31.5 5.4 1.4 11 1.4 16.4-1.7 7.3-4.2 10.5-10.5 9.8-18.7-.7-8.6-5.7-14.9-13.7-17.1-12-3.4-40.7-11.2-40.7-11.2s7.4-26.9 10.8-40.3c3.2-12.8-7.2-25.2-20.3-24.5-8 .4-14.6 6.2-18.4 16-10.3-3.1-20.5-6.1-31.1-9.3.6-14 13.5-27.9 37.6-38.7-3.1-10.4-2.6-20.5 3.7-29.9 4.1-6.1 9.8-10 16.5-12.3 13.1-4.5 28.4.7 36.3 12.1 9.3 13.3 7.3 28-6.1 43.9 15.5 17 20 36.6 12 59.5 23.4 4.5 38.6 18 45.4 40.2 22.3-2.7 35.2 2.8 41.5 17.5 5.6 13 1.7 29.3-9 37.7-13.7 10.7-27 9.5-46-4.5z" class="a"/> <path d="M300.7 108.1l22.7-22.7s43.3 42.9 59 58.9c.9.9 1.8 1.2 3 1.5 26.5 6.1 52.6 13.6 78.7 20.7.1 0 .3.2.1 0-2.8 10.4-5.5 20.7-8.4 31.4-1.3.5-48.6-12.3-70.3-18.8-10.5-3.1-22.1 2.7-25.3 13.3-3.1 10.2 2.7 20.8 13.8 24.6.5.2.9.4.8.3-2.8 10.5-5.6 20.9-8.5 31.7-10.7-2-20.2-8.1-27.7-17.1-2.3-2.8-4.7-4.1-8.2-4.7-11.6-2.1-21.5-7.3-29.8-16.4 7.9-7.9 15.4-15.5 23.1-23.2 2.4 1.8 4.5 3.7 6.9 5 8.9 4.7 18.8 1.9 25.4-6.9 5.4-7.4 4.3-17.9-2.9-25-16.3-16.3-52.4-52.6-52.4-52.6z" class="b"/> <path d="M446.6 237.9c-2.6 11-5 21.1-7.3 30.5-22.4-6-44.5-11.9-66-17.7 5.6-20.8 11.5-42.8 17.6-65.6 9.4 2.8 19.6 5.8 30.9 9.2-2.1 7.1-7.5 25.2-8 27.5-1.6 6.8-1.4 7.1 5.3 8.9 9 2.3 18 4.7 27.5 7.2z" class="c"/> </symbol><symbol viewBox="0 0 1792 1792" id="linkedin"><title>linkedin</title><path d="M477 625v991h-330v-991h330zm21-306q1 73-50.5 122t-135.5 49h-2q-82 0-132-49t-50-122q0-74 51.5-122.5t134.5-48.5 133 48.5 51 122.5zm1166 729v568h-329v-530q0-105-40.5-164.5t-126.5-59.5q-63 0-105.5 34.5t-63.5 85.5q-11 30-11 81v553h-329q2-399 2-647t-1-296l-1-48h329v144h-2q20-32 41-56t56.5-52 87-43.5 114.5-15.5q171 0 275 113.5t104 332.5z"/></symbol><symbol viewBox="0 0 1792 1792" id="th-large"><title>th-large</title><path d="M832 1024v384q0 52-38 90t-90 38h-512q-52 0-90-38t-38-90v-384q0-52 38-90t90-38h512q52 0 90 38t38 90zm0-768v384q0 52-38 90t-90 38h-512q-52 0-90-38t-38-90v-384q0-52 38-90t90-38h512q52 0 90 38t38 90zm896 768v384q0 52-38 90t-90 38h-512q-52 0-90-38t-38-90v-384q0-52 38-90t90-38h512q52 0 90 38t38 90zm0-768v384q0 52-38 90t-90 38h-512q-52 0-90-38t-38-90v-384q0-52 38-90t90-38h512q52 0 90 38t38 90z"/></symbol><symbol viewBox="0 0 1792 1792" id="twitter"><title>twitter</title><path d="M1684 408q-67 98-162 167 1 14 1 42 0 130-38 259.5t-115.5 248.5-184.5 210.5-258 146-323 54.5q-271 0-496-145 35 4 78 4 225 0 401-138-105-2-188-64.5t-114-159.5q33 5 61 5 43 0 85-11-112-23-185.5-111.5t-73.5-205.5v-4q68 38 146 41-66-44-105-115t-39-154q0-88 44-163 121 149 294.5 238.5t371.5 99.5q-8-38-8-74 0-134 94.5-228.5t228.5-94.5q140 0 236 102 109-21 205-78-37 115-142 178 93-10 186-50z"/></symbol><symbol viewBox="0 0 1792 1792" id="user"><title>user</title><path d="M1600 1405q0 120-73 189.5t-194 69.5h-874q-121 0-194-69.5t-73-189.5q0-53 3.5-103.5t14-109 26.5-108.5 43-97.5 62-81 85.5-53.5 111.5-20q9 0 42 21.5t74.5 48 108 48 133.5 21.5 133.5-21.5 108-48 74.5-48 42-21.5q61 0 111.5 20t85.5 53.5 62 81 43 97.5 26.5 108.5 14 109 3.5 103.5zm-320-893q0 159-112.5 271.5t-271.5 112.5-271.5-112.5-112.5-271.5 112.5-271.5 271.5-112.5 271.5 112.5 112.5 271.5z"/></symbol></svg>